<?xml version="1.0"?>
<svg xmlns:rdf="http://www.w3.org/1999/02/22-rdf-syntax-ns#" xmlns="http://www.w3.org/2000/svg" xmlns:cc="http://web.resource.org/cc/" xmlns:dc="http://purl.org/dc/elements/1.1/" xmlns:sodipodi="http://inkscape.sourceforge.net/DTD/sodipodi-0.dtd" xmlns:svg="http://www.w3.org/2000/svg" id="Layer_1" style="enable-background:new 0 0 263.112 247.903" xml:space="preserve" sodipodi:version="0.32" viewBox="0 0 263.112 247.903" version="1.0" sodipodi:docname="Casa dei sogni.svg" sodipodi:docbase="F:\openclip\svg3">
<sodipodi:namedview id="base" bordercolor="#666666" borderopacity="1.0" pagecolor="#ffffff"/>
<g id="g3" clip-rule="evenodd" fill-rule="evenodd">
	<path id="path5" d="m62.89 247.9c15.642-2.725 30.7-6.822 46.464-9.039 14.089-1.982 28.726-0.302 42.635-3.666 9.93-2.402 20.047-5.615 29.779-8.65 4.963-1.548 10.245-4.589 15.46-4.896 3.499-0.206 6.45 2.079 9.839 2.039-1.249-4.32-12.971-7.101-16.685-8.433-3.795-1.361-10.521-2.489-4.742-5.716 1.641-0.917 1.698 1.003 3.655-0.45 1.073-0.797 1.802-3.602 2.356-4.807 1.46-3.171 2.537-6.505 5.441-8.705-0.105 3.205-2.947 6.635-0.727 9.611 0.189-0.344 0.547-0.729 0.727-0.997 0.864 3.06 0.898 4.698 3.173 5.351 6.705 1.923 10.437-4.132 13.252-8.887 1.721-2.907 3.416-5.804 4.759-8.907 1.309-3.021 1.444-6.845 2.846-9.682 2.269-4.593 7.553-7.693 10.064-12.423 0.539 0.976 1.301 1.921 1.45 3.265 1.395-2.646-1.171-12.505-3.037-9.237-2.968 5.192-4.854 9.32-7.148 1.585-0.521-1.754-2.63-0.048-2.76-2.447-0.128-2.347-0.256-4.692-0.383-7.039-0.189 0.07-9.295 2.558-7.527 3.719-2.013-1.322 6.498-9.741-2.084-7.437-2.599 0.698-8.033 8.809-5.714 1.089 2.145-7.136 4.59-14.085 7.254-21.038 5.421-14.149 12.456-28.927 20.63-41.711 4.467-6.986 8.465-12.827 17.637-10.791 1.892 0.42 13.938-1.889 13.601-3.718 0.166 0.901-20.943-8.733-23.123-9.43 1.756 0.982 5.572 1.953 4.807 3.627-5.743-2.972-12.123-5.441-17.91-8.833-3.158-1.851-8.923-4.052-10.743-7.217l10.245 5.169c-6.353-3.904-13.466-6.841-19.677-10.836-2.333-1.501-3.737-3.895-5.848-5.622-0.916-0.75-2.18-1.647-3.129-2.131-0.618-0.315-1.811 0.749-2.177 0.453-5.25-4.229 5.24-21.583 5.26-27.203 0.012-3.495-2.805-5.976-4.262-8.886-1.865-3.726-2.722-6.474-6.166-4.081-2.271 1.578-7.817 5.944-9.341 8.524-2.631 4.455-2.326 13.775-3.988 19.405-0.786 2.661-1.649 6.154-3.266 8.07 0.075 0.238 0.445 0.436 0.636 0.635-2.729 0.891-8.787-1.685-11.743-2.403-5.483-1.333-10.984-2.621-16.458-3.989-9.97-2.493-17.79-5.512-25.57-12.287-8.565 12.108-22.558 19.003-34.094 27.747-9.66 7.322-19.767 14.317-30.061 20.869-5.919 3.767-12.243 7.034-17.908 11.14-5.572 4.039-10.566 8.881-16.231 12.785-6.324 4.358-11.272 7.945-16.594 13.647-2.188 2.344-6.268 3.973-5.712 7.753 5.01-1.904 9.807-3.348 14.508-4.897 3.098-1.021 6.676-1.122 9.92-1.585 2.66-0.38 2.027-0.928 3.844 1.578 1.216 1.677 2.396 3.401 3.464 5.176 7.807 12.96 14.606 28.658 18.844 43.183 2.044 7.007 3.673 14.155 5.505 21.222 1.427 5.506 2.854 11.012 4.282 16.518 0.624 2.405-3.169 5.896-4.782 7.669-3.384 3.719-7.254 5.015-7.254 10.383 0 2.219-1.719 3.085-2.448 5.305-0.813 2.477-0.133 5.349 0.726 7.707 2.367 6.505-2.734 14.128 2.811 19.679 3.557 3.61 9.133 3.06 13.41 3.21"/>
	<path id="path7" d="m58.084 245.18c5.019 0.56 9.772-2.354 14.508-3.537 3.504-0.875 7.08-1.773 10.609-2.72 11.106-2.978 25.521-6.614 37.016-5.059 23.37 3.164 43.757-10.11 65.903-14.801-9.453-3.62-18.808-0.831-28.428 0.726-15.213 2.461-28.009 8.777-43.798 8.071-13.389-0.6-29.091-4.868-25.616-21.355 1.359-6.449 5.625-11.41 10.428-15.642-5.661-1.415-5.645-1.5-6.438-7.437-0.543-4.069-0.846-8.226-0.907-12.331-0.122-8.268 0.671-16.577 1.813-24.755 2.326-16.645 5.757-33.427 14.599-47.969-12.821 6.759-23.507 17.827-36.542 24.347-1.834 0.917-9.54 3.521-10.519 5.577-1.03 2.165 4.964 8.814 6.554 11.691 4.154 7.517 7.726 15.308 11.263 23.128 3.312 7.318 4.409 15.855 8.057 23.06 4.658 9.198-4.665 18.739-12.364 23.549-6.239 3.897-14.649 10.83-18.679 16.775-3.516 5.2-6.196 17.51 2.544 18.68" fill="#808080"/>
	<path id="path9" d="m50.649 223.96c2.058-2.407 4.526-4.352 7.255-5.94 3.334-1.941 5.757-4.636 8.886-6.982 5.595-4.196 11.064-8.545 15.324-14.01-2.163-0.409-8.149-2.75-10.064-1.903-0.5 0.221-1.329 2.415-1.859 2.946-2.73 2.733-4.688-0.552-4.579-3.672-1.56 1.342-1.43 3.44-2.357 4.624-0.07 0.09-2.262 0.979-2.824 1.581-2.085 2.234-4.117 5.202-6.7 6.868-2.431 1.569-3.476 3.245-1.72 5.878 1.35 2.024-0.974 4.638-3.174 4.173 0.492 1.97 1.078 5.12 1.812 6.43" fill="#2FC400"/>
	<path id="path11" d="m116.39 223.69c19.32-0.403 36.735-11.034 55.676-12.966 3.382-0.345 5.847 0.001 8.433-1.09 5.44-2.295 6.991-4.64 9.703-9.793 1.88-3.573 4.438-9.174 8.069-11.334 3.862-2.297 3.13-0.882 4.263 4.08-0.048 0.083-0.488-0.08-0.544 0-0.195 4.413-0.801 8.341-0.636 14.417 3.76-0.129 4.85 0.39 7.019-2.629 1.493-2.076 2.643-4.381 3.682-6.71 2.064-4.63 3.464-9.584 5.786-14.098 2.034-3.954 5.956-7.107 4.46-10.748-0.646-1.57-2.809-3.167-3.535-5.169-3.057 1.696-2.551-7.093-2.177-8.886-2.976 1.689-2.755 4.61-5.713 4.624-2.003 0.009-6.153-3.074-3.265-4.353 0.056 0.373 0.004 0.585 0.181 0.907 0.383-1.189 0.676-2.491 0.907-3.719-0.832 2.023-8.287 6.517-10.972 6.167-4.893-0.637-1.202-4.965-6.576-1.139-4.958 3.53-10.746 9.951-17.091 10.387-1.493 0.103-3.166-0.208-4.579-0.679-1.119-0.374-3.341 2.452-4.488 2.946-2.307 0.993-3.507 0.384-5.848 0.228-2.544-0.17-3.953 1.674-6.213 2.312-2.061 0.582-4.118-0.012-5.712 0.635-1.098 0.445-1.986 2.099-3.083 2.72-0.604 0.342-1.8-0.247-2.357 0.092-1.589 0.965-2.97 3.02-4.269 4.524-1.656 1.919-2.386 3.05-4.89 1.913-3.041-1.38-3.312-6.762-3.083-9.611-1.912 3.892-3.915 15.438-9.839 12.74-4.025-1.834-5.92-6.211-7.481-10.021-1.795 3.012-1.799 6.477-2.63 9.794-1.402 5.596-3.748 3.516-7.344 0.906-0.681 5.234-6.841 6.85-7.436 11.924-0.579 4.939-5.82 12.135-0.997 16.549 0.577 0.528 1.313-0.4 1.994-0.09 2.699 1.229 5.584 2.578 8.66 3.31 3.38 0.82 10.21-0.15 11.93 1.87" fill="#70C400"/>
	<path id="path13" d="m69.963 192.95c1.696-2.021 6.054-2.09 7.98-1.179-2.236-13.399-6.383-26.586-11.335-39.263-2.675-6.847-6.087-13.033-9.703-19.359-2.136-3.737-2.191-5.135 1.269-8.297 10.541-9.632 24.348-15.833 36.09-23.758 3.446-2.326 26.376-20.383 27.747-17.954 1.385 2.456-5.081 11.373-6.438 13.964-3.279 6.26-6.484 12.659-8.304 19.519-2.842 10.711-4.772 22.048-5.953 33.051-0.561 5.223-0.956 10.559-1.25 15.802-0.228 4.067-2.305 18.425 0.725 21.49 0.327 0.331 2.521-0.299 3.447 0 0.182 0.059 1.563 2.03 1.722 2.267 1.826-2.66 2.064-14.822 5.622-15.415 2.455-0.409 5.742 7.133 6.71 8.705-0.604-10.246-1.209-20.493-1.813-30.739-1.048 0.305-3.06 0.716-1.989-0.93 2.532-3.895 2.146-7.48 2.487-12.036 0.61-8.132 1.405-16.237 2.97-24.249 3.188-16.323 7.616-31.775 12.581-47.659-12.503 2.235-25.489 3.634-37.791 6.774-12.538 3.2-24.295 7.876-36.457 12.273-10.427 3.771-19.747 6.976-29.069 12.507-5.261 3.121 1.484 2.463 4.645 2.714 5.056 0.4 1.398 3.607-0.437 7.17 2.72 0.181 5.44 0.363 8.161 0.544-0.613 1.841-3.833 7.678-1.542 8.252 1.403 0.352 3.305-0.412 4.625 0.182 4.759 2.142 1.135 7.158 0 11.334 2.236 0.303 4.473 0.604 6.709 0.907-0.377 1.293-2.394 5.534-1.813 6.619 0.662 1.238 3.28-0.119 4.172 0.816 2.043 2.144-0.784 6.22-1.632 8.705 1.474-0.203 2.971-0.136 4.397 0.272 3.678 1.054-0.898 4.424-2.13 5.803 1.286 0.612 2.725 0.003 4.261-0.271-7.012 3.09-7.215 1.949-2.357-3.719-2.016-1.559-5.183-0.676-4.806 1.769 0.538 3.49 1.09 7.179 3.356 10.02 1.099-2.367 3.781-8.492 5.44-8.523 0.353 2.518-3.05 6.236-3.809 9.068 0.954-0.279 3.55-0.695 3.536 0.362-0.011 0.834-3.869 0.871-4.261 1.541-0.503 0.859 1.194 5.003 1.45 6.076 1.632-2.267 3.265-4.534 4.897-6.801 1.938 2.11-1.642 4.889-2.993 6.801 2.025 0.271 4.05 0.544 6.076 0.815-1.239 2.6-2.478 5.199-3.717 7.799 6.916-0.407 5.433 0.584 3.717 7.163 1.285 0.229 1.58 1.822-0.09 1.904-3.242 0.159-1.184-5.448 0.09-7.707-4.104 0.864-5.405-0.041-4.534 4.117 0.726 3.464 1.451 6.927 2.177 10.391 1.046-2.093 3.041-9.619 5.259-10.791 5.196-2.74-0.352 10.93 1.893 11.16" fill="#004AA8"/>
	<path id="path15" d="m122.19 185.52c1.871-6.321 7.089-24.409 14.84-25.432 4.904-0.647 3.769 0.038 1.799 3.441-2.941 5.081-4.653 10.933-3.944 16.821 3.785-2.382 6.65-3.723 10.335-5.259 1.094-0.456 1.637-1.596 3.038-1.996 1.437-0.41 3.023 0.355 4.126 0.091 1.874-0.449 3.073-2.035 4.807-2.629 2.253-0.771 3.491 0.393 5.258 0.271 3.253-0.224 5.239-3.662 8.797-3.627 2.731 0.027 2.858 1.96 5.646 0.353 3.339-1.926 6.173-4.646 9.226-6.972 2.979-2.27 6.275-3.77 9.338-5.804 2.686-1.784 2.604-0.43 3.485-4.021 0.536-2.186 1.153-4.363 1.865-6.498 5.161-15.482 13.116-30.231 20.402-44.794 1.984-3.967 4.25-7.82 6.659-11.544 0.983-1.52 8.729-10.346 8.393-11.487-0.456-1.552-2.981 0.074-3.717-0.998-1.551-2.259 5.647-1.592 6.528-1.542-3.561-0.452-6.646-1.017-10.065-2.085-0.077 0.157 0.101 0.495 0 0.635-11.982-2.072-23.305-4.519-35.454-5.169-13.056-0.699-25.546-0.927-38.628 0.363 1.626-0.047 3.116 0.443 3.444 1.813-6.706 0.535-14.258 0.954-20.31 4.171 1.152 0.078 12.534-0.12 11.334 1.995-0.852 1.502-10.903 3.753-13.33 5.531 1.379-0.035 11.651-1.435 11.334 0.635-0.129 0.838-7.727 3.246-8.795 3.809-2.873 1.512-5.45 3.268-7.527 5.803 2.023-0.15 20.217-3.347 19.225-0.635-0.309 0.844-8.411 2.616-9.609 3.137-4.003 1.741-7.684 3.92-10.793 7.02 3.718-0.587 14.565-5.004 17.229-1.633-7.056 2.509-13.641 6.273-19.315 11.154 5.149-1.522 10.342-1.946 15.676-2.59 1.016-0.123 4.54 0.546 1.962 1.784-7.295 3.503-15.012 6.395-20.63 12.503 5.617-1.423 11.105-4.443 17.002-4.443 4.831 0 3.69 1.081 0.045 2.902-7.23 3.613-12.848 8.802-18.861 14.146 6.89-2.271 13.119-9.239 20.948-6.982-7.259 7.637-18.94 9.511-23.849 19.586 4.009-2.477 16.284-10.079 20.766-8.161-5.94 5.459-13.716 9.104-17.955 16.231 1.866-1.065 12.346-7.913 13.874-5.894 0.136 0.179-11.538 11.593-12.695 13.147 0.888-0.605 1.522-0.54 2.177-0.725-3.116 2.856-6.053 4.175-5.44 8.704 2.902-3.324 5.803-6.649 8.705-9.974-0.952 0.507-2.113 0.613-3.083 1.088 1.609-3.216 10.57-6.461 3.083 0.997-3.956 3.94-8.299 7.922-8.252 13.965 0 2.63 0.7 6.49 0.88 8.8" fill="#047391"/>
	<path id="path17" d="m59.535 176.72c1.481-2.298 2.962-4.595 4.443-6.893-2.025 0.212-4.05 0.424-6.076 0.636 0.414 1.69 1.528 6.12 1.633 6.25" fill="#fff"/>
	<path id="path19" d="m232.46 169.83c-0.149-0.473-0.098-0.922-0.362-1.269-0.08 0.63 0.41 1.45 0.36 1.27" fill="#fff"/>
	<path id="path21" d="m86.104 165.39c5.934 0.368 3.279-8.801-0.635-5.712-1.732 1.36-1.171 5.31 0.635 5.71"/>
	<path id="path23" d="m120.74 164.48c4.02-4.322 8.04-8.645 12.06-12.967-3.58 2.02-17.83 7.9-12.06 12.97" fill="#fff"/>
	<path id="path25" d="m120.29 156.14c4.096-5.929 9.843-10.092 15.415-14.509-4.637 2.141-9.273 4.28-13.91 6.421-2.58 1.19-1.85 8.12-1.5 8.09" fill="#fff"/>
	<path id="path27" d="m50.195 146.07c0.877-2.539 1.753-5.079 2.63-7.618-1.572-0.212-3.144-0.423-4.716-0.635 0.544-2.418 1.088-4.836 1.632-7.254-3.913-0.175-7.144 0.785-6.347-3.989 0.422-2.529 1.349-4.936 1.904-7.436-3.923-0.139-7.761 1.351-8.161-2.993-0.181-1.967 1.399-4.5 2.629-5.894-4.601-0.365-6.054-1.75-5.622 2.267 0.373 3.466 3.416 8.077 4.897 11.244 3.489 7.45 7.514 15.24 11.154 22.3" fill="#fff"/>
	<path id="path29" d="m120.74 142.99c6.573-5.446 13.63-9.983 20.855-14.509-4.89 0.05-26.82 10.28-20.86 14.51" fill="#fff"/>
	<path id="path31" d="m121.2 134.74c6.415-5.753 12.484-11.602 20.221-15.597-5.227 0.094-9.991 1.912-14.734 3.944-2.998 1.284-4.404 1.324-4.794 4.626-0.23 1.85-0.82 6.76-0.7 7.03" fill="#fff"/>
	<path id="path33" d="m157.1 132.11c8.759-3.015 17.696-7.867 27.11-8.251 2.467-0.101 11.942 3.377 10.338-2.267-3.124 2.906 0.582-6.654 1-7.979 2.559-8.121 4.854-16.313 8.423-24.067 1.082-2.35 9.026-13.189 8.259-14.472-1.745-2.915-12.17 1.783-14.01 2.222-8.144 1.94-16.973 4.521-25.435 4.035-5.601-0.321-7.207-3.375-8.696 3.166-0.997 4.377-0.735 8.887-1.414 13.337-0.812 5.331-11.082 32.602-5.485 34.366-0.02-0.03-0.04-0.06-0.08-0.09"/>
	<path id="path35" d="m159.28 127.66c6.421-2.414 13.067-4.319 19.747-5.877 1.51-0.352 8.801-3.445 7.638-0.923 1.537 0.187 3.075 0.295 4.625 0.363-0.01-4.911 0.341-10.172 3.173-14.327 0.267 1.114 0.575 0.455-0.181 2.357 4.165-10.223 6.034-21.754 13.239-31.011-6.599 0.248-12.585 3.58-19.11 4.332-6.947 0.802-14.434 1.127-21.424 0.655-0.162 8.006-1.043 16.047-2.798 23.871-1.11 4.9-6.11 16.94-4.92 20.56" fill="#fff"/>
	<path id="path37" d="m122.92 122.04c5.335-5.96 12.773-9.056 19.678-12.786-6.155-0.524-11.623 1.497-17.32 3.491-3.22 1.13-2.76 9.17-2.36 9.3" fill="#fff"/>
	<path id="path39" d="m171.61 122.5c-0.278-2.627 3.021-3.625 3.535-0.725 2.893-3.733 6.746-1.893 11.154-4.806 3.564-2.356 4.319-9.042 5.598-12.819 1.561-4.609 3.926-16.424 8.457-18.465-8.155 0.692-16.311 1.383-24.466 2.075-2.367 0.201-1.767-2.074-3.825-0.262-2.53 2.228-4.296 12.005-5.622 15.416-2.271 5.841-4.104 11.989-3.809 18.317 2.26-0.1 9.33-2.09 8.98 1.27"/>
	<path id="path41" d="m166.35 118.5c1.223-0.253 7.224-0.763 7.511-1.823 0.882-3.261 1.763-6.522 2.645-9.783-2.19 0.339-7.259-0.052-7.927 2.254-0.66 2.33-3.06 7.87-2.22 9.35" fill="#00A0C6"/>
	<path id="path43" d="m178.14 115.97c0.879-0.122 3.647-0.998 4.354-1.36 0.57-0.293 1.627 0.427 1.936-0.279 1.409-3.231 2.819-6.463 4.229-9.695-1.339 0.529-2.741 0.861-4.307 1.178-3.95 0.79-6.98 6.69-6.21 10.15" fill="#00A0C6"/>
	<path id="path45" d="m192.65 114.61c0.095-0.325 0.397-1.328 0.363-1.179-0.19 0.37-0.24 0.77-0.36 1.18" fill="#fff"/>
	<path id="path47" d="m124.73 110.71c5.813-3.72 11.466-7.199 17.318-10.7l-14.379 3.168c-2.85 0.62-3.41 6.69-2.94 7.53" fill="#fff"/>
	<path id="path49" d="m184.12 109.71c0.193-0.241 0.423-0.404 0.544-0.816-0.06 0.22-0.57 0.87-0.54 0.82" fill="#00A0C6"/>
	<path id="path51" d="m32.06 107.53c0.756-1.572 1.511-3.143 2.267-4.715h-5.078c0.801 1.6 1.99 4.37 2.811 4.71" fill="#fff"/>
	<path id="path53" d="m195.1 106.17c0.338-0.693 0.666-1.39 0.999-2.085-0.31 0.58-1.46 3.1-1 2.09"/>
	<path id="path55" d="m170.25 104.09c2.871-0.221 6.6 0.74 7.672-2.171 1.492-4.052 2.985-8.104 4.478-12.156-4.328 0.204-7.239-1.139-8.569 3.132-1.15 3.681-2.16 7.714-3.58 11.194" fill="#00A0C6"/>
	<path id="path57" d="m183.04 102.46c3.008-0.516 5.843-0.002 7.169-2.853 1.751-3.764 3.502-7.528 5.253-11.292-3.276 0.159-8.918-1.224-9.804 2.316-0.8 3.168-3.2 9.579-2.62 11.829" fill="#00A0C6"/>
	<path id="path59" d="m21.724 102.27c0.937-0.129 1.48 0.311 2.085-0.544-0.95-0.26-2.008 0.5-2.085 0.54" fill="#fff"/>
	<path id="path61" d="m126.46 101.55c5.748-4.562 11.507-8.149 18.407-10.7-4.667 0.943-9.334 1.887-14.001 2.831-3.85 0.775-4.18 4.729-4.41 7.869" fill="#fff"/>
	<path id="path63" d="m168.53 92.663c0.042-0.353 0.02-1.243 0.09-1.088 0.02 0.344-0.09 1.1-0.09 1.088"/>
	<path id="path65" d="m129.36 90.849c3.879-3.393 8.169-6.962 13.24-8.342-1.728 0.158-10.361 2.521-10.791 0-0.432-2.536 11.797-6.532 13.512-7.254-1.786-0.075-11.471 0.646-10.882-1.36 0.979-3.333 14.576-4.616 17.409-4.896-4.131-0.397-16.391-3.998-17.454 0.455-1.37 5.713-5.62 17.452-5.04 21.397" fill="#fff"/>
	<path id="path67" d="m34.872 87.313c19.36-9.477 39.123-16.268 59.762-22.242 9.523-2.756 18.645-4.112 28.421-4.962 4.39-0.381 9.806-1.595 13.829-0.635 0.095 0.022-0.004 1.038 0.562 1.142 3.35 0.617 6.698 1.234 10.047 1.851-0.03-0.574-0.061-1.149-0.091-1.723-1.41 0.263-2.987 0.085-4.352-0.181 0.021-0.083-0.009-0.143-0.092-0.182 0.353-0.186 0.669-0.37 0.999-0.544-3.214-6.883-8.092-12.932-12.6-19-2.103-2.832-3.986-5.813-5.718-8.884-0.982-1.742-2.195-6.842-3.99-7.843-2.463-1.375-3.652 1.505-5.712 3.627-2.246 2.313-4.57 4.527-7.09 6.542-3.259 2.606-7.278 5.263-11.045 7.15-5.564 2.788-10.651 8.423-15.597 12.332-5.649 4.464-11.438 8.713-17.429 12.708-3.503 2.328-31.105 19.129-29.917 20.844" fill="#FF4000"/>
	<path id="path69" d="m235.9 68.996c-9.322-4.775-18.432-9.876-26.964-15.969-3.656-2.612-8.241-7.779-12.571-8.604-5.02-0.956-10.07-1.617-15.142-2.221-18.62-2.219-37.87-7.371-54.77-15.188 5.482 11.516 13.631 21.066 21.423 31.05 1.179 1.511 3.771 6.372 5.538 6.077 3.048-0.508 6.139-0.869 9.219-1.128 5.779-0.487 11.61-0.596 17.409-0.635 5.97-0.04 11.983 0.098 17.928 0.655 5.197 0.487 13.705 0.377 18.298 2.926 5.94 3.299 13.86 0.657 19.62 3.037" fill="#FF7F00"/>
	<path id="path71" d="m147.94 66.638c0.481 0.039 0.921 0.115 1.36 0.272-0.49-0.341-1.11-0.252-1.36-0.272" fill="#fff"/>
	<path id="path73" d="m140.87 66.185c1.783 0.091 3.566 0.182 5.35 0.272-2.468-1.557-5.622-1.783-8.344-0.726 0.94 0.132 2.38 0.426 2.99 0.454" fill="#fff"/>
	<path id="path75" d="m192.2 39.617c2.656-4.966 2.982-13.133 4.16-18.803 1.57-7.557 2.317-8.604-1.894-15.02-2.871 10.821-5.743 21.642-8.614 32.462 2.1 0.454 4.22 0.907 6.34 1.361" fill="#fff"/>
	<path id="path77" d="m182.58 38.347c2.208-0.231 4.156-13.652 5.181-16.718 1.911-5.727 3.567-11.661 3.524-17.739-3.915 2.885-11.751 6.477-8.435 12.151 0.491 0.84 1.503-1.807 1.634-1.36 0.109 0.374 0.569 1.174 0.09 1.814-1.887 2.519-2.563-0.576-3.571 3.977-1.059 4.772-2.116 9.544-3.175 14.316-0.79 3.607 1.71 2.775 4.76 3.559" fill="#B2B2B2"/>
</g>
<metadata><rdf:RDF><cc:Work><dc:format>image/svg+xml</dc:format><dc:type rdf:resource="http://purl.org/dc/dcmitype/StillImage"/><cc:license rdf:resource="http://creativecommons.org/licenses/publicdomain/"/><dc:publisher><cc:Agent rdf:about="http://openclipart.org/"><dc:title>Openclipart</dc:title></cc:Agent></dc:publisher><dc:title>Architetto -- Casa dei sogni</dc:title><dc:date>2009-04-28T16:32:19</dc:date><dc:description>'House of dreams' by Francesco 'Architetto' Rollandin.</dc:description><dc:source>http://openclipart.org/detail/25402/architetto----casa-dei-sogni-by-anonymous-25402</dc:source><dc:creator><cc:Agent><dc:title>Anonymous</dc:title></cc:Agent></dc:creator><dc:subject><rdf:Bag><rdf:li>building</rdf:li><rdf:li>cartoon</rdf:li><rdf:li>clip art</rdf:li><rdf:li>clipart</rdf:li><rdf:li>cottage</rdf:li><rdf:li>home</rdf:li><rdf:li>house</rdf:li><rdf:li>image</rdf:li><rdf:li>media</rdf:li><rdf:li>png</rdf:li><rdf:li>public domain</rdf:li><rdf:li>svg</rdf:li></rdf:Bag></dc:subject></cc:Work><cc:License rdf:about="http://creativecommons.org/licenses/publicdomain/"><cc:permits rdf:resource="http://creativecommons.org/ns#Reproduction"/><cc:permits rdf:resource="http://creativecommons.org/ns#Distribution"/><cc:permits rdf:resource="http://creativecommons.org/ns#DerivativeWorks"/></cc:License></rdf:RDF></metadata></svg>
