<?xml version="1.0" encoding="UTF-8" standalone="no"?>
<!DOCTYPE svg PUBLIC "-//W3C//DTD SVG 1.1//EN" "http://www.w3.org/Graphics/SVG/1.1/DTD/svg11.dtd">
<svg width="100%" height="100%" viewBox="0 0 1291 1102" version="1.1" xmlns="http://www.w3.org/2000/svg" xmlns:xlink="http://www.w3.org/1999/xlink" xml:space="preserve" xmlns:serif="http://www.serif.com/" style="fill-rule:evenodd;clip-rule:evenodd;stroke-linejoin:round;stroke-miterlimit:2;">
    <g transform="matrix(0.64,0,0,0.64,0,0)">
        <g transform="matrix(4.16667,0,0,4.16667,0,0)">
            <path d="M249.134,203.492C250.228,204.433 253.019,207.298 254.134,208.492C318.807,277.793 258.249,386.646 176.895,408.754C105.156,428.25 17.588,378.398 2.598,304.527C-13.036,227.477 43.421,129.269 130.36,142.765C159.001,147.211 170.595,162.035 193.462,174.664C211.84,184.813 232.611,189.299 249.134,203.492Z" style="fill:rgb(214,118,58);fill-rule:nonzero;"/>
            <path d="M290.68,346.502C286.65,347.534 292.403,352.548 293.635,353.491C312.04,367.576 350.163,371.128 372.168,366.027C375.409,365.276 388.517,360.548 378.681,359.446C366.824,358.116 352.311,361.282 339.585,360.541C330.101,359.988 319.358,357.814 310.362,354.764C307.03,353.635 292.006,346.162 290.68,346.502ZM263.136,204.506C286.616,194.23 307.289,189.784 322.765,167.624C329.651,157.765 334.655,142.425 341.298,134.157C345.166,129.342 359.371,127.013 365.65,126.509C460.143,118.908 513.464,243.277 466.549,317.408C425.074,382.944 328.257,403.012 267.236,352.848C292.48,313.423 298.135,261.517 273.939,220.187L263.136,204.506Z" style="fill:rgb(217,119,58);fill-rule:nonzero;"/>
            <path d="M127.218,65.908C108.686,54.144 82.701,29.547 79.367,6.747C78.13,-1.711 84.503,-0.092 91.511,0.614C141.279,5.626 191.489,44.124 219.524,83.602C227.308,94.563 233.463,106.489 241.134,117.492L241.134,99.993C241.134,88.213 252.428,66.88 259.319,57.178C263.891,50.739 284.672,27.308 291.799,26.724C296.56,26.334 307.255,38.65 307.964,43.229C308.825,48.792 293.328,58.157 289.119,61.979C275.967,73.921 262.724,89.517 261.148,108.009C259.307,129.641 271.092,152.425 291.134,161.492L291.134,144.992C291.134,142.959 294.174,133.557 295.11,130.968C297.001,125.736 299.925,121.093 302.359,116.152C302.874,115.106 304.309,114.907 305.032,115.823C305.096,115.905 305.134,115.965 305.134,115.992L305.134,145.492C306.463,144.301 307.028,143.633 307.619,142.477C313.321,131.326 318.548,120.141 326.319,110.178L352.123,78.498C352.709,84.159 351.692,89.058 350.644,94.503C346.078,118.21 324.502,164.344 305.612,179.471C290.083,191.906 267.45,193.263 254.134,208.492C253.019,207.298 250.228,204.433 249.134,203.492C252.596,197.446 257.655,192.733 262.133,187.502C253.388,188.065 239.299,192.11 231.726,186.528C230.601,185.698 230.786,185.453 231.604,184.463C234.457,181.01 263.153,173.638 268.909,172.768C271.307,172.406 273.027,171.705 278.14,171.003C266.492,164.413 257.489,153.979 250.328,142.802C247.634,138.596 247.442,136.769 243.795,138.658C236.56,142.135 223.25,155.216 217.619,161.478C209.632,170.361 210.299,179.53 196.801,170.327C193.105,167.806 194.573,167.068 196.726,163.578C205.892,148.716 220.929,137.474 234.133,126.502C176.158,145.515 108.79,142.553 55.462,111.664C49.93,108.459 35.234,98.753 32.854,93.193C30.145,86.863 49.007,82.818 53.098,81.958C97.736,72.576 196.059,104.975 199.128,104.483C197.793,102.667 147.009,78.471 127.218,65.908Z" style="fill:rgb(120,144,90);fill-rule:nonzero;"/>
        </g>
    </g>
</svg>
