<?xml version="1.0" encoding="UTF-8" standalone="no"?>
<!DOCTYPE svg PUBLIC "-//W3C//DTD SVG 1.1//EN" "http://www.w3.org/Graphics/SVG/1.1/DTD/svg11.dtd">
<svg width="100%" height="100%" viewBox="0 0 883 1750" version="1.1" xmlns="http://www.w3.org/2000/svg" xmlns:xlink="http://www.w3.org/1999/xlink" xml:space="preserve" xmlns:serif="http://www.serif.com/" style="fill-rule:evenodd;clip-rule:evenodd;stroke-linejoin:round;stroke-miterlimit:2;">
    <g transform="matrix(0.64,0,0,0.64,0,0)">
        <g transform="matrix(4.16667,0,0,4.16667,0,0)">
            <path d="M78.857,561.579C78.877,561.179 78.507,560.879 78.127,560.969C65.697,564.049 53.087,566.119 40.317,567.179C34.437,567.669 28.707,568.589 23.207,570.159C19.587,571.189 3.877,576.959 9.677,582.839C11.457,584.649 14.137,586.449 17.727,588.239C20.557,589.649 22.147,591.889 22.507,594.959C22.547,595.289 22.517,595.619 22.407,595.939C21.707,597.959 20.317,599.549 18.237,600.699C13.217,603.469 10.697,604.869 10.677,604.879C4.297,608.799 1.267,615.679 7.937,621.369C14.677,627.119 22.387,629.079 31.177,630.319C40.287,631.609 50.157,632.179 60.797,632.039C73.697,631.869 85.657,632.349 95.507,633.689C105.558,635.059 112.498,638.359 123.488,642.689C126.378,643.829 133.238,645.869 144.078,648.819C156.438,652.179 171.298,652.279 183.328,651.589C189.898,651.219 197.738,650.039 206.868,648.059C219.278,645.369 229.808,642.609 238.438,639.769C244.838,637.669 251.478,636.469 257.747,636.029C272.858,634.979 283.688,634.109 290.238,633.439C296.548,632.789 301.728,631.899 305.798,630.769C310.588,629.439 315.798,627.009 321.428,623.479C326.758,620.139 328.968,613.549 323.068,609.789C319.488,607.499 315.548,605.859 311.258,604.849C305.988,603.619 300.548,602.689 296.658,599.559C292.418,596.169 294.538,591.939 298.258,589.459C298.488,589.309 301.358,587.669 306.848,584.559C317.558,578.479 310.388,572.339 303.218,568.989C299.378,567.199 295.408,566.009 291.318,565.409C280.268,563.799 269.428,562.849 258.798,562.559C258.668,562.559 258.568,562.649 258.548,562.779C257.157,575.299 249.218,585.999 238.858,592.579C235.008,595.029 229.538,597.629 222.428,600.389C214.128,603.609 205.308,604.839 196.048,605.779C183.848,607.009 171.898,606.989 160.188,605.719C149.698,604.579 142.238,603.599 137.808,602.779C127.698,600.909 117.228,597.999 106.408,594.039C95.657,590.099 85.127,582.229 80.287,571.709C78.817,568.519 78.667,564.979 78.857,561.579ZM91.917,357.979C91.607,358.419 91.487,358.959 91.577,359.489C94.527,377.599 96.357,395.309 97.067,412.619C97.537,424.029 97.567,433.639 97.157,441.449C95.327,476.589 90.957,512.139 84.057,548.089C83.137,552.869 82.797,556.999 82.867,561.739C83.037,573.979 90.827,581.019 100.928,586.269C109.788,590.879 119.058,594.179 128.738,596.169C138.608,598.199 148.698,599.849 158.998,601.109C176.868,603.299 194.688,602.439 212.458,598.529C224.788,595.809 235.258,590.429 243.888,582.379C254.558,572.429 256.568,557.719 254.048,544.169C250.158,523.189 244.828,501.759 242.498,481.089C239.348,453.199 238.748,426.829 240.718,401.959C240.938,399.109 241.258,396.339 241.688,393.659C241.748,393.259 241.618,392.849 241.338,392.559C230.038,380.849 229.058,360.779 231.758,345.689C233.768,334.489 234.918,326.159 235.208,320.709C235.848,308.749 233.978,291.299 222.418,285.539C214.338,281.519 207.088,288.389 205.178,295.919C202.268,307.309 204.878,315.329 207.878,329.939C209.658,338.589 208.558,346.589 204.568,353.919C200.278,361.809 190.888,364.449 183.178,359.659C170.408,351.719 170.818,335.899 174.058,323.039C177.708,308.529 178.608,292.029 171.328,278.919C166.848,270.839 158.118,265.449 149.498,270.979C146.218,273.079 143.128,274.919 140.268,275.469C131.388,277.189 125.368,270.689 121.938,263.079C118.808,256.139 115.208,248.809 107.118,250.079C100.178,251.159 96.107,258.329 95.047,264.819C93.417,274.709 94.947,285.299 96.997,298.329C98.967,310.919 99.807,322.869 99.517,334.159C99.287,343.109 96.747,351.049 91.917,357.979ZM158.078,211.359C158.078,210.989 157.808,210.679 157.438,210.629C144.218,208.869 126.328,206.679 110.388,201.879C107.058,200.879 102.828,200.469 97.697,200.649C80.287,201.249 74.117,219.839 69.887,233.379C66.607,243.909 66.797,254.109 70.447,263.979C71.457,266.719 72.897,270.369 74.747,274.919C81.587,291.719 75.567,309.809 68.897,325.559C65.067,334.579 63.487,347.809 70.187,355.899C76.177,363.129 85.677,361.259 90.337,353.549C92.177,350.499 93.347,347.649 93.857,344.999C95.747,335.119 96.087,324.979 94.897,314.569C93.737,304.459 92.547,294.889 91.337,285.849C89.907,275.189 89.447,262.959 95.577,253.329C101.218,244.489 114.128,243.789 120.498,252.029C123.178,255.499 124.788,261.929 127.598,265.709C130.948,270.219 136.808,273.339 142.268,270.469C145.798,268.609 149.078,266.039 152.958,265.139C166.348,262.049 176.358,275.589 178.908,287.339C180.408,294.229 180.988,300.659 180.658,306.639C180.058,317.509 176.308,327.919 176.368,338.899C176.398,344.159 177.798,348.569 180.568,352.119C184.998,357.819 193.678,360.219 199.088,354.509C204.188,349.139 205.418,339.599 204.138,332.329C203.128,326.549 202.018,320.509 200.788,314.199C199.998,310.159 199.718,306.259 199.938,302.499C200.468,293.209 206.048,281.129 216.508,280.649C223.438,280.339 228.768,283.259 232.498,289.409C238.038,298.549 239.738,309.159 239.438,320.089C239.208,328.849 235.938,341.389 235.228,348.699C234.108,360.319 234.278,372.889 239.478,383.249C243.138,390.539 252.098,396.979 260.217,392.619C269.588,387.589 270.128,375.599 268.348,365.839C266.808,357.369 263.398,350.939 259.407,342.789C257.428,338.729 255.668,332.759 254.118,324.879C253.708,322.779 253.368,318.429 253.118,311.819C252.958,307.799 253.168,303.439 253.758,298.749C254.438,293.319 255.948,283.739 258.288,270.009C261.138,253.329 260.068,236.629 255.078,219.909C254.058,216.509 252.088,212.919 249.158,209.149C239.018,196.099 224.398,203.079 212.568,208.799C199.208,215.269 184.498,215.829 170.078,212.959C169.748,212.899 169.448,213.149 169.448,213.479L169.448,222.029C169.448,222.589 169.798,223.099 170.328,223.289C179.828,226.729 192.348,229.959 202.278,228.289C209.488,227.079 215.738,224.369 221.028,220.169C221.388,219.889 221.888,220.239 221.748,220.669C220.038,225.819 211.638,229.599 206.698,230.689C196.358,232.979 186.018,232.419 175.678,228.989C162.128,224.499 151.828,220.089 137.988,220.949C135.228,221.119 131.898,221.359 127.998,221.649C119.478,222.299 112.318,219.309 106.528,212.669C106.088,212.169 106.388,211.379 107.048,211.289L107.298,211.289C107.398,211.289 107.498,211.329 107.578,211.389C113.868,216.379 119.158,219.669 127.668,218.809C127.938,218.779 131.738,218.309 139.068,217.399C145.298,216.629 151.478,217.229 157.588,219.199C157.828,219.269 158.078,219.089 158.078,218.839L158.078,211.359ZM163.588,170.099C163.488,170.249 163.468,170.539 163.538,170.949C164.788,178.979 164.968,186.179 164.088,192.569C163.398,197.549 162.478,202.809 161.338,208.339C161.068,209.659 160.978,212.759 161.068,217.639C161.088,218.739 161.688,219.749 162.638,220.299L165.178,221.769C166.108,222.299 167.248,221.539 167.098,220.479C166.648,217.219 166.378,213.229 166.308,208.499C166.288,207.029 166.848,203.109 167.978,196.719C169.598,187.659 171.558,177.379 165.518,169.969C165.008,169.339 164.018,169.399 163.588,170.099ZM172.898,187.219C173.208,187.009 173.368,186.889 173.398,186.859C175.528,183.679 179.678,179.059 181.888,175.099C186.318,167.179 187.598,156.939 184.908,148.009C181.808,137.699 176.888,128.099 170.798,118.449C168.048,114.099 165.308,108.979 163.118,104.269C162.958,103.929 162.488,103.889 162.268,104.199C162.138,104.389 162.028,104.729 161.938,105.209C161.258,108.889 157.618,114.989 153.878,121.839C150.848,127.389 148.098,133.769 145.648,140.959C143.168,148.229 142.168,154.549 142.658,159.919C143.488,169.129 147.478,177.019 154.618,183.599C156.928,185.729 158.498,187.269 160.788,188.249C161.208,188.419 161.678,188.159 161.748,187.719C162.518,182.939 162.048,177.169 160.998,172.419C160.468,170.019 160.818,167.409 163.258,166.609C164.688,166.139 166.788,166.849 167.758,167.959C171.978,172.809 173.108,180.799 172.428,186.929C172.398,187.179 172.678,187.359 172.898,187.219ZM147.548,181.669C141.408,174.319 138.528,165.759 138.908,155.989C139.258,146.739 141.388,138.309 145.298,130.699C152.568,116.509 157.568,106.209 160.298,99.8C160.848,98.49 161.538,97.82 162.348,97.78C162.698,97.76 163.038,97.83 163.348,97.98C163.958,98.27 164.658,99.19 165.448,100.739C168.478,106.739 173.128,115.109 179.398,125.859C184.968,135.409 189.108,144.239 189.788,153.679C190.558,164.309 187.878,173.879 181.758,182.409C181.598,182.639 181.858,182.929 182.098,182.779C194.488,174.979 201.448,164.559 206.848,150.949C211.718,138.679 212.958,125.749 210.558,112.159C208.818,102.329 206.108,93.45 202.428,85.53C201.468,83.46 198.638,77.46 193.928,67.55C187.148,53.28 181.008,41.74 174.708,28.2C171.548,21.4 167.498,14.1 162.568,6.29C162.478,6.15 162.258,6.18 162.208,6.34C157.848,20.9 149.668,38.94 140.238,57.43C138.708,60.44 134.218,69.53 126.778,84.7C122.088,94.26 118.778,104.449 116.828,115.259C114.478,128.369 115.978,140.879 121.348,152.789C126.978,165.249 135.558,175.059 147.088,182.209C147.238,182.299 147.428,182.269 147.548,182.139C147.658,181.999 147.658,181.809 147.548,181.669ZM89.077,361.659C89.057,361.409 88.767,361.289 88.567,361.439C79.247,368.329 68.937,363.769 64.357,354.089C58.897,342.549 61.807,332.699 66.307,320.739C68.107,315.949 69.727,311.249 71.157,306.659C74.547,295.809 74.547,286.619 70.927,276.249C68.837,270.259 65.427,263.539 64.127,257.079C61.317,243.129 66.637,225.639 73.237,213.199C80.687,199.199 93.697,193.769 109.228,197.519C118.398,199.729 130.528,202.859 142.308,204.539C150.198,205.669 155.248,206.499 157.438,207.039C157.758,207.119 158.068,206.919 158.138,206.599L161.128,192.269C161.218,191.829 160.928,191.399 160.488,191.309C146.748,188.439 136.438,181.079 127.118,169.819C116.508,157.009 111.378,142.049 111.708,124.919C112.048,108.099 118.368,92.49 125.488,77.71C130.088,68.16 138.638,52.11 144.868,38.81C151.098,25.5 155.698,15.05 160.068,2.35C160.518,1.04 161.328,0.49 162.478,0.71C162.818,0.77 163.128,0.95 163.348,1.22C165.318,3.59 167.318,6.53 169.368,10.06C173.618,17.37 179.468,28.27 183.578,36.75C188.028,45.91 193.778,57.53 200.828,71.62C204.418,78.81 208.468,88.77 211.018,95.99C218.168,116.279 217.468,136.689 208.918,157.199C202.758,171.989 188.798,186.869 172.848,190.769C172.408,190.869 172.078,191.239 172.028,191.679L169.948,208.589C169.908,208.909 170.118,209.199 170.428,209.269C181.718,211.879 192.778,211.389 203.618,207.779C211.548,205.139 219.298,200.969 227.658,198.389C238.348,195.089 248.628,199.629 254.258,208.919C258.308,215.599 260.988,223.189 262.298,231.699C264.268,244.459 264.528,255.759 263.098,265.589C261.588,275.959 260.068,285.919 258.548,295.459C256.278,309.649 256.318,323.849 261.838,337.359C262.658,339.369 265.168,345.259 269.358,355.029C274.018,365.879 275.308,379.399 269.398,389.579C264.438,398.119 253.398,401.209 245.248,395.049C244.998,394.859 244.628,395.029 244.608,395.349C242.318,431.489 244.208,467.479 250.288,503.319C253.448,521.969 259.648,540.529 259.018,559.419C259.008,559.629 259.178,559.799 259.388,559.789C274.388,559.109 289.878,560.019 303.888,565.029C313.738,568.559 322.408,578.679 310.318,587.009C310.308,587.019 307.228,588.869 301.088,592.579C300.158,593.139 299.448,593.669 298.948,594.169C298.378,594.729 298.418,595.659 299.018,596.179C300.118,597.129 301.598,597.879 303.468,598.439C312.018,601.009 317.058,602.589 318.598,603.159C320.908,604.029 323.138,604.659 324.838,605.889C330.998,610.379 331.848,616.089 327.398,623.039C325.908,625.359 320.708,628.909 317.488,630.439C303.398,637.099 288.808,638.199 273.238,638.819C260.278,639.329 247.858,641.299 235.978,644.719C225.178,647.829 219.038,649.589 217.568,649.989C188.438,657.819 152.888,658.989 124.378,647.519C116.388,644.309 110.668,642.119 107.218,640.969C98.407,638.029 89.047,636.509 79.117,636.409C61.007,636.229 51.887,636.139 51.737,636.129C37.817,635.499 2.317,634.079 0.087,615.409C-1.062,605.759 9.327,600.489 16.437,597.159C17.377,596.719 17.997,596.129 18.287,595.389C18.687,594.409 18.257,593.239 17.277,592.599C14.117,590.539 9.407,588.529 6.467,585.089C1.577,579.379 6.657,573.219 11.797,570.479C15.187,568.669 18.867,567.269 22.827,566.299C32.757,563.859 41.257,563.059 53.267,561.869C62.817,560.919 69.437,559.679 77.937,557.979C78.377,557.899 78.717,557.539 78.777,557.089C79.857,548.179 81.287,538.759 83.067,528.819C85.627,514.569 87.147,505.159 87.617,500.589C89.467,482.559 90.947,468.349 91.947,455.399C93.387,436.829 93.477,418.019 92.207,398.949C91.337,385.969 90.297,373.539 89.077,361.659Z" style="fill:rgb(3,4,4);fill-rule:nonzero;"/>
            <path d="M147.548,181.669C147.658,181.809 147.658,181.999 147.548,182.139C147.428,182.269 147.238,182.299 147.088,182.209C135.558,175.059 126.978,165.249 121.348,152.789C115.978,140.879 114.478,128.369 116.828,115.259C118.778,104.449 122.088,94.26 126.778,84.7C134.218,69.53 138.708,60.44 140.238,57.43C149.668,38.94 157.848,20.9 162.208,6.34C162.258,6.18 162.478,6.15 162.568,6.29C167.498,14.1 171.548,21.4 174.708,28.2C181.008,41.74 187.148,53.28 193.928,67.55C198.638,77.46 201.468,83.46 202.428,85.53C206.108,93.45 208.818,102.329 210.558,112.159C212.958,125.749 211.718,138.679 206.848,150.949C201.448,164.559 194.488,174.979 182.098,182.779C181.858,182.929 181.598,182.639 181.758,182.409C187.878,173.879 190.558,164.309 189.788,153.679C189.108,144.239 184.968,135.409 179.398,125.859C173.128,115.109 168.478,106.739 165.448,100.739C164.658,99.19 163.958,98.27 163.348,97.98C163.038,97.83 162.698,97.76 162.348,97.78C161.538,97.82 160.848,98.49 160.298,99.8C157.568,106.209 152.568,116.509 145.298,130.699C141.388,138.309 139.258,146.739 138.908,155.989C138.528,165.759 141.408,174.319 147.548,181.669Z" style="fill:rgb(224,173,90);fill-rule:nonzero;"/>
            <path d="M172.898,187.219C172.678,187.359 172.398,187.179 172.428,186.929C173.108,180.799 171.978,172.809 167.758,167.959C166.788,166.849 164.688,166.139 163.258,166.609C160.818,167.409 160.468,170.019 160.998,172.419C162.048,177.169 162.518,182.939 161.748,187.719C161.678,188.159 161.208,188.419 160.788,188.249C158.498,187.269 156.928,185.729 154.618,183.599C147.478,177.019 143.488,169.129 142.658,159.919C142.168,154.549 143.168,148.229 145.648,140.959C148.098,133.769 150.848,127.389 153.878,121.839C157.618,114.989 161.258,108.889 161.938,105.209C162.028,104.729 162.138,104.389 162.268,104.199C162.488,103.889 162.958,103.929 163.118,104.269C165.308,108.979 168.048,114.099 170.798,118.449C176.888,128.099 181.808,137.699 184.908,148.009C187.598,156.939 186.318,167.179 181.888,175.099C179.678,179.059 175.528,183.679 173.398,186.859C173.368,186.889 173.208,187.009 172.898,187.219Z" style="fill:rgb(224,173,90);fill-rule:nonzero;"/>
            <path d="M163.588,170.099C164.018,169.399 165.008,169.339 165.518,169.969C171.558,177.379 169.598,187.659 167.978,196.719C166.848,203.109 166.288,207.029 166.308,208.499C166.378,213.229 166.648,217.219 167.098,220.479C167.248,221.539 166.108,222.299 165.178,221.769L162.638,220.299C161.688,219.749 161.088,218.739 161.068,217.639C160.978,212.759 161.068,209.659 161.338,208.339C162.478,202.809 163.398,197.549 164.088,192.569C164.968,186.179 164.788,178.979 163.538,170.949C163.468,170.539 163.488,170.249 163.588,170.099Z" style="fill:rgb(105,113,112);fill-rule:nonzero;"/>
            <path d="M158.078,211.359L158.078,218.839C158.078,219.089 157.828,219.269 157.588,219.199C151.478,217.229 145.298,216.629 139.068,217.399C131.738,218.309 127.938,218.779 127.668,218.809C119.158,219.669 113.868,216.379 107.578,211.389C107.498,211.329 107.398,211.289 107.298,211.289L107.048,211.289C106.388,211.379 106.088,212.169 106.528,212.669C112.318,219.309 119.478,222.299 127.998,221.649C131.898,221.359 135.228,221.119 137.988,220.949C151.828,220.089 162.128,224.499 175.678,228.989C186.018,232.419 196.358,232.979 206.698,230.689C211.638,229.599 220.038,225.819 221.748,220.669C221.888,220.239 221.388,219.889 221.028,220.169C215.738,224.369 209.488,227.079 202.278,228.289C192.348,229.959 179.828,226.729 170.328,223.289C169.798,223.099 169.448,222.589 169.448,222.029L169.448,213.479C169.448,213.149 169.748,212.899 170.078,212.959C184.498,215.829 199.208,215.269 212.568,208.799C224.398,203.079 239.018,196.099 249.158,209.149C252.088,212.919 254.058,216.509 255.078,219.909C260.068,236.629 261.138,253.329 258.288,270.009C255.948,283.739 254.438,293.319 253.758,298.749C253.168,303.439 252.958,307.799 253.118,311.819C253.368,318.429 253.708,322.779 254.118,324.879C255.668,332.759 257.428,338.729 259.407,342.789C263.398,350.939 266.808,357.369 268.348,365.839C270.128,375.599 269.588,387.589 260.217,392.619C252.098,396.979 243.138,390.539 239.478,383.249C234.278,372.889 234.108,360.319 235.228,348.699C235.938,341.389 239.208,328.849 239.438,320.089C239.738,309.159 238.038,298.549 232.498,289.409C228.768,283.259 223.438,280.339 216.508,280.649C206.048,281.129 200.468,293.209 199.938,302.499C199.718,306.259 199.998,310.159 200.788,314.199C202.018,320.509 203.128,326.549 204.138,332.329C205.418,339.599 204.188,349.139 199.088,354.509C193.678,360.219 184.998,357.819 180.568,352.119C177.798,348.569 176.398,344.159 176.368,338.899C176.308,327.919 180.058,317.509 180.658,306.639C180.988,300.659 180.408,294.229 178.908,287.339C176.358,275.589 166.348,262.049 152.958,265.139C149.078,266.039 145.798,268.609 142.268,270.469C136.808,273.339 130.948,270.219 127.598,265.709C124.788,261.929 123.178,255.499 120.498,252.029C114.128,243.789 101.218,244.489 95.577,253.329C89.447,262.959 89.907,275.189 91.337,285.849C92.547,294.889 93.737,304.459 94.897,314.569C96.087,324.979 95.747,335.119 93.857,344.999C93.347,347.649 92.177,350.499 90.337,353.549C85.677,361.259 76.177,363.129 70.187,355.899C63.487,347.809 65.067,334.579 68.897,325.559C75.567,309.809 81.587,291.719 74.747,274.919C72.897,270.369 71.457,266.719 70.447,263.979C66.797,254.109 66.607,243.909 69.887,233.379C74.117,219.839 80.287,201.249 97.697,200.649C102.828,200.469 107.058,200.879 110.388,201.879C126.328,206.679 144.218,208.869 157.438,210.629C157.808,210.679 158.078,210.989 158.078,211.359Z" style="fill:rgb(191,192,185);fill-rule:nonzero;"/>
            <path d="M91.917,357.979C96.747,351.049 99.287,343.109 99.517,334.159C99.807,322.869 98.967,310.919 96.997,298.329C94.947,285.299 93.417,274.709 95.047,264.819C96.107,258.329 100.178,251.159 107.118,250.079C115.208,248.809 118.808,256.139 121.938,263.079C125.368,270.689 131.388,277.189 140.268,275.469C143.128,274.919 146.218,273.079 149.498,270.979C158.118,265.449 166.848,270.839 171.328,278.919C178.608,292.029 177.708,308.529 174.058,323.039C170.818,335.899 170.408,351.719 183.178,359.659C190.888,364.449 200.278,361.809 204.568,353.919C208.558,346.589 209.658,338.589 207.878,329.939C204.878,315.329 202.268,307.309 205.178,295.919C207.088,288.389 214.338,281.519 222.418,285.539C233.978,291.299 235.848,308.749 235.208,320.709C234.918,326.159 233.768,334.489 231.758,345.689C229.058,360.779 230.038,380.849 241.338,392.559C241.618,392.849 241.748,393.259 241.688,393.659C241.258,396.339 240.938,399.109 240.718,401.959C238.748,426.829 239.348,453.199 242.498,481.089C244.828,501.759 250.158,523.189 254.048,544.169C256.568,557.719 254.558,572.429 243.888,582.379C235.258,590.429 224.788,595.809 212.458,598.529C194.688,602.439 176.868,603.299 158.998,601.109C148.698,599.849 138.608,598.199 128.738,596.169C119.058,594.179 109.788,590.879 100.928,586.269C90.827,581.019 83.037,573.979 82.867,561.739C82.797,556.999 83.137,552.869 84.057,548.089C90.957,512.139 95.327,476.589 97.157,441.449C97.567,433.639 97.537,424.029 97.067,412.619C96.357,395.309 94.527,377.599 91.577,359.489C91.487,358.959 91.607,358.419 91.917,357.979Z" style="fill:rgb(191,192,185);fill-rule:nonzero;"/>
            <path d="M78.857,561.579C78.667,564.979 78.817,568.519 80.287,571.709C85.127,582.229 95.657,590.099 106.408,594.039C117.228,597.999 127.698,600.909 137.808,602.779C142.238,603.599 149.698,604.579 160.188,605.719C171.898,606.989 183.848,607.009 196.048,605.779C205.308,604.839 214.128,603.609 222.428,600.389C229.538,597.629 235.008,595.029 238.858,592.579C249.218,585.999 257.157,575.299 258.548,562.779C258.568,562.649 258.668,562.559 258.798,562.559C269.428,562.849 280.268,563.799 291.318,565.409C295.408,566.009 299.378,567.199 303.218,568.989C310.388,572.339 317.558,578.479 306.848,584.559C301.358,587.669 298.488,589.309 298.258,589.459C294.538,591.939 292.418,596.169 296.658,599.559C300.548,602.689 305.988,603.619 311.258,604.849C315.548,605.859 319.488,607.499 323.068,609.789C328.968,613.549 326.758,620.139 321.428,623.479C315.798,627.009 310.588,629.439 305.798,630.769C301.728,631.899 296.548,632.789 290.238,633.439C283.688,634.109 272.858,634.979 257.747,636.029C251.478,636.469 244.838,637.669 238.438,639.769C229.808,642.609 219.278,645.369 206.868,648.059C197.738,650.039 189.898,651.219 183.328,651.589C171.298,652.279 156.438,652.179 144.078,648.819C133.238,645.869 126.378,643.829 123.488,642.689C112.498,638.359 105.558,635.059 95.507,633.689C85.657,632.349 73.697,631.869 60.797,632.039C50.157,632.179 40.287,631.609 31.177,630.319C22.387,629.079 14.677,627.119 7.937,621.369C1.267,615.679 4.297,608.799 10.677,604.879C10.697,604.869 13.217,603.469 18.237,600.699C20.317,599.549 21.707,597.959 22.407,595.939C22.517,595.619 22.547,595.289 22.507,594.959C22.147,591.889 20.557,589.649 17.727,588.239C14.137,586.449 11.457,584.649 9.677,582.839C3.877,576.959 19.587,571.189 23.207,570.159C28.707,568.589 34.437,567.669 40.317,567.179C53.087,566.119 65.697,564.049 78.127,560.969C78.507,560.879 78.877,561.179 78.857,561.579Z" style="fill:rgb(105,113,112);fill-rule:nonzero;"/>
        </g>
    </g>
</svg>
