<?xml version="1.0" encoding="UTF-8" standalone="no"?>
<!DOCTYPE svg PUBLIC "-//W3C//DTD SVG 1.1//EN" "http://www.w3.org/Graphics/SVG/1.1/DTD/svg11.dtd">
<svg width="100%" height="100%" viewBox="0 0 2003 1504" version="1.1" xmlns="http://www.w3.org/2000/svg" xmlns:xlink="http://www.w3.org/1999/xlink" xml:space="preserve" xmlns:serif="http://www.serif.com/" style="fill-rule:evenodd;clip-rule:evenodd;stroke-linejoin:round;stroke-miterlimit:2;">
    <g transform="matrix(0.64,0,0,0.64,0,0)">
        <g transform="matrix(4.16667,0,0,4.16667,0,0)">
            <path d="M168.31,460.822C168.46,461.182 168.92,461.272 169.19,460.992C178.31,451.552 183.89,441.872 190.79,429.862C195.14,422.292 197.48,415.532 199.85,408.232C200.16,407.272 199.95,406.222 199.3,405.452C194.96,400.332 191.88,393.972 188.64,387.342C188.37,386.782 187.89,386.362 187.3,386.162C175.93,382.292 164.35,380.482 152.57,380.752C137.37,381.102 122.45,383.512 107.82,387.982C106.83,388.282 106.29,389.342 106.62,390.312C109.8,399.872 115.34,407.622 123.23,413.562C124.07,414.192 130.46,418.872 142.41,427.602C154.2,436.212 162.83,447.282 168.31,460.822ZM185.23,378.992L181.37,363.872C181.31,363.622 181.13,363.422 180.9,363.332C169.56,358.582 157.5,354.322 144.71,350.572C137.9,348.582 130.94,347.182 123.82,346.372C123.03,346.282 122.24,346.582 121.71,347.172C113.76,355.932 108.53,365.972 106.02,377.292C106.01,377.342 106,377.382 106,377.432L105.76,382.442C105.74,382.992 106.28,383.382 106.79,383.182C117.78,378.942 128.869,376.482 140.06,375.792C155.58,374.842 170.63,375.912 185.21,379.012C185.22,379.012 185.23,379.002 185.23,378.992ZM140.07,534.742C147.28,530.842 153.46,525.412 158.62,518.442C165.11,509.672 170.56,500.402 174.96,490.632C175.63,498.802 175.33,507.012 174.08,515.252C173.98,515.882 174.64,516.353 175.21,516.062C175.38,515.973 175.67,515.663 176.06,515.152C179.83,510.232 182.84,505.822 185.08,501.922C192.35,489.292 197.47,481.172 201.74,469.832C202.57,467.612 204.49,461.472 207.49,451.402C210.51,441.282 211.77,433.142 213.19,422.642C213.3,421.832 213.02,421.022 212.45,420.442L204.93,412.922C204.68,412.672 204.25,412.782 204.16,413.122C203.47,415.752 202.65,418.062 201.71,420.052C196.8,430.492 194.82,435.732 189.83,442.912C186.3,447.992 181.87,454.072 176.54,461.142C174.94,463.262 173.28,465.192 171.56,466.932C171.18,467.322 171.04,467.892 171.21,468.412C173.21,474.702 174.46,481.122 174.95,487.652C174.96,487.822 174.9,487.992 174.77,488.102C174.55,488.302 174.35,488.352 174.17,488.252C171.59,485.912 170.07,488.262 168.79,490.382C168.7,490.532 166.86,494.022 163.27,500.832C158.47,509.932 152.37,517.682 145.09,524.752C144.76,524.852 144.54,524.842 144.42,524.723C144.18,524.483 144.13,524.202 144.26,523.882C145.88,519.992 147.03,515.882 147.7,511.532C148.85,504.072 149.6,496.932 149.95,490.112C149.98,489.552 149.35,489.192 148.88,489.512C148.08,490.062 147.21,490.472 146.26,490.752C143.3,491.622 141.5,488.952 143.58,486.562C144.67,485.312 146.19,484.042 148.16,482.742C148.69,482.392 149,481.792 148.96,481.152C147.85,462.232 139.23,447.892 123.09,438.142C114.29,432.822 103.76,427.992 94.85,421.142C73.36,404.632 71.22,377.022 83.38,354.112C89.91,353.542 97.63,353.692 106.54,354.562C107.55,354.662 108.5,354.062 108.85,353.112L109.06,352.552C109.54,351.242 108.74,349.822 107.37,349.552C100.6,348.242 94.5,347.912 89.06,348.562C87.77,348.712 87.2,348.442 87.33,347.752C87.62,346.322 88.19,345.222 89.04,344.452C89.53,344.012 89.24,343.192 88.58,343.162C87.64,343.122 81.86,343.162 71.24,343.292C64.63,343.372 58.88,343.782 54,344.522C47.49,345.512 38.73,347.192 27.72,349.582C16.34,352.052 1.65,360.792 7.71,374.852C12.01,384.822 20.01,390.432 29.31,396.522C38.94,402.832 49.57,412.162 52.94,423.752C54.1,427.722 54.39,433.542 53.81,441.202C53.45,445.932 52.84,451.762 51.99,458.712C50.94,467.282 52.42,475.802 56.43,484.272C59.8,491.392 69.04,495.932 76.42,498.352C92.17,503.522 107.38,511.112 111.41,528.832C113.2,536.712 110.57,556.872 121.87,557.352C125.12,557.492 128.28,556.982 131.42,555.482C132.48,554.982 133.33,554.112 133.81,553.042C136.3,547.542 138.49,541.742 140.38,535.652C140.44,535.442 140.34,535.142 140.07,534.742ZM535.99,223.532C535.48,222.972 534.57,223.122 534.25,223.812C531.59,229.652 528.94,235.482 526.29,241.302C522.52,249.592 520.18,258.802 519.28,268.922C518.56,276.992 519.789,284.712 522.979,292.092C523.21,292.612 523.95,292.612 524.169,292.092C528.88,280.892 532.15,269.472 534,257.832C535.16,250.502 535.16,244.352 535.56,235.672C535.59,235.182 535.66,234.702 535.77,234.232C536.46,231.442 536.67,228.422 536.4,225.192C536.33,224.302 536.2,223.752 535.99,223.532ZM258.78,207.102C256.03,208.522 253.12,210.452 250.05,212.892C244.93,216.962 238.82,221.852 231.71,227.552C222.69,234.792 214.65,243.262 207.59,252.952C203.04,259.202 199.29,264.532 196.45,271.292C192.16,281.482 189.14,291.302 187.37,300.752C186.26,306.692 185.54,314.172 185.21,323.182C184.86,332.732 184.8,340.242 185.02,345.732C185.43,355.882 187.61,366.432 191.57,377.372C194.52,385.522 197.83,392.962 202.76,399.642C203.02,399.992 203.54,399.992 203.8,399.642C210.05,391.122 215.57,382.982 220.36,375.212C227.06,364.362 231.5,357.032 233.67,353.232C239.44,343.142 244.82,332.462 249.83,321.202C258.709,301.182 262.29,282.692 260.269,261.922C259.76,256.632 258.989,250.242 257.97,242.762C256.359,230.962 256.7,219.132 259.01,207.272C259.03,207.142 258.9,207.042 258.78,207.102ZM546.79,201.072L539.33,215.552C538.85,216.482 538.72,217.572 538.98,218.592C540.33,223.922 540.04,228.762 540.82,234.172C541.27,237.362 541.22,241.542 540.65,246.732C538.66,264.872 535.15,282.412 526.75,298.862C526.34,299.662 526.31,300.612 526.68,301.432C529.24,307.122 531.86,312.962 534.53,318.932C537.03,324.502 538.56,330.302 539.11,336.332C539.14,336.672 539.58,336.782 539.77,336.502C544.43,329.892 548.42,323.102 550.94,315.282C555.12,302.322 557.63,291.612 558.47,283.152C559.9,268.742 559.77,254.182 558.08,239.482C557.13,231.232 555.93,224.672 554.48,219.822C552.43,212.962 550.08,206.712 547.43,201.082C547.3,200.812 546.93,200.812 546.79,201.072ZM512.14,320.782C510.57,322.192 508.79,324.232 506.81,326.902C503.95,330.772 499.72,335.212 494.13,340.202C490.14,343.772 484.24,348.122 476.44,353.252C469.47,357.842 462.48,362.112 455.49,366.082C454.47,366.662 453.2,366.492 452.37,365.662L451.89,365.182C450.82,364.112 451.06,362.322 452.37,361.572C464.67,354.532 474.63,348.202 482.26,342.572C487.69,338.562 493.05,333.922 498.32,328.652C501.85,325.122 505.01,321.272 507.78,317.112C508.74,315.662 509.33,314.672 509.54,314.142C509.66,313.832 509.69,313.502 509.61,313.182C509.54,312.892 508.37,309.302 506.11,302.412C501,286.862 499.78,271.162 502.43,255.332C504.87,240.832 511.4,225.352 518.64,212.412C524.84,201.332 529.51,190.982 532.65,181.352C532.75,181.042 532.73,180.692 532.59,180.392C532.06,179.262 531.09,178.022 529.69,176.672C525.5,172.622 519.53,166.962 514.12,163.272C506.49,158.072 501.34,154.692 498.69,153.122C489.92,147.952 479.04,143.132 468.14,139.882C459.49,137.312 455.57,136.132 450.56,135.162C449.94,135.042 449.31,135.242 448.87,135.702C440,145.132 434.74,156.962 431.23,169.162C426.15,186.852 427.15,205.482 433,223.532C438.67,241.022 441.61,249.592 444.43,264.632C448.39,285.752 446.61,306.012 439.09,325.412C437.41,329.752 435.47,335.372 433.94,338.252C429.34,346.872 423.64,357.942 416.85,371.452C410.92,383.242 407.08,395.812 405.33,409.162C404.76,413.542 404.54,418.572 404.68,424.252C404.69,424.712 405.16,425.032 405.59,424.862C406.96,424.352 408.6,423.582 410.53,422.572C425.68,414.612 439.29,407.812 451.35,402.162C458.97,398.602 473.41,390.962 494.68,379.232C499.09,376.792 503.27,373.982 507.22,370.812C509.01,369.362 510.39,367.662 511.35,365.712C515.93,356.392 518.62,347.162 516.81,336.682C515.9,331.432 514.58,326.192 512.849,320.982C512.75,320.682 512.38,320.572 512.14,320.782ZM393.73,154.672C397.91,153.062 404.54,151.742 413.62,150.722C414.89,150.582 415.79,149.432 415.63,148.162L415.62,148.082C415.45,146.762 414.34,145.772 413.01,145.762C407.14,145.712 401.62,146.432 396.47,147.922L403.33,134.482C403.51,134.122 403.22,133.712 402.83,133.762C395.48,134.752 388.36,136.522 381.48,139.072C371.14,142.902 357.03,148.412 345.34,154.612C341.65,156.562 335.19,159.702 325.96,164.032C320.43,166.622 313.01,171.732 307.4,174.802C305.38,175.902 301.91,177.822 296.99,180.572C295.18,181.582 293.81,182.792 292.89,184.192C283.4,198.542 278.74,214.232 278.93,231.262C278.98,236.252 279.79,243.102 281.34,251.792C281.43,252.312 282.61,259.112 284.88,272.182C288.7,294.192 286.3,315.402 277.69,335.812C271.18,351.232 262.34,366.632 251.17,382.022C245.32,390.072 239.5,397.822 233.7,405.292C233.17,405.982 232.41,407.112 231.43,408.692C231.19,409.082 231.37,409.602 231.8,409.752C242.1,413.502 252.86,415.212 264.09,414.902C267.92,414.792 271.82,414.772 275.77,414.842C277.18,414.872 278.31,416.032 278.29,417.442L278.29,417.612C278.27,419.082 277.15,420.312 275.68,420.452C272.08,420.802 268.05,420.852 263.58,420.602C251.03,419.902 239.18,417.872 228.05,414.522C227.62,414.392 227.15,414.532 226.87,414.892L223.11,419.752C222.86,420.082 222.89,420.552 223.2,420.832C227.49,424.742 232.41,428.152 237.94,431.062C253.98,439.502 263.87,445.102 277.34,448.892C283.95,450.752 291.61,452.442 300.3,453.952C318,457.042 337.33,456.232 354.25,449.772C360.47,447.402 366.67,444.712 372.85,441.692C373.32,441.462 373.6,440.962 373.54,440.442C372.21,428.312 372.99,417.442 376.71,405.512C378.93,398.402 380.42,393.902 381.17,392.002C388,374.762 400.98,348.162 408.37,327.962C410.92,320.972 412.94,313.832 414.43,306.532C417.93,289.372 416.38,272.662 409.79,256.392C405.34,245.422 401.57,236.542 398.5,229.762C389.62,210.162 386.91,189.822 390.36,168.752C391.06,164.412 392.53,159.362 393.73,154.672ZM558.94,211.442C558.84,211.422 558.76,211.512 558.78,211.612L562.3,225.372C562.39,225.732 562.67,226.012 563.02,226.112C570.06,228.072 576.4,230.272 584.16,232.002C586.38,232.502 589.19,233.032 592.58,233.582C601.77,235.092 611.11,236.542 620.58,237.942C628.4,239.102 636.34,239.532 644.39,239.222C644.85,239.202 645.27,238.982 645.56,238.622C652.98,229.232 658.66,217.402 662.75,206.312C665.52,198.762 666.46,190.612 665.56,181.862C664.43,170.982 659.93,161.852 652.05,154.482C647.74,150.452 642.72,146.072 636.97,141.362C630.49,136.052 625.66,131.502 622.47,127.712C616.28,120.352 611.35,112.482 607.68,104.112C607.51,103.732 607.03,103.612 606.7,103.862C603.31,106.422 600.26,109.092 597.54,111.872C589.43,120.152 580.74,129.342 573.84,138.892C566.39,149.202 562.32,157.332 555.9,170.472C553.85,174.672 551.62,181.662 549.19,191.432C549.09,191.832 549.13,192.262 549.32,192.632L555.26,204.472C555.44,204.832 555.78,205.082 556.18,205.162C589.79,211.192 622.02,206.872 652.87,192.192C656.51,190.462 658.93,194.762 656.03,196.372C648.14,200.742 639.53,204.212 630.22,206.772C615.77,210.742 600.56,213.002 584.59,213.542C575.84,213.842 567.29,213.142 558.94,211.442ZM684.34,221.112C682.57,221.022 681.33,221.152 680.64,221.482C679.25,222.152 679.06,223.172 680.09,224.522C680.52,225.092 681.14,225.692 681.93,226.302L676.82,237.042C676.43,237.872 677.06,238.822 677.98,238.772C682.89,238.502 688.18,238.192 693.85,237.862C701.31,237.432 708.79,235.972 716.29,233.482C720.38,232.122 729.08,229.072 733.67,225.982C747.35,216.772 747.72,200.712 735.3,190.172C730.23,185.882 723.63,182.752 718.89,178.942C709.38,171.292 704.98,160.432 705.15,148.252C705.21,143.792 705.35,140.852 705.58,139.422C707.45,127.572 707.76,116.692 706.49,106.802C705.72,100.712 703.28,95.473 699.19,91.093C697.16,88.923 693.76,86.793 688.99,84.713C682.84,82.033 678.57,80.163 676.19,79.103C670.64,76.643 667.43,75.003 666.55,74.193C661.38,69.403 657.81,63.973 655.84,57.883C653.8,51.573 652.5,44.703 651.93,37.253C651.91,36.913 651.45,36.803 651.28,37.103C640.2,56.193 630.15,77.543 634.83,99.913C636.71,108.912 642.1,116.782 648.18,123.732C650.21,126.042 654.16,129.472 660.05,134.002C668.12,140.222 677.69,148.442 683.02,156.242C692.23,169.702 693.71,188.692 690.19,204.222C689.34,207.992 687.39,213.622 684.34,221.112ZM606.74,53.123C607.79,51.863 609,50.713 610.35,49.683C615.8,45.523 622.27,41.173 629.77,36.643C631,35.893 631.56,34.873 631.44,33.583C631.33,32.423 630.55,31.463 629.5,31.193C626.07,30.313 615.11,38.863 611.56,41.513C615.56,30.783 620.31,20.933 625.81,11.943C626.01,11.623 625.64,11.263 625.32,11.463C613.07,19.393 603.38,29.333 592.87,40.333C588,45.433 583.54,50.693 579.49,56.103C571.61,66.613 567.48,72.143 567.1,72.683C565.04,75.613 560.28,83.653 552.83,96.783C547.39,106.382 542.42,118.212 539.97,127.052C536.88,138.182 535.08,145.132 534.55,147.912C533.23,154.842 532.51,162.262 532.4,170.162C532.39,170.802 532.64,171.422 533.08,171.882C537.1,176.092 541.73,180.442 544.15,184.962C544.37,185.372 544.97,185.302 545.1,184.862C549.27,170.132 555.51,156.542 563.81,144.112C568.84,136.582 573.69,129.942 578.36,124.192C582.2,119.452 585.35,115.942 587.82,113.652C593.23,108.632 598.98,103.572 605.05,98.483C605.45,98.153 605.62,97.623 605.49,97.123C601.8,82.733 602.22,68.073 606.74,53.123ZM564.33,232.912C564.11,232.842 563.9,233.032 563.93,233.262C568.74,270.632 565.33,309.692 544.27,341.652C534.92,355.842 523.27,367.662 509.3,377.112C501.11,382.652 492.19,387.982 482.54,393.102C472.31,398.532 455.46,407.042 432,418.622C410.19,429.382 394.01,438.032 370.86,449.682C339.39,465.522 303.65,464.992 270.61,452.922C259.959,449.032 251.24,445.352 244.47,441.872C236.47,437.752 227.2,431.452 220.02,426.542C219.76,426.362 219.41,426.512 219.35,426.822C218.46,431.952 217.15,438.262 215.43,445.762C210.19,468.612 200.48,490.412 186.8,509.882C172.47,530.292 155.73,553.432 130.729,562.562C119.63,566.612 109.34,562.032 107.58,549.742C106.62,543.062 106.36,532.132 103.08,524.242C99.41,515.392 90.87,510.572 82.21,507.292C78.04,505.712 72.66,503.512 66.08,500.702C50.34,493.972 45.48,479.452 45.98,463.162C46.18,456.462 46.77,448.542 47.76,439.402C47.96,437.532 47.85,434.162 47.43,429.312C46.56,419.422 40.94,412.942 32.99,407.282C25.25,401.762 18.51,396.502 12.76,391.512C4.58,384.402 -1.099,376.422 0.18,365.232C1.09,357.212 7.24,351.572 14.14,348.432C22.8,344.482 31.92,341.802 41.51,340.372C56.08,338.192 71.5,336.832 86.02,336.982C107.5,337.212 128.55,340.052 149.18,345.502C160.64,348.532 169.22,352.012 179.25,356.372C179.66,356.552 180.12,356.222 180.07,355.772C179.21,348.262 178.31,339.202 178.53,331.612C178.88,319.232 180.11,307.302 182.22,295.812C184.91,281.172 189.61,270.062 196.7,258.282C200.36,252.212 203.35,247.782 205.66,245.002C213.81,235.192 223.26,226.052 234.01,217.602C250.54,204.612 269.11,191.532 289.74,178.382C302.89,169.992 315.38,162.772 327.21,156.702C341.3,149.482 354.36,143.332 366.41,138.262C374.72,134.762 383.9,131.772 393.95,129.292C399.37,127.952 404.33,127.092 408.83,126.712C434.52,124.542 459.06,128.482 482.45,138.522C492.92,143.012 502.57,148.082 511.38,153.722C516.26,156.842 522.09,161.722 526.11,164.772C526.27,164.892 526.5,164.792 526.52,164.592C527.71,149.032 530.94,133.852 536.21,119.042C539.32,110.282 544.09,99.993 550.51,88.183C554.62,80.633 559.46,74.113 564.16,67.003C566.65,63.253 568.56,60.483 569.89,58.693C584.1,39.603 600.26,22.863 618.35,8.453C620.67,6.603 624.27,4.553 629.16,2.293C636.79,-1.247 644.51,0.483 649.7,7.023C654.66,13.283 656.11,20.703 657.12,28.673C658.07,36.183 658.8,46.903 661.82,56.193C664.32,63.853 669.29,69.403 676.73,72.833C687.83,77.943 700.34,80.403 707.54,91.543C713.05,100.073 713.79,113.652 713.25,123.932C712.86,131.282 712.27,138.692 711.5,146.162C710.09,159.662 714.64,168.052 725.47,175.802C737.8,184.642 752.85,193.122 750.43,211.012C748.25,227.132 731.7,236.042 717.52,239.642C704.99,242.832 692.22,244.692 679.21,245.212C663.09,245.862 649.55,245.912 638.6,245.362C622.49,244.552 609.33,243.202 599.11,241.302C587.18,239.082 575.58,236.282 564.33,232.912Z" style="fill:rgb(180,48,48);fill-rule:nonzero;"/>
            <path d="M611.56,41.513C608.92,43.943 605.74,46.553 602.02,49.353C599.29,51.403 595.47,55.083 590.54,60.373C586.47,64.743 582.64,68.983 579.06,73.083C574.57,78.243 571.04,82.713 568.47,86.503C559.25,100.133 550.65,115.592 547.89,132.182C547.7,133.372 548.43,134.502 549.59,134.812L549.63,134.822C550.8,135.132 552.01,134.462 552.37,133.302C557.34,117.152 563.89,102.232 574.28,88.713C578.39,83.373 585.15,73.653 591.89,66.973C594.63,64.253 599.58,59.633 606.74,53.123C602.22,68.073 601.8,82.733 605.49,97.123C605.62,97.623 605.45,98.153 605.05,98.483C598.98,103.572 593.23,108.632 587.82,113.652C585.35,115.942 582.2,119.452 578.36,124.192C573.69,129.942 568.84,136.582 563.81,144.112C555.51,156.542 549.27,170.132 545.1,184.862C544.97,185.302 544.37,185.372 544.15,184.962C541.73,180.442 537.1,176.092 533.08,171.882C532.64,171.422 532.39,170.802 532.4,170.162C532.51,162.262 533.23,154.842 534.55,147.912C535.08,145.132 536.88,138.182 539.97,127.052C542.42,118.212 547.39,106.382 552.83,96.783C560.28,83.653 565.04,75.613 567.1,72.683C567.48,72.143 571.61,66.613 579.49,56.103C583.54,50.693 588,45.433 592.87,40.333C603.38,29.333 613.07,19.393 625.32,11.463C625.64,11.263 626.01,11.623 625.81,11.943C620.31,20.933 615.56,30.783 611.56,41.513Z" style="fill:rgb(229,180,71);fill-rule:nonzero;"/>
            <path d="M606.74,53.123C599.58,59.633 594.63,64.253 591.89,66.973C585.15,73.653 578.39,83.373 574.28,88.713C563.89,102.232 557.34,117.152 552.37,133.302C552.01,134.462 550.8,135.132 549.63,134.822L549.59,134.812C548.43,134.502 547.7,133.372 547.89,132.182C550.65,115.592 559.25,100.133 568.47,86.503C571.04,82.713 574.57,78.243 579.06,73.083C582.64,68.983 586.47,64.743 590.54,60.373C595.47,55.083 599.29,51.403 602.02,49.353C605.74,46.553 608.92,43.943 611.56,41.513C615.11,38.863 626.07,30.313 629.5,31.193C630.55,31.463 631.33,32.423 631.44,33.583C631.56,34.873 631,35.893 629.77,36.643C622.27,41.173 615.8,45.523 610.35,49.683C609,50.713 607.79,51.863 606.74,53.123Z" style="fill:white;fill-rule:nonzero;"/>
            <path d="M681.93,226.302C694.13,227.322 706.97,224.302 717.82,218.902C723.49,216.072 728.04,211.682 728.06,204.922C728.07,202.252 726.58,201.342 723.97,201.962C723.66,202.032 723.4,202.262 723.29,202.572L721.37,207.742C721.2,208.192 720.98,208.612 720.7,208.992C715.99,215.322 706.12,218.862 698.65,219.812C693.9,220.422 689.13,220.852 684.34,221.112C687.39,213.622 689.34,207.992 690.19,204.222C693.71,188.692 692.23,169.702 683.02,156.242C677.69,148.442 668.12,140.222 660.05,134.002C654.16,129.472 650.21,126.042 648.18,123.732C642.1,116.782 636.71,108.912 634.83,99.913C630.15,77.543 640.2,56.193 651.28,37.103C651.45,36.803 651.91,36.913 651.93,37.253C652.5,44.703 653.8,51.573 655.84,57.883C657.81,63.973 661.38,69.403 666.55,74.193C667.43,75.003 670.64,76.643 676.19,79.103C678.57,80.163 682.84,82.033 688.99,84.713C693.76,86.793 697.16,88.923 699.19,91.093C703.28,95.473 705.72,100.712 706.49,106.802C707.76,116.692 707.45,127.572 705.58,139.422C705.35,140.852 705.21,143.792 705.15,148.252C704.98,160.432 709.38,171.292 718.89,178.942C723.63,182.752 730.23,185.882 735.3,190.172C747.72,200.712 747.35,216.772 733.67,225.982C729.08,229.072 720.38,232.122 716.29,233.482C708.79,235.972 701.31,237.432 693.85,237.862C688.18,238.192 682.89,238.502 677.98,238.772C677.06,238.822 676.43,237.872 676.82,237.042L681.93,226.302Z" style="fill:rgb(229,180,71);fill-rule:nonzero;"/>
            <path d="M558.94,211.442C567.29,213.142 575.84,213.842 584.59,213.542C600.56,213.002 615.77,210.742 630.22,206.772C639.53,204.212 648.14,200.742 656.03,196.372C658.93,194.762 656.51,190.462 652.87,192.192C622.02,206.872 589.79,211.192 556.18,205.162C555.78,205.082 555.44,204.832 555.26,204.472L549.32,192.632C549.13,192.262 549.09,191.832 549.19,191.432C551.62,181.662 553.85,174.672 555.9,170.472C562.32,157.332 566.39,149.202 573.84,138.892C580.74,129.342 589.43,120.152 597.54,111.872C600.26,109.092 603.31,106.422 606.7,103.862C607.03,103.612 607.51,103.732 607.68,104.112C611.35,112.482 616.28,120.352 622.47,127.712C625.66,131.502 630.49,136.052 636.97,141.362C642.72,146.072 647.74,150.452 652.05,154.482C659.93,161.852 664.43,170.982 665.56,181.862C666.46,190.612 665.52,198.762 662.75,206.312C658.66,217.402 652.98,229.232 645.56,238.622C645.27,238.982 644.85,239.202 644.39,239.222C636.34,239.532 628.4,239.102 620.58,237.942C611.11,236.542 601.77,235.092 592.58,233.582C589.19,233.032 586.38,232.502 584.16,232.002C576.4,230.272 570.06,228.072 563.02,226.112C562.67,226.012 562.39,225.732 562.3,225.372L558.78,211.612C558.76,211.512 558.84,211.422 558.94,211.442Z" style="fill:rgb(229,180,71);fill-rule:nonzero;"/>
            <path d="M353.85,168.792C353.27,167.502 351.74,166.932 350.46,167.542C343.26,170.992 333.9,175.572 326.03,180.662C322.08,183.212 316.42,186.562 309.04,190.732C307.71,191.482 307.14,193.102 307.72,194.512L307.76,194.612C308.29,195.902 309.82,196.452 311.04,195.772C318.88,191.412 324.6,187.462 332.7,183.342C336.31,181.512 343,177.892 352.77,172.472C354.01,171.782 354.51,170.262 353.93,168.972L353.85,168.792ZM396.47,147.922C393.84,148.772 391.13,149.772 388.34,150.942C385.57,152.102 385.11,156.192 388.86,156.202C389.72,156.212 391.34,155.702 393.73,154.672C392.53,159.362 391.06,164.412 390.36,168.752C386.91,189.822 389.62,210.162 398.5,229.762C401.57,236.542 405.34,245.422 409.79,256.392C416.38,272.662 417.93,289.372 414.43,306.532C412.94,313.832 410.92,320.972 408.37,327.962C400.98,348.162 388,374.762 381.17,392.002C380.42,393.902 378.93,398.402 376.71,405.512C372.99,417.442 372.21,428.312 373.54,440.442C373.6,440.962 373.32,441.462 372.85,441.692C366.67,444.712 360.47,447.402 354.25,449.772C337.33,456.232 318,457.042 300.3,453.952C291.61,452.442 283.95,450.752 277.34,448.892C263.87,445.102 253.98,439.502 237.94,431.062C232.41,428.152 227.49,424.742 223.2,420.832C222.89,420.552 222.86,420.082 223.11,419.752L226.87,414.892C227.15,414.532 227.62,414.392 228.05,414.522C239.18,417.872 251.03,419.902 263.58,420.602C268.05,420.852 272.08,420.802 275.68,420.452C277.15,420.312 278.27,419.082 278.29,417.612L278.29,417.442C278.31,416.032 277.18,414.872 275.77,414.842C271.82,414.772 267.92,414.792 264.09,414.902C252.86,415.212 242.1,413.502 231.8,409.752C231.37,409.602 231.19,409.082 231.43,408.692C232.41,407.112 233.17,405.982 233.7,405.292C239.5,397.822 245.32,390.072 251.17,382.022C262.34,366.632 271.18,351.232 277.69,335.812C286.3,315.402 288.7,294.192 284.88,272.182C282.61,259.112 281.43,252.312 281.34,251.792C279.79,243.102 278.98,236.252 278.93,231.262C278.74,214.232 283.4,198.542 292.89,184.192C293.81,182.792 295.18,181.582 296.99,180.572C301.91,177.822 305.38,175.902 307.4,174.802C313.01,171.732 320.43,166.622 325.96,164.032C335.19,159.702 341.65,156.562 345.34,154.612C357.03,148.412 371.14,142.902 381.48,139.072C388.36,136.522 395.48,134.752 402.83,133.762C403.22,133.712 403.51,134.122 403.33,134.482L396.47,147.922Z" style="fill:rgb(229,180,71);fill-rule:nonzero;"/>
            <path d="M458.06,154.572C462.64,156.022 466.79,157.252 470.5,158.262C472.81,158.892 477.36,161.082 484.15,164.832C485.72,165.692 489.68,165.252 489.23,162.552C488.78,159.762 485.51,158.412 482.81,157.182C476.55,154.352 472.99,152.762 472.12,152.412C468.41,150.932 461.71,149.072 457.34,150.302C456.74,150.472 456.36,151.052 456.45,151.662C456.58,152.592 456.84,153.352 457.22,153.932C457.41,154.232 457.71,154.462 458.06,154.572ZM512.14,320.782C512.38,320.572 512.75,320.682 512.849,320.982C514.58,326.192 515.9,331.432 516.81,336.682C518.62,347.162 515.93,356.392 511.35,365.712C510.39,367.662 509.01,369.362 507.22,370.812C503.27,373.982 499.09,376.792 494.68,379.232C473.41,390.962 458.97,398.602 451.35,402.162C439.29,407.812 425.68,414.612 410.53,422.572C408.6,423.582 406.96,424.352 405.59,424.862C405.16,425.032 404.69,424.712 404.68,424.252C404.54,418.572 404.76,413.542 405.33,409.162C407.08,395.812 410.92,383.242 416.85,371.452C423.64,357.942 429.34,346.872 433.94,338.252C435.47,335.372 437.41,329.752 439.09,325.412C446.61,306.012 448.39,285.752 444.43,264.632C441.61,249.592 438.67,241.022 433,223.532C427.15,205.482 426.15,186.852 431.23,169.162C434.74,156.962 440,145.132 448.87,135.702C449.31,135.242 449.94,135.042 450.56,135.162C455.57,136.132 459.49,137.312 468.14,139.882C479.04,143.132 489.92,147.952 498.69,153.122C501.34,154.692 506.49,158.072 514.12,163.272C519.53,166.962 525.5,172.622 529.69,176.672C531.09,178.022 532.06,179.262 532.59,180.392C532.73,180.692 532.75,181.042 532.65,181.352C529.51,190.982 524.84,201.332 518.64,212.412C511.4,225.352 504.87,240.832 502.43,255.332C499.78,271.162 501,286.862 506.11,302.412C508.37,309.302 509.54,312.892 509.61,313.182C509.69,313.502 509.66,313.832 509.54,314.142C509.33,314.672 508.74,315.662 507.78,317.112C505.01,321.272 501.85,325.122 498.32,328.652C493.05,333.922 487.69,338.562 482.26,342.572C474.63,348.202 464.67,354.532 452.37,361.572C451.06,362.322 450.82,364.112 451.89,365.182L452.37,365.662C453.2,366.492 454.47,366.662 455.49,366.082C462.48,362.112 469.47,357.842 476.44,353.252C484.24,348.122 490.14,343.772 494.13,340.202C499.72,335.212 503.95,330.772 506.81,326.902C508.79,324.232 510.57,322.192 512.14,320.782Z" style="fill:rgb(229,180,71);fill-rule:nonzero;"/>
            <path d="M393.73,154.672C391.34,155.702 389.72,156.212 388.86,156.202C385.11,156.192 385.57,152.102 388.34,150.942C391.13,149.772 393.84,148.772 396.47,147.922C401.62,146.432 407.14,145.712 413.01,145.762C414.34,145.772 415.45,146.762 415.62,148.082L415.63,148.162C415.79,149.432 414.89,150.582 413.62,150.722C404.54,151.742 397.91,153.062 393.73,154.672Z" style="fill:white;fill-rule:nonzero;"/>
            <path d="M457.22,153.932C456.84,153.352 456.58,152.592 456.45,151.662C456.36,151.052 456.74,150.472 457.34,150.302C461.71,149.072 468.41,150.932 472.12,152.412C472.99,152.762 476.55,154.352 482.81,157.182C485.51,158.412 488.78,159.762 489.23,162.552C489.68,165.252 485.72,165.692 484.15,164.832C477.36,161.082 472.81,158.892 470.5,158.262C466.79,157.252 462.64,156.022 458.06,154.572C457.71,154.462 457.41,154.232 457.22,153.932Z" style="fill:white;fill-rule:nonzero;"/>
            <path d="M353.85,168.792L353.93,168.972C354.51,170.262 354.01,171.782 352.77,172.472C343,177.892 336.31,181.512 332.7,183.342C324.6,187.462 318.88,191.412 311.04,195.772C309.82,196.452 308.29,195.902 307.76,194.612L307.72,194.512C307.14,193.102 307.71,191.482 309.04,190.732C316.42,186.562 322.08,183.212 326.03,180.662C333.9,175.572 343.26,170.992 350.46,167.542C351.74,166.932 353.27,167.502 353.85,168.792Z" style="fill:white;fill-rule:nonzero;"/>
            <path d="M546.79,201.072C546.93,200.812 547.3,200.812 547.43,201.082C550.08,206.712 552.43,212.962 554.48,219.822C555.93,224.672 557.13,231.232 558.08,239.482C559.77,254.182 559.9,268.742 558.47,283.152C557.63,291.612 555.12,302.322 550.94,315.282C548.42,323.102 544.43,329.892 539.77,336.502C539.58,336.782 539.14,336.672 539.11,336.332C538.56,330.302 537.03,324.502 534.53,318.932C531.86,312.962 529.24,307.122 526.68,301.432C526.31,300.612 526.34,299.662 526.75,298.862C535.15,282.412 538.66,264.872 540.65,246.732C541.22,241.542 541.27,237.362 540.82,234.172C540.04,228.762 540.33,223.922 538.98,218.592C538.72,217.572 538.85,216.482 539.33,215.552L546.79,201.072Z" style="fill:rgb(229,180,71);fill-rule:nonzero;"/>
            <path d="M681.93,226.302C681.14,225.692 680.52,225.092 680.09,224.522C679.06,223.172 679.25,222.152 680.64,221.482C681.33,221.152 682.57,221.022 684.34,221.112C689.13,220.852 693.9,220.422 698.65,219.812C706.12,218.862 715.99,215.322 720.7,208.992C720.98,208.612 721.2,208.192 721.37,207.742L723.29,202.572C723.4,202.262 723.66,202.032 723.97,201.962C726.58,201.342 728.07,202.252 728.06,204.922C728.04,211.682 723.49,216.072 717.82,218.902C706.97,224.302 694.13,227.322 681.93,226.302Z" style="fill:white;fill-rule:nonzero;"/>
            <path d="M194.96,334.132C194.66,340.652 194.48,346.662 195.89,352.272C196.49,354.662 198.63,354.952 200.18,353.612C200.46,353.372 200.63,353.032 200.66,352.672C201.07,346.622 200.11,340.462 200.39,334.382C200.67,328.292 202.19,322.252 202.34,316.192C202.35,315.822 202.21,315.472 201.95,315.202C200.53,313.732 198.37,313.822 197.55,316.142C195.64,321.602 195.26,327.602 194.96,334.132ZM258.78,207.102C258.9,207.042 259.03,207.142 259.01,207.272C256.7,219.132 256.359,230.962 257.97,242.762C258.989,250.242 259.76,256.632 260.269,261.922C262.29,282.692 258.709,301.182 249.83,321.202C244.82,332.462 239.44,343.142 233.67,353.232C231.5,357.032 227.06,364.362 220.36,375.212C215.57,382.982 210.05,391.122 203.8,399.642C203.54,399.992 203.02,399.992 202.76,399.642C197.83,392.962 194.52,385.522 191.57,377.372C187.61,366.432 185.43,355.882 185.02,345.732C184.8,340.242 184.86,332.732 185.21,323.182C185.54,314.172 186.26,306.692 187.37,300.752C189.14,291.302 192.16,281.482 196.45,271.292C199.29,264.532 203.04,259.202 207.59,252.952C214.65,243.262 222.69,234.792 231.71,227.552C238.82,221.852 244.93,216.962 250.05,212.892C253.12,210.452 256.03,208.522 258.78,207.102Z" style="fill:rgb(229,180,71);fill-rule:nonzero;"/>
            <path d="M535.99,223.532C536.2,223.752 536.33,224.302 536.4,225.192C536.67,228.422 536.46,231.442 535.77,234.232C535.66,234.702 535.59,235.182 535.56,235.672C535.16,244.352 535.16,250.502 534,257.832C532.15,269.472 528.88,280.892 524.169,292.092C523.95,292.612 523.21,292.612 522.979,292.092C519.789,284.712 518.56,276.992 519.28,268.922C520.18,258.802 522.52,249.592 526.29,241.302C528.94,235.482 531.59,229.652 534.25,223.812C534.57,223.122 535.48,222.972 535.99,223.532Z" style="fill:rgb(229,180,71);fill-rule:nonzero;"/>
            <path d="M200.39,334.382C200.11,340.462 201.07,346.622 200.66,352.672C200.63,353.032 200.46,353.372 200.18,353.612C198.63,354.952 196.49,354.662 195.89,352.272C194.48,346.662 194.66,340.652 194.96,334.132C195.26,327.602 195.64,321.602 197.55,316.142C198.37,313.822 200.53,313.732 201.95,315.202C202.21,315.472 202.35,315.822 202.34,316.192C202.19,322.252 200.67,328.292 200.39,334.382Z" style="fill:white;fill-rule:nonzero;"/>
            <path d="M105.77,500.362C106.8,501.602 107.76,502.922 108.64,504.312C108.81,504.582 109.06,504.802 109.35,504.922C110.64,505.462 111.75,505.302 112.66,504.442C112.93,504.192 113.08,503.842 113.07,503.482C113,500.632 111.82,498.562 110.24,496.652C108.65,494.742 106.83,493.202 104.04,492.612C103.69,492.542 103.32,492.622 103.02,492.842C102.01,493.582 101.65,494.632 101.94,496.002C102.01,496.312 102.17,496.592 102.41,496.812C103.62,497.942 104.74,499.122 105.77,500.362ZM89.96,487.482C90.25,486.212 90.35,485.312 90.25,484.772C90.2,484.472 90.02,484.212 89.77,484.052C86.15,481.712 80.51,479.332 76.99,476.042C71.9,471.292 69.05,465.332 68.43,458.142C68.22,455.742 68.07,452.272 67.98,447.742C67.93,445.252 66.84,444.192 64.7,444.572C63.69,444.742 63.11,445.332 62.96,446.342C61.81,453.612 62.45,460.612 64.88,467.352C68.14,476.422 74.22,481.822 82.72,487.022C85.38,488.652 87.58,489.072 89.33,488.262C89.65,488.112 89.88,487.822 89.96,487.482ZM89.06,348.562C81.37,348.982 73.58,349.392 66.4,351.082C55.53,353.642 43.33,357.462 29.8,362.542C28.22,363.132 27.18,364.662 27.22,366.352L27.22,366.472C27.25,367.932 28.69,368.952 30.08,368.502C34.5,367.072 39.08,365.402 43.83,363.482C56.18,358.502 70.45,355.662 83.38,354.112C71.22,377.022 73.36,404.632 94.85,421.142C103.76,427.992 114.29,432.822 123.09,438.142C139.23,447.892 147.85,462.232 148.96,481.152C149,481.792 148.69,482.392 148.16,482.742C146.19,484.042 144.67,485.312 143.58,486.562C141.5,488.952 143.3,491.622 146.26,490.752C147.21,490.472 148.08,490.062 148.88,489.512C149.35,489.192 149.98,489.552 149.95,490.112C149.6,496.932 148.85,504.072 147.7,511.532C147.03,515.882 145.88,519.992 144.26,523.882C144.13,524.202 144.18,524.483 144.42,524.723C144.54,524.842 144.76,524.852 145.09,524.752C141.38,528.462 137.11,530.962 132.28,532.252C131.32,532.512 130.679,533.402 130.729,534.392C130.8,535.792 131.28,536.562 132.16,536.702C134.91,537.132 137.55,536.472 140.07,534.742C140.34,535.142 140.44,535.442 140.38,535.652C138.49,541.742 136.3,547.542 133.81,553.042C133.33,554.112 132.48,554.982 131.42,555.482C128.28,556.982 125.12,557.492 121.87,557.352C110.57,556.872 113.2,536.712 111.41,528.832C107.38,511.112 92.17,503.522 76.42,498.352C69.04,495.932 59.8,491.392 56.43,484.272C52.42,475.802 50.94,467.282 51.99,458.712C52.84,451.762 53.45,445.932 53.81,441.202C54.39,433.542 54.1,427.722 52.94,423.752C49.57,412.162 38.94,402.832 29.31,396.522C20.01,390.432 12.01,384.822 7.71,374.852C1.65,360.792 16.34,352.052 27.72,349.582C38.73,347.192 47.49,345.512 54,344.522C58.88,343.782 64.63,343.372 71.24,343.292C81.86,343.162 87.64,343.122 88.58,343.162C89.24,343.192 89.53,344.012 89.04,344.452C88.19,345.222 87.62,346.322 87.33,347.752C87.2,348.442 87.77,348.712 89.06,348.562Z" style="fill:rgb(229,180,71);fill-rule:nonzero;"/>
            <path d="M185.23,378.992C185.23,379.002 185.22,379.012 185.21,379.012C170.63,375.912 155.58,374.842 140.06,375.792C128.869,376.482 117.78,378.942 106.79,383.182C106.28,383.382 105.74,382.992 105.76,382.442L106,377.432C106,377.382 106.01,377.342 106.02,377.292C108.53,365.972 113.76,355.932 121.71,347.172C122.24,346.582 123.03,346.282 123.82,346.372C130.94,347.182 137.9,348.582 144.71,350.572C157.5,354.322 169.56,358.582 180.9,363.332C181.13,363.422 181.31,363.622 181.37,363.872L185.23,378.992Z" style="fill:rgb(229,180,71);fill-rule:nonzero;"/>
            <path d="M83.38,354.112C70.45,355.662 56.18,358.502 43.83,363.482C39.08,365.402 34.5,367.072 30.08,368.502C28.69,368.952 27.25,367.932 27.22,366.472L27.22,366.352C27.18,364.662 28.22,363.132 29.8,362.542C43.33,357.462 55.53,353.642 66.4,351.082C73.58,349.392 81.37,348.982 89.06,348.562C94.5,347.912 100.6,348.242 107.37,349.552C108.74,349.822 109.54,351.242 109.06,352.552L108.85,353.112C108.5,354.062 107.55,354.662 106.54,354.562C97.63,353.692 89.91,353.542 83.38,354.112Z" style="fill:white;fill-rule:nonzero;"/>
            <path d="M168.31,460.822C162.83,447.282 154.2,436.212 142.41,427.602C130.46,418.872 124.07,414.192 123.23,413.562C115.34,407.622 109.8,399.872 106.62,390.312C106.29,389.342 106.83,388.282 107.82,387.982C122.45,383.512 137.37,381.102 152.57,380.752C164.35,380.482 175.93,382.292 187.3,386.162C187.89,386.362 188.37,386.782 188.64,387.342C191.88,393.972 194.96,400.332 199.3,405.452C199.95,406.222 200.16,407.272 199.85,408.232C197.48,415.532 195.14,422.292 190.79,429.862C183.89,441.872 178.31,451.552 169.19,460.992C168.92,461.272 168.46,461.182 168.31,460.822Z" style="fill:rgb(229,180,71);fill-rule:nonzero;"/>
            <path d="M174.96,490.632C174.8,489.682 174.54,488.882 174.17,488.252C174.35,488.352 174.55,488.302 174.77,488.102C174.9,487.992 174.96,487.822 174.95,487.652C174.46,481.122 173.21,474.702 171.21,468.412C171.04,467.892 171.18,467.322 171.56,466.932C173.28,465.192 174.94,463.262 176.54,461.142C181.87,454.072 186.3,447.992 189.83,442.912C194.82,435.732 196.8,430.492 201.71,420.052C202.65,418.062 203.47,415.752 204.16,413.122C204.25,412.782 204.68,412.672 204.93,412.922L212.45,420.442C213.02,421.022 213.3,421.832 213.19,422.642C211.77,433.142 210.51,441.282 207.49,451.402C204.49,461.472 202.57,467.612 201.74,469.832C197.47,481.172 192.35,489.292 185.08,501.922C182.84,505.822 179.83,510.232 176.06,515.152C175.67,515.663 175.38,515.973 175.21,516.062C174.64,516.353 173.98,515.882 174.08,515.252C175.33,507.012 175.63,498.802 174.96,490.632Z" style="fill:rgb(229,180,71);fill-rule:nonzero;"/>
            <path d="M89.33,488.262C87.58,489.072 85.38,488.652 82.72,487.022C74.22,481.822 68.14,476.422 64.88,467.352C62.45,460.612 61.81,453.612 62.96,446.342C63.11,445.332 63.69,444.742 64.7,444.572C66.84,444.192 67.93,445.252 67.98,447.742C68.07,452.272 68.22,455.742 68.43,458.142C69.05,465.332 71.9,471.292 76.99,476.042C80.51,479.332 86.15,481.712 89.77,484.052C90.02,484.212 90.2,484.472 90.25,484.772C90.35,485.312 90.25,486.212 89.96,487.482C89.88,487.822 89.65,488.112 89.33,488.262Z" style="fill:white;fill-rule:nonzero;"/>
            <path d="M174.17,488.252C174.54,488.882 174.8,489.682 174.96,490.632C170.56,500.402 165.11,509.672 158.62,518.442C153.46,525.412 147.28,530.842 140.07,534.742C137.55,536.472 134.91,537.132 132.16,536.702C131.28,536.562 130.8,535.792 130.729,534.392C130.679,533.402 131.32,532.512 132.28,532.252C137.11,530.962 141.38,528.462 145.09,524.752C152.37,517.682 158.47,509.932 163.27,500.832C166.86,494.022 168.7,490.532 168.79,490.382C170.07,488.262 171.59,485.912 174.17,488.252Z" style="fill:white;fill-rule:nonzero;"/>
            <path d="M110.24,496.652C111.82,498.562 113,500.632 113.07,503.482C113.08,503.842 112.93,504.192 112.66,504.442C111.75,505.302 110.64,505.462 109.35,504.922C109.06,504.802 108.81,504.582 108.64,504.312C107.76,502.922 106.8,501.602 105.77,500.362C104.74,499.122 103.62,497.942 102.41,496.812C102.17,496.592 102.01,496.312 101.94,496.002C101.65,494.632 102.01,493.582 103.02,492.842C103.32,492.622 103.69,492.542 104.04,492.612C106.83,493.202 108.65,494.742 110.24,496.652Z" style="fill:white;fill-rule:nonzero;"/>
        </g>
    </g>
</svg>
