<?xml version="1.0" encoding="UTF-8" standalone="no"?>
<!DOCTYPE svg PUBLIC "-//W3C//DTD SVG 1.1//EN" "http://www.w3.org/Graphics/SVG/1.1/DTD/svg11.dtd">
<svg width="100%" height="100%" viewBox="0 0 1272 1507" version="1.1" xmlns="http://www.w3.org/2000/svg" xmlns:xlink="http://www.w3.org/1999/xlink" xml:space="preserve" xmlns:serif="http://www.serif.com/" style="fill-rule:evenodd;clip-rule:evenodd;stroke-linejoin:round;stroke-miterlimit:2;">
    <g transform="matrix(0.64,0,0,0.64,0,0)">
        <g transform="matrix(4.16667,0,0,4.16667,0,0)">
            <path d="M118.805,364.769C93.232,360.405 77.799,345.68 51.112,357.565C-19.129,388.849 -5.083,508.766 51.49,546.572C72.943,560.908 86.034,555.033 109.344,556.72C123.394,557.736 133.811,562.36 149.2,560.653C217.373,553.089 256.91,421.09 208.328,375.735C188.249,356.989 165.239,364.017 140.801,365.756C140.048,368.535 142.443,372.273 140.917,374.297C135.362,381.663 110.267,377.266 118.805,364.769ZM341.81,354.753C322.511,355.469 307.111,350.491 288.932,359.385C251.033,377.928 246.077,426.969 257.769,463.293C279.455,530.657 340.939,567.367 410.321,542.774C477.817,518.85 493.695,396.014 441.328,351.735C414.973,329.45 390.674,342.918 362.455,351.94C359.922,352.79 361.992,355.086 361.908,357.259C361.643,364.139 352.519,367.616 346.38,366.698C339.534,365.674 342.231,359.98 341.81,354.753ZM275.805,20.769C279.274,24.825 284.09,29.477 287.794,23.234C288.63,19.364 277.994,21.069 275.805,20.769ZM285.796,3.757C284.517,2.627 269.638,14.141 267.806,16.259C263.906,20.766 255.612,34.267 253.307,39.76C252.254,42.267 253.19,45.944 250.197,47.651C185.921,63.116 129.231,97.562 71.285,127.743C67.535,127.772 73.646,124.492 73.89,124.344C127.191,92.166 184.838,60.142 245.8,45.748C245.963,44.211 243.141,44.33 241.986,44.083C161.517,26.864 109.993,31.599 55.829,96.283C41.216,113.734 29.582,133.725 12.813,149.272C12.364,151.428 17.056,151.155 18.616,151.448C61.626,159.514 118.248,162.062 157.826,141.279C196.073,121.193 213.797,87.964 241.291,57.744C242.481,56.436 245.036,53.583 246.305,52.754C247.621,51.894 248.601,51.768 248.806,53.277C240.834,73.908 232.128,94.311 222.981,114.434C194.365,177.393 158.448,237.186 138.308,303.761C131.839,325.149 127.242,347.085 121.045,368.553C120.268,372.933 127.924,374.634 130.414,374.68C131.584,374.702 137.438,373.058 137.721,372.665C138.33,371.818 136.681,366.352 136.712,364.258C137.747,294.646 179.275,218.567 210.284,157.737C219.914,138.845 229.59,119.757 239.633,101.086C242.044,96.604 258.288,65.264 260.316,64.76C261.858,64.376 262.382,66.1 263.006,67.058C266.023,71.694 269.561,79.471 272.326,84.737C307.438,151.597 331.25,218.03 341.662,293.401C344.782,315.983 347.169,340.133 344.809,362.753C350.985,362.922 358.246,363.147 357.824,355.297C356.858,337.292 352.49,313.728 349.514,295.549C335.451,209.642 305.507,131.358 270.794,52.168C270.599,48.623 275.978,44.539 277.235,41.688C278.338,39.187 278.307,35.639 279.305,32.76C279.813,31.294 281.794,29.47 281.788,29.256C281.766,28.366 264.793,19.816 275.333,17.786C288.918,15.169 292.972,24.177 285.796,3.757ZM360.813,348.763C385.831,341.478 407.519,327.635 433.474,341.589C501.751,378.298 485.786,525.554 406.021,548.474C335.632,568.699 277.471,533.562 254.789,466.274C241.424,426.625 248.11,368.177 293.577,353.03C310.675,347.335 324.719,352.454 341.823,351.182C342.319,313.488 335.75,275.361 327.316,238.747C319.526,204.928 308.964,171.811 294.981,140.082C286.247,120.262 273.195,91.002 262.002,73.062C261.821,72.773 261.437,72.061 261.013,71.491C260.586,70.915 259.694,71.011 259.377,71.655C232.387,126.557 201.614,179.839 175.946,235.399C157.528,275.268 143.722,317.579 140.801,361.757C165.195,360.576 186.694,353.272 207.817,370.246C264.18,415.54 222.006,558.155 148.289,564.742C133.481,566.065 124.511,561.917 111.289,560.774C85.413,558.537 70.38,565.203 46.889,548.174C-11.191,506.07 -22.84,377.917 55.267,351.72C80.888,343.127 95.698,357.758 119.768,360.717C129.502,313.314 144.545,268.16 164.946,224.399C188.554,173.762 216.597,123.994 237.676,72.129C238.081,71.133 238.612,70.246 238.798,69.236C238.895,68.713 238.253,68.385 237.906,68.788C216.932,93.159 198.07,120.15 170.721,138.174C135.245,161.551 93.613,163.135 52.31,159.753C41.661,158.881 18.819,156.803 9.378,153.685C8.352,153.346 5.812,152.159 5.822,151.258C5.836,150.091 19.398,137.101 21.78,134.233C44.156,107.295 61.305,78.014 90.474,56.928C137.286,23.087 195.551,30.322 248.862,41.537C249.311,41.632 249.749,41.308 249.767,40.849C249.961,35.895 253.671,32.757 255.653,29.107C258.661,23.566 260.818,17.761 265.269,12.722C267.154,10.588 279.362,2.221 281.848,1.293C288.221,-1.085 290.525,6.279 291.849,11.215C292.861,14.987 291.66,20.953 290.256,24.71C288.928,28.263 283.77,31.065 282.557,34.01C281.607,36.317 282.099,38.689 281.327,40.78C279.665,45.28 274.267,49.882 274.972,54.006C300.49,111.65 325.253,170.132 340.514,231.55C350.079,270.046 355.567,309.456 360.813,348.763Z" style="fill:rgb(4,6,5);fill-rule:nonzero;"/>
            <path d="M144.789,546.039C143.153,546.001 142.764,548.358 144.353,548.745C146.49,549.266 149.464,548.845 151.201,548.646C154.031,548.323 167.58,543.954 167.785,541.258C167.968,538.854 165.134,540.747 164.494,540.932C157.914,542.839 151.927,546.205 144.789,546.039ZM188.236,391.518C186.861,391.939 185.646,392.313 185.033,393.478C181.167,400.827 190.277,408.466 193.345,414.718C195.487,419.082 197.421,425.376 197.841,430.222C198.408,436.769 195.669,457.121 198.358,460.698C205.243,469.855 211.5,447.919 212.34,443.793C215.1,430.25 214.822,415.614 207.605,403.458C203.77,396.999 196.602,388.958 188.236,391.518ZM156.592,380.166C158.237,379.462 157.297,376.988 155.602,377.562C143.258,381.74 130.936,382.619 117.632,379.227C114.426,378.41 111.432,376.977 108.36,375.75C106.431,374.979 105.159,377.828 107.054,378.733C107.622,379.004 108.153,379.247 108.595,379.468C120.528,385.426 134.934,386.218 147.84,383.293C148.418,383.161 152.698,381.831 156.592,380.166ZM118.675,364.746C118.736,364.757 118.764,364.828 118.729,364.88C110.416,377.292 135.379,381.641 140.917,374.297C142.432,372.288 140.084,368.591 140.784,365.819C140.794,365.782 140.828,365.754 140.867,365.751C165.28,364.005 188.267,357.006 208.328,375.735C256.91,421.09 217.373,553.089 149.2,560.653C133.811,562.36 123.394,557.736 109.344,556.72C86.034,555.033 72.943,560.908 51.49,546.572C-5.083,508.766 -19.129,388.849 51.112,357.565C77.754,345.7 93.179,360.355 118.675,364.746Z" style="fill:rgb(184,68,63);fill-rule:nonzero;"/>
            <path d="M446.424,445.817C443.222,446.342 442.69,454.955 445.342,455.748C451.032,457.448 451.185,445.038 446.424,445.817ZM415.086,367.038C406.764,375.379 421.352,383.35 425.831,388.233C429.2,391.905 432.796,398.801 434.566,403.497C436.321,408.152 441.946,441.034 451.65,425.103C457.626,415.292 451.642,392.686 445.974,383.089C441.489,375.496 423.674,358.431 415.086,367.038ZM382.8,358.763C382.155,358.127 369.321,366.286 366.793,367.246C358.15,370.525 348.65,371.607 339.428,370.635C333.237,369.982 327.723,366.673 322.227,365.826C320.745,365.598 319.066,366.061 319.812,367.246C333.958,378.412 356.526,376.155 371.847,368.3C373.247,367.583 384.693,360.629 382.8,358.763ZM341.81,354.753C342.231,359.98 339.534,365.674 346.38,366.698C352.519,367.616 361.643,364.139 361.908,357.259C361.992,355.086 359.922,352.79 362.455,351.94C390.674,342.918 414.973,329.45 441.328,351.735C493.695,396.014 477.817,518.85 410.321,542.774C340.939,567.367 279.455,530.657 257.769,463.293C246.077,426.969 251.033,377.928 288.932,359.385C307.111,350.491 322.511,355.469 341.81,354.753Z" style="fill:rgb(185,67,61);fill-rule:nonzero;"/>
            <path d="M285.796,3.757C292.972,24.177 288.918,15.169 275.333,17.786C264.793,19.816 281.766,28.366 281.788,29.256C281.794,29.47 279.813,31.294 279.305,32.76C278.307,35.639 278.338,39.187 277.235,41.688C275.978,44.539 270.599,48.623 270.794,52.168C305.507,131.358 335.451,209.642 349.514,295.549C352.49,313.728 356.858,337.292 357.824,355.297C358.246,363.147 350.985,362.922 344.809,362.753C347.169,340.133 344.782,315.983 341.662,293.401C331.25,218.03 307.438,151.597 272.326,84.737C269.561,79.471 266.023,71.694 263.006,67.058C262.382,66.1 261.858,64.376 260.316,64.76C258.288,65.264 242.044,96.604 239.633,101.086C229.59,119.757 219.914,138.845 210.284,157.737C179.275,218.567 137.747,294.646 136.712,364.258C136.681,366.352 138.33,371.818 137.721,372.665C137.438,373.058 131.584,374.702 130.414,374.68C127.924,374.634 119.885,373.039 121.045,368.553C127.242,347.085 131.839,325.149 138.308,303.761C158.448,237.186 194.365,177.393 222.981,114.434C232.128,94.311 240.834,73.908 248.806,53.277C248.601,51.768 247.621,51.894 246.305,52.754C245.036,53.583 242.481,56.436 241.291,57.744C213.797,87.964 196.073,121.193 157.826,141.279C118.248,162.062 61.626,159.514 18.616,151.448C17.056,151.155 12.364,151.428 12.813,149.272C29.582,133.725 41.216,113.734 55.829,96.283C109.993,31.599 161.517,26.864 241.986,44.083C243.141,44.33 245.963,44.211 245.8,45.748C184.838,60.142 127.191,92.166 73.89,124.344C73.646,124.492 67.535,127.772 71.285,127.743C129.231,97.562 185.921,63.116 250.197,47.651C253.19,45.944 252.254,42.267 253.307,39.76C255.612,34.267 263.906,20.766 267.806,16.259C269.638,14.141 284.517,2.627 285.796,3.757Z" style="fill:rgb(69,102,75);fill-rule:nonzero;"/>
            <path d="M275.805,20.769C277.994,21.069 288.63,19.364 287.794,23.234C284.09,29.477 279.274,24.825 275.805,20.769Z" style="fill:rgb(62,84,68);fill-rule:nonzero;"/>
            <path d="M203.681,458.632C205.164,457.693 209.247,441.982 209.686,439.139C211.214,429.25 210.815,419.452 206.983,410.08C204.85,404.862 196.089,391.645 189.448,393.865C182.608,396.153 195.461,410.875 196.986,414.077C201.966,424.536 200.957,432.525 200.764,443.217C200.684,447.669 200.849,452.144 200.833,456.597C200.829,457.871 201.901,458.961 203.165,458.798C203.363,458.772 203.539,458.722 203.681,458.632ZM188.236,390.975C196.602,388.416 203.77,396.999 207.605,403.458C214.822,415.614 215.1,430.25 212.34,443.793C211.5,447.919 205.243,469.855 198.358,460.698C195.669,457.121 198.408,436.769 197.841,430.222C197.421,425.376 195.487,419.082 193.345,414.718C190.277,408.466 181.167,400.827 185.033,393.478C185.646,392.313 186.861,391.396 188.236,390.975Z" style="fill:rgb(8,8,7);fill-rule:nonzero;"/>
            <path d="M156.996,377.076C158.599,376.502 159.562,378.814 158.018,379.531C153.818,381.482 148.49,383.145 147.84,383.293C134.934,386.218 120.528,385.426 108.595,379.468C107.205,378.774 104.937,377.854 103.4,376.56C102.237,375.58 103.306,373.74 104.728,374.28C109.321,376.024 113.781,378.309 118.597,379.466C132.032,382.695 144.483,381.56 156.996,377.076Z" style="fill:rgb(12,11,9);fill-rule:nonzero;"/>
            <path d="M143.025,548.215C141.959,547.549 142.559,545.909 143.813,545.995C151.386,546.513 157.617,542.925 164.494,540.932C165.134,540.747 167.968,538.854 167.785,541.258C167.58,543.954 154.031,548.323 151.201,548.646C149.06,548.891 145.041,549.474 143.025,548.215Z" style="fill:rgb(22,14,12);fill-rule:nonzero;"/>
            <path d="M448.726,424.676C450.55,423.226 450.59,418.252 450.693,417.153C451.68,406.608 447.312,389.74 440.805,381.258C437.488,376.934 424.045,364.702 418.397,368.831C410.81,374.377 424.867,382.156 427.796,385.267C431.37,389.062 434.892,395.374 436.828,400.235C438.838,405.278 441.766,423.244 445.506,424.576C446.279,424.852 448.166,425.063 448.726,424.676ZM415.086,367.038C423.674,358.431 441.489,375.496 445.974,383.089C451.642,392.686 457.626,415.292 451.65,425.103C441.946,441.034 436.321,408.152 434.566,403.497C432.796,398.801 429.2,391.905 425.831,388.233C421.352,383.35 406.764,375.379 415.086,367.038Z" style="fill:rgb(10,9,8);fill-rule:nonzero;"/>
            <path d="M382.8,358.763C384.693,360.629 373.247,367.583 371.847,368.3C356.526,376.155 333.958,378.412 319.812,367.246C318.619,365.917 320.745,365.598 322.227,365.826C327.723,366.673 333.237,369.982 339.428,370.635C348.65,371.607 358.15,370.525 366.793,367.246C369.321,366.286 382.155,358.127 382.8,358.763Z" style="fill:rgb(11,10,8);fill-rule:nonzero;"/>
            <path d="M436.254,508.827C434.169,517.533 425.437,525.939 417.601,530.084C415.186,531.31 412.396,532.352 409.8,532.445C409.005,532.463 408.476,532.326 408.34,532.043C408.234,530.846 410.569,529.821 411.796,529.038C417.524,526.014 422.034,523.452 426.433,518.254C429.071,515.507 432.056,512.188 434.696,509.601C435.585,508.774 436.105,508.489 436.237,508.782L436.254,508.827Z" style="fill:rgb(11,9,8);fill-rule:nonzero;"/>
            <path d="M446.424,445.817C451.185,445.038 451.032,457.448 445.342,455.748C442.69,454.955 443.222,446.342 446.424,445.817Z" style="fill:rgb(20,14,13);fill-rule:nonzero;"/>
            <path d="M203.681,458.632C203.539,458.722 203.363,458.772 203.165,458.798C201.901,458.961 200.829,457.871 200.833,456.597C200.849,452.144 200.684,447.669 200.764,443.217C200.957,432.525 201.966,424.536 196.986,414.077C195.461,410.875 182.608,396.153 189.448,393.865C196.089,391.645 204.85,404.862 206.983,410.08C210.815,419.452 211.214,429.25 209.686,439.139C209.247,441.982 205.164,457.693 203.681,458.632Z" style="fill:rgb(184,69,62);fill-rule:nonzero;"/>
            <path d="M448.726,424.676C448.166,425.063 446.279,424.852 445.506,424.576C441.766,423.244 438.838,405.278 436.828,400.235C434.892,395.374 431.37,389.062 427.796,385.267C424.867,382.156 410.81,374.377 418.397,368.831C424.045,364.702 437.488,376.934 440.805,381.258C447.312,389.74 451.68,406.608 450.693,417.153C450.59,418.252 450.693,423.673 448.726,424.676Z" style="fill:rgb(186,71,63);fill-rule:nonzero;"/>
        </g>
    </g>
</svg>
