<?xml version="1.0" encoding="UTF-8" standalone="no"?>
<!DOCTYPE svg PUBLIC "-//W3C//DTD SVG 1.1//EN" "http://www.w3.org/Graphics/SVG/1.1/DTD/svg11.dtd">
<svg width="100%" height="100%" viewBox="0 0 1571 1243" version="1.1" xmlns="http://www.w3.org/2000/svg" xmlns:xlink="http://www.w3.org/1999/xlink" xml:space="preserve" xmlns:serif="http://www.serif.com/" style="fill-rule:evenodd;clip-rule:evenodd;stroke-linejoin:round;stroke-miterlimit:2;">
    <g transform="matrix(0.64,0,0,0.64,0,0)">
        <g transform="matrix(4.16667,0,0,4.16667,0,0)">
            <path d="M333.476,369.745C337.526,370.235 342.936,371.345 349.706,373.055C360.016,375.665 369.496,374.195 378.126,368.625C380.636,367.015 383.246,365.215 385.946,363.235C386.156,363.085 386.096,362.755 385.846,362.685C374.256,359.455 361.116,358.035 349.916,361.565C344.616,363.235 339.096,365.795 333.366,369.245C333.146,369.375 333.216,369.715 333.476,369.745ZM580.466,260.925C572.886,271.525 560.906,278.325 548.366,281.985C539.156,284.675 530.956,286.635 522.056,292.015C512.646,297.715 506.366,307.135 503.316,317.275C498.606,332.885 495.576,345.235 487.726,357.665C475.336,377.305 448.566,379.215 428.306,374.505C415.526,371.535 403.196,368.145 391.316,364.345C391.046,364.255 390.736,364.315 390.516,364.495C387.016,367.225 382.726,370.085 377.636,373.085C371.266,376.845 364.046,378.485 355.956,378.005C350.166,377.655 342.966,375.045 337.246,374.045C334.916,373.635 332.086,373.365 328.766,373.245C328.226,373.225 327.696,373.355 327.236,373.625C321.866,376.755 318.966,378.465 318.556,378.755C313.406,382.405 307.566,386.455 301.036,390.905C293.326,396.155 283.956,400.465 272.926,403.855C256.346,408.945 239.206,403.565 225.116,393.525C214.546,385.995 205.806,376.545 196.616,366.655C186.246,355.495 175.056,344.575 159.986,341.885C153.436,340.715 146.836,340.405 140.176,340.965C127.926,341.995 119.176,342.685 113.926,343.025C104.136,343.645 95.156,343.035 85.926,339.565C69.476,333.395 62.446,315.915 60.626,299.875C59.006,285.535 60.686,268.075 47.096,257.965C39.776,252.525 32.256,249.055 24.786,245.515C20.506,243.495 16.526,240.775 13.246,237.525C12.976,237.255 12.516,237.385 12.436,237.755C12.286,238.445 12.206,239.155 12.196,239.885C12.096,257.516 13.866,273.975 17.516,289.285C21.426,305.725 27.536,321.455 35.846,336.485C41.746,347.155 51.366,360.285 59.286,369.315C77.676,390.285 99.936,407.605 125.266,421.545C166.726,444.365 213.416,456.465 260.676,460.155C278.096,461.525 295.356,462.155 312.446,462.045C323.996,461.975 334.646,461.415 344.396,460.345C356.026,459.075 366.566,457.525 376.026,455.695C407.896,449.565 438.496,438.405 467.816,422.205C470.416,420.775 473.406,418.945 476.796,416.735C484.896,411.445 491.666,407.405 498.506,401.945C506.086,395.895 513.276,389.695 520.065,383.335C526.036,377.735 532.276,370.795 538.786,362.505C544.936,354.675 550.286,347.025 554.826,339.545C556.196,337.295 559.386,331.325 564.406,321.635C568.766,313.195 571.276,303.705 574.566,293.775C578.066,283.205 580.236,272.335 581.076,261.145C581.106,260.805 580.666,260.645 580.466,260.925ZM580.746,203.545C579.006,193.245 578.146,186.025 576.016,177.725C573.506,168.005 570.116,158.535 565.836,149.305C565.626,148.855 564.956,148.945 564.876,149.435C563.766,156.105 563.356,162.165 563.636,167.635C564.076,175.965 567.726,183.145 573.226,191.615C575.676,195.385 578.046,199.405 580.356,203.685C580.406,203.775 580.516,203.815 580.606,203.785C580.706,203.745 580.766,203.645 580.746,203.545ZM415.056,367.395C428.696,371.595 445.576,374.545 459.986,371.645C473.726,368.885 483.596,359.465 489.536,346.755C493.776,337.665 496.726,325.285 498.436,319.645C501.386,309.915 505.386,301.635 512.886,294.165C519.046,288.025 527.916,284.185 535.936,281.645C542.366,279.615 548.626,277.545 554.716,275.445C568.356,270.745 579.366,260.185 582.716,246.135C586.166,231.625 583.216,216.305 575.706,203.595C573.056,199.105 570.066,193.935 566.736,188.095C564.496,184.165 562.756,180.485 561.526,177.035C557.996,167.175 560.826,155.645 561.656,145.435C562.776,131.705 557.346,119.295 549.016,108.535C542.526,100.155 535.546,92.575 528.056,85.785C518.426,77.035 507.586,67.875 496.286,60.795C483.766,52.945 473.406,46.655 461.406,41.225C452.206,37.065 442.816,32.435 433.166,28.915C419.676,23.995 405.536,19.645 390.766,15.865C382.936,13.865 376.896,12.925 367.786,11.135C361.236,9.845 355.456,8.865 350.446,8.175C326.986,4.955 304.066,3.765 281.696,4.595C261.575,5.345 241.126,6.895 220.936,10.675C211.146,12.505 202.816,14.085 195.956,15.435C184.456,17.695 172.556,22.115 160.456,26.075C155.426,27.725 151.516,29.565 146.996,31.215C139.936,33.795 132.836,37.735 125.736,41.185C119.006,44.455 112.226,48.345 105.396,52.845C102.296,54.895 95.916,59.465 86.256,66.555C83.726,68.415 81.516,70.565 78.796,72.835C77.426,73.985 75.636,75.645 73.426,77.825C62.656,88.475 55.606,95.065 48.196,105.155C40.076,116.205 35.746,122.125 35.206,122.905C28.236,133.065 23.956,141.745 16.946,154.655C15.436,157.425 12.646,164.725 8.576,176.555C2.536,194.105 0.046,218.845 14.636,233.165C20.436,238.855 27.806,243.105 36.096,246.935C45.206,251.155 52.576,255.215 57.026,263.045C59.906,268.115 61.716,273.725 62.466,279.875C64.346,295.285 65.326,303.285 65.406,303.865C68.196,325.105 81.686,338.545 103.526,339.285C115.656,339.685 132.966,337.355 139.676,337.035C145.186,336.765 150.026,336.825 154.186,337.195C169.626,338.605 182.646,346.305 193.396,357.415C197.346,361.495 202.186,366.635 207.936,372.845C215.456,380.965 223.836,387.975 233.086,393.885C250.626,405.095 271.266,403.515 288.896,393.355C301.746,385.955 312.286,378.405 326.566,368.785C335.066,363.075 345.916,357.545 356.096,356.475C367.756,355.245 377.756,356.575 388.366,359.475C394.186,361.065 403.086,363.705 415.056,367.395ZM8.946,233.115C9.006,232.565 8.856,232.025 8.526,231.585C0.396,220.575 -1.253,206.685 0.806,193.145C2.606,181.335 6.096,169.705 11.286,158.245C31.496,113.625 63.416,74.115 105.176,48.135C140.746,26.005 180.696,12.945 222.106,6.315C244.696,2.705 267.046,0.755 289.166,0.475C338.706,-0.155 386.236,7.815 431.756,24.385C461.776,35.305 490.276,50.275 514.495,69.055C531.166,81.975 546.166,96.775 557.506,114.055C561.956,120.845 564.496,127.955 565.116,135.385C565.306,137.685 565.436,139.225 565.506,139.995C565.566,140.545 565.726,141.075 565.986,141.555C569.496,147.985 572.056,153.335 573.686,157.605C580.036,174.325 583.946,192.145 585.436,211.065C585.676,214.115 586.016,216.685 586.456,218.785C588.146,226.875 588.986,234.505 587.426,242.725C585.586,252.405 585.496,261.875 583.866,271.575C580.216,293.365 573.306,313.835 563.136,332.975C534.766,386.415 484.026,424.355 428.026,445.225C391.996,458.665 354.206,465.395 315.226,465.945C291.546,466.275 267.996,465.125 244.566,462.485C226.956,460.505 209.046,457.085 190.836,452.225C157.666,443.365 126.786,429.165 98.206,409.625C93.436,406.365 87.326,401.635 79.866,395.435C70.336,387.505 60.856,377.755 51.426,366.175C33.896,344.655 21.736,320.835 14.946,294.705C11.036,279.655 8.866,264.965 8.436,250.635C8.246,244.235 8.416,238.395 8.946,233.115Z" style="fill:rgb(28,26,25);fill-rule:nonzero;"/>
            <path d="M246.702,296.221C239.636,287.555 226.766,286.365 217.954,293.55C209.146,300.735 207.726,313.585 214.79,322.248C221.856,330.915 234.726,332.105 243.539,324.919C252.346,317.735 253.766,304.885 246.702,296.221ZM377.99,272.51C372.406,286.265 379.756,302.235 394.413,308.19C409.066,314.145 425.476,307.815 431.062,294.06C436.646,280.305 429.296,264.335 414.639,258.38C399.986,252.425 383.576,258.755 377.99,272.51ZM147.05,203.481C139.506,195.315 126.616,194.945 118.245,202.671C109.876,210.395 109.206,223.275 116.742,231.448C124.286,239.615 137.176,239.985 145.548,232.258C153.916,224.535 154.586,211.655 147.05,203.481ZM472.652,208.561C471.926,222.455 483.146,234.335 497.728,235.1C512.306,235.865 524.716,225.225 525.44,211.328C526.166,197.435 514.945,185.555 500.365,184.789C485.786,184.025 473.376,194.665 472.652,208.561ZM194.086,171.515C193.596,167.685 194.026,163.305 195.386,158.375C195.616,157.535 195.036,156.695 194.166,156.625L194.086,156.625C193.166,156.555 192.316,157.135 192.046,158.015C183.796,185.665 207.076,207.175 229.086,218.665C258.686,234.105 290.216,239.855 323.676,235.925C340.196,233.985 355.386,229.285 369.676,221.855C375.206,218.985 380.796,214.705 386.446,209.025C392.796,202.645 396.986,193.855 398.176,184.925C399.456,175.285 396.996,161.645 385.196,161.035C380.876,160.815 376.766,161.295 373.566,159.935C369.976,158.415 367.336,156.315 365.636,153.625C360.666,145.775 358.006,140.995 352.226,136.045C339.736,125.325 326.126,133.025 312.486,138.925C303.476,142.825 295.606,141.825 286.646,137.325C278.136,133.055 271.586,129.975 266.996,128.075C253.656,122.575 240.926,127.135 235.016,140.235C233.456,143.705 231.886,149.515 229.536,152.955C226.386,157.565 221.896,159.405 216.206,160.235C207.076,161.575 199.766,163.275 194.796,171.665C194.606,171.975 194.136,171.875 194.086,171.515ZM63.896,119.445C56.886,129.165 56.366,140.925 63.856,150.415C68.436,156.225 77.756,159.185 84.686,158.955C91.736,158.725 98.266,156.315 104.296,151.705C115.026,143.515 120.696,131.425 114.156,118.425C112.216,114.595 109.026,111.435 104.586,108.965C89.786,100.735 73.406,106.235 63.896,119.445ZM483.82,106.712C483.396,95.615 473.336,86.995 461.365,87.46C449.386,87.915 440.026,97.285 440.452,108.378C440.876,119.475 450.936,128.095 462.908,127.63C474.886,127.175 484.246,117.805 483.82,106.712ZM208.052,62.097C205.276,51.385 193.586,45.135 181.929,48.153C170.276,51.165 163.066,62.295 165.841,73.013C168.616,83.725 180.306,89.975 191.964,86.957C203.616,83.945 210.826,72.815 208.052,62.097ZM374.423,45.402C370.006,35.335 357.026,31.305 345.438,36.393C333.846,41.485 328.036,53.765 332.449,63.828C336.866,73.895 349.846,77.925 361.435,72.837C373.026,67.745 378.836,55.465 374.423,45.402ZM459.986,371.645C445.576,374.545 428.696,371.595 415.056,367.395C403.086,363.705 394.186,361.065 388.366,359.475C377.756,356.575 367.756,355.245 356.096,356.475C345.916,357.545 335.066,363.075 326.566,368.785C312.286,378.405 301.746,385.955 288.896,393.355C271.266,403.515 250.626,405.095 233.086,393.885C223.836,387.975 215.456,380.965 207.936,372.845C202.186,366.635 197.346,361.495 193.396,357.415C182.646,346.305 169.626,338.605 154.186,337.195C150.026,336.825 145.186,336.765 139.676,337.035C132.966,337.355 115.656,339.685 103.526,339.285C81.686,338.545 68.196,325.105 65.406,303.865C65.326,303.285 64.346,295.285 62.466,279.875C61.716,273.725 59.906,268.115 57.026,263.045C52.576,255.215 45.206,251.155 36.096,246.935C27.806,243.105 20.436,238.855 14.636,233.165C0.046,218.845 2.536,194.105 8.576,176.555C12.646,164.725 15.436,157.425 16.946,154.655C23.956,141.745 28.236,133.065 35.206,122.905C35.746,122.125 40.076,116.205 48.196,105.155C55.606,95.065 62.656,88.475 73.426,77.825C75.636,75.645 77.426,73.985 78.796,72.835C81.516,70.565 83.726,68.415 86.256,66.555C95.916,59.465 102.296,54.895 105.396,52.845C112.226,48.345 119.006,44.455 125.736,41.185C132.836,37.735 139.936,33.795 146.996,31.215C151.516,29.565 155.426,27.725 160.456,26.075C172.556,22.115 184.456,17.695 195.956,15.435C202.816,14.085 211.146,12.505 220.936,10.675C241.126,6.895 261.575,5.345 281.696,4.595C304.066,3.765 326.986,4.955 350.446,8.175C355.456,8.865 361.236,9.845 367.786,11.135C376.896,12.925 382.936,13.865 390.766,15.865C405.536,19.645 419.676,23.995 433.166,28.915C442.816,32.435 452.206,37.065 461.406,41.225C473.406,46.655 483.766,52.945 496.286,60.795C507.586,67.875 518.426,77.035 528.056,85.785C535.546,92.575 542.526,100.155 549.016,108.535C557.346,119.295 562.776,131.705 561.656,145.435C560.826,155.645 557.996,167.175 561.526,177.035C562.756,180.485 564.496,184.165 566.736,188.095C570.066,193.935 573.056,199.105 575.706,203.595C583.216,216.305 586.166,231.625 582.716,246.135C579.366,260.185 568.356,270.745 554.716,275.445C548.626,277.545 542.366,279.615 535.936,281.645C527.916,284.185 519.046,288.025 512.886,294.165C505.386,301.635 501.386,309.915 498.436,319.645C496.726,325.285 493.776,337.665 489.536,346.755C483.596,359.465 473.726,368.885 459.986,371.645Z" style="fill:rgb(213,154,144);fill-rule:nonzero;"/>
            <path d="M347.486,40.265C345.466,41.105 344.126,41.725 343.466,42.135C335.966,46.815 332.016,55.275 336.576,63.365C341.166,71.495 351.716,72.825 359.606,69.555C367.496,66.285 374.026,57.905 371.526,48.905C369.036,39.955 360.266,36.765 351.656,38.745C350.896,38.925 349.506,39.425 347.486,40.265ZM374.423,45.402C378.836,55.465 373.026,67.745 361.435,72.837C349.846,77.925 336.866,73.895 332.449,63.828C328.036,53.765 333.846,41.485 345.438,36.393C357.026,31.305 370.006,35.335 374.423,45.402Z" style="fill:rgb(28,26,25);fill-rule:nonzero;"/>
            <path d="M359.606,69.555C351.716,72.825 341.166,71.495 336.576,63.365C332.016,55.275 335.966,46.815 343.466,42.135C344.126,41.725 345.466,41.105 347.486,40.265C349.506,39.425 350.896,38.925 351.656,38.745C360.266,36.765 369.036,39.955 371.526,48.905C374.026,57.905 367.496,66.285 359.606,69.555Z" style="fill:rgb(201,166,87);fill-rule:nonzero;"/>
            <path d="M204.727,64.425C203.096,55.625 193.896,49.955 184.184,51.756C174.466,53.555 167.916,62.145 169.546,70.945C171.176,79.745 180.376,85.415 190.088,83.614C199.806,81.815 206.356,73.225 204.727,64.425ZM208.052,62.097C210.826,72.815 203.616,83.945 191.964,86.957C180.306,89.975 168.616,83.725 165.841,73.013C163.066,62.295 170.276,51.165 181.929,48.153C193.586,45.135 205.276,51.385 208.052,62.097Z" style="fill:rgb(28,26,25);fill-rule:nonzero;"/>
            <path d="M204.727,64.425C206.356,73.225 199.806,81.815 190.088,83.614C180.376,85.415 171.176,79.745 169.546,70.945C167.916,62.145 174.466,53.555 184.184,51.756C193.896,49.955 203.096,55.625 204.727,64.425Z" style="fill:rgb(106,147,147);fill-rule:nonzero;"/>
            <path d="M444.447,107.417C444.356,116.395 452.276,123.755 462.146,123.854C472.016,123.955 480.096,116.765 480.185,107.792C480.276,98.815 472.356,91.455 462.486,91.356C452.616,91.255 444.536,98.445 444.447,107.417ZM483.82,106.712C484.246,117.805 474.886,127.175 462.908,127.63C450.936,128.095 440.876,119.475 440.452,108.378C440.026,97.285 449.386,87.915 461.365,87.46C473.336,86.995 483.396,95.615 483.82,106.712Z" style="fill:rgb(28,26,25);fill-rule:nonzero;"/>
            <path d="M444.447,107.417C444.536,98.445 452.616,91.255 462.486,91.356C472.356,91.455 480.276,98.815 480.185,107.792C480.096,116.765 472.016,123.955 462.146,123.854C452.276,123.755 444.356,116.395 444.447,107.417Z" style="fill:rgb(106,147,147);fill-rule:nonzero;"/>
            <path d="M110.905,119.789C105.186,109.135 90.216,106.035 77.457,112.874C64.696,119.715 58.996,133.905 64.707,144.56C70.426,155.215 85.396,158.315 98.155,151.475C110.916,144.635 116.616,130.445 110.905,119.789ZM63.896,119.445C73.406,106.235 89.786,100.735 104.586,108.965C109.026,111.435 112.216,114.595 114.156,118.425C120.696,131.425 115.026,143.515 104.296,151.705C98.266,156.315 91.736,158.725 84.686,158.955C77.756,159.185 68.436,156.225 63.856,150.415C56.366,140.925 56.886,129.165 63.896,119.445Z" style="fill:rgb(28,26,25);fill-rule:nonzero;"/>
            <path d="M110.905,119.789C116.616,130.445 110.916,144.635 98.155,151.475C85.396,158.315 70.426,155.215 64.707,144.56C58.996,133.905 64.696,119.715 77.457,112.874C90.216,106.035 105.186,109.135 110.905,119.789Z" style="fill:rgb(106,147,147);fill-rule:nonzero;"/>
            <path d="M214.156,204.235C217.216,206.765 220.686,209.165 224.566,211.455C255.356,229.605 288.726,236.385 324.666,231.775C342.156,229.535 357.756,224.335 372.236,215.455C375.966,213.165 378.916,210.825 381.066,208.435C381.346,208.125 381.516,207.725 381.546,207.305C382.916,190.205 367.776,178.455 354.276,171.665C349.816,169.415 344.396,167.405 338.016,165.635C316.426,159.625 294.546,158.875 272.386,163.375C264.316,165.015 257.385,166.885 251.596,168.985C237.306,174.165 215.586,185.785 213.746,203.235C213.706,203.615 213.856,203.995 214.156,204.235ZM210.376,200.125C212.036,190.865 218.006,184.675 225.176,178.735C228.586,175.905 231.526,173.825 234.006,172.475C237.376,170.645 244.576,167.605 255.626,163.335C258.686,162.155 261.716,161.275 264.706,160.695C274.326,158.825 284.246,157.075 293.746,156.595C306.636,155.945 320.156,157.225 334.306,160.455C339.576,161.665 344.746,163.385 349.806,165.625C356.876,168.755 361.786,171.155 364.516,172.815C369.926,176.095 375.046,180.965 379.876,187.415C383.376,192.085 384.896,196.635 385.716,202.435C385.776,202.835 386.276,202.975 386.536,202.665C394.166,193.525 396.366,183.025 393.116,171.175C391.906,166.725 389.096,164.605 384.706,164.805C381.576,164.945 379.976,165.015 379.916,165.015C366.246,165.445 360.176,151.835 353.886,143.015C347.486,134.055 336.396,132.225 326.786,136.995C320.636,140.045 314.846,142.345 309.416,143.875C303.526,145.545 297.526,145.395 291.426,143.425C286.866,141.955 283.406,140.565 281.036,139.275C271.696,134.185 267.776,131.425 259.676,130.205C252.576,129.135 247.016,130.795 242.986,135.165C241.526,136.745 239.836,139.655 237.916,143.885C233.376,153.865 230.206,162.595 217.546,163.965C207.276,165.075 202.086,166.225 197.276,175.905C196.186,178.115 195.996,179.995 196.776,182.025C199.656,189.545 204.286,194.545 209.706,200.325C209.926,200.565 210.316,200.445 210.376,200.125ZM194.086,171.515C194.136,171.875 194.606,171.975 194.796,171.665C199.766,163.275 207.076,161.575 216.206,160.235C221.896,159.405 226.386,157.565 229.536,152.955C231.886,149.515 233.456,143.705 235.016,140.235C240.926,127.135 253.656,122.575 266.996,128.075C271.586,129.975 278.136,133.055 286.646,137.325C295.606,141.825 303.476,142.825 312.486,138.925C326.126,133.025 339.736,125.325 352.226,136.045C358.006,140.995 360.666,145.775 365.636,153.625C367.336,156.315 369.976,158.415 373.566,159.935C376.766,161.295 380.876,160.815 385.196,161.035C396.996,161.645 399.456,175.285 398.176,184.925C396.986,193.855 392.796,202.645 386.446,209.025C380.796,214.705 375.206,218.985 369.676,221.855C355.386,229.285 340.196,233.985 323.676,235.925C290.216,239.855 258.686,234.105 229.086,218.665C207.076,207.175 183.796,185.665 192.046,158.015C192.316,157.135 193.166,156.555 194.086,156.625L194.166,156.625C195.036,156.695 195.616,157.535 195.386,158.375C194.026,163.305 193.596,167.685 194.086,171.515Z" style="fill:rgb(28,26,25);fill-rule:nonzero;"/>
            <path d="M210.376,200.125C210.316,200.445 209.926,200.565 209.706,200.325C204.286,194.545 199.656,189.545 196.776,182.025C195.996,179.995 196.186,178.115 197.276,175.905C202.086,166.225 207.276,165.075 217.546,163.965C230.206,162.595 233.376,153.865 237.916,143.885C239.836,139.655 241.526,136.745 242.986,135.165C247.016,130.795 252.576,129.135 259.676,130.205C267.776,131.425 271.696,134.185 281.036,139.275C283.406,140.565 286.866,141.955 291.426,143.425C297.526,145.395 303.526,145.545 309.416,143.875C314.846,142.345 320.636,140.045 326.786,136.995C336.396,132.225 347.486,134.055 353.886,143.015C360.176,151.835 366.246,165.445 379.916,165.015C379.976,165.015 381.576,164.945 384.706,164.805C389.096,164.605 391.906,166.725 393.116,171.175C396.366,183.025 394.166,193.525 386.536,202.665C386.276,202.975 385.776,202.835 385.716,202.435C384.896,196.635 383.376,192.085 379.876,187.415C375.046,180.965 369.926,176.095 364.516,172.815C361.786,171.155 356.876,168.755 349.806,165.625C344.746,163.385 339.576,161.665 334.306,160.455C320.156,157.225 306.636,155.945 293.746,156.595C284.246,157.075 274.326,158.825 264.706,160.695C261.716,161.275 258.686,162.155 255.626,163.335C244.576,167.605 237.376,170.645 234.006,172.475C231.526,173.825 228.586,175.905 225.176,178.735C218.006,184.675 212.036,190.865 210.376,200.125Z" style="fill:rgb(183,135,90);fill-rule:nonzero;"/>
            <path d="M580.746,203.545C580.766,203.645 580.706,203.745 580.606,203.785C580.516,203.815 580.406,203.775 580.356,203.685C578.046,199.405 575.676,195.385 573.226,191.615C567.726,183.145 564.076,175.965 563.636,167.635C563.356,162.165 563.766,156.105 564.876,149.435C564.956,148.945 565.626,148.855 565.836,149.305C570.116,158.535 573.506,168.005 576.016,177.725C578.146,186.025 579.006,193.245 580.746,203.545Z" style="fill:rgb(183,135,90);fill-rule:nonzero;"/>
            <path d="M476.58,209.62C476.376,221.385 486.326,231.105 498.814,231.321C511.296,231.535 521.586,222.175 521.793,210.409C521.995,198.645 512.046,188.925 499.558,188.708C487.076,188.495 476.786,197.855 476.58,209.62ZM472.652,208.561C473.376,194.665 485.786,184.025 500.365,184.789C514.945,185.555 526.166,197.435 525.44,211.328C524.716,225.225 512.306,235.865 497.728,235.1C483.146,234.335 471.926,222.455 472.652,208.561Z" style="fill:rgb(28,26,25);fill-rule:nonzero;"/>
            <path d="M476.58,209.62C476.786,197.855 487.076,188.495 499.558,188.708C512.046,188.925 521.995,198.645 521.793,210.409C521.586,222.175 511.296,231.535 498.814,231.321C486.326,231.105 476.376,221.385 476.58,209.62Z" style="fill:rgb(145,145,83);fill-rule:nonzero;"/>
            <path d="M146.315,208.766C141.656,201.095 131.426,198.795 123.484,203.63C115.536,208.465 112.876,218.595 117.537,226.263C122.196,233.935 132.426,236.235 140.368,231.4C148.316,226.565 150.976,216.435 146.315,208.766ZM147.05,203.481C154.586,211.655 153.916,224.535 145.548,232.258C137.176,239.985 124.286,239.615 116.742,231.448C109.206,223.275 109.876,210.395 118.245,202.671C126.616,194.945 139.506,195.315 147.05,203.481Z" style="fill:rgb(28,26,25);fill-rule:nonzero;"/>
            <path d="M146.315,208.766C150.976,216.435 148.316,226.565 140.368,231.4C132.426,236.235 122.196,233.935 117.537,226.263C112.876,218.595 115.536,208.465 123.484,203.63C131.426,198.795 141.656,201.095 146.315,208.766Z" style="fill:rgb(201,166,87);fill-rule:nonzero;"/>
            <path d="M580.466,260.925C580.666,260.645 581.106,260.805 581.076,261.145C580.236,272.335 578.066,283.205 574.566,293.775C571.276,303.705 568.766,313.195 564.406,321.635C559.386,331.325 556.196,337.295 554.826,339.545C550.286,347.025 544.936,354.675 538.786,362.505C532.276,370.795 526.036,377.735 520.065,383.335C513.276,389.695 506.086,395.895 498.506,401.945C491.666,407.405 484.896,411.445 476.796,416.735C473.406,418.945 470.416,420.775 467.816,422.205C438.496,438.405 407.896,449.565 376.026,455.695C366.566,457.525 356.026,459.075 344.396,460.345C334.646,461.415 323.996,461.975 312.446,462.045C295.356,462.155 278.096,461.525 260.676,460.155C213.416,456.465 166.726,444.365 125.266,421.545C99.936,407.605 77.676,390.285 59.286,369.315C51.366,360.285 41.746,347.155 35.846,336.485C27.536,321.455 21.426,305.725 17.516,289.285C13.866,273.975 12.096,257.516 12.196,239.885C12.206,239.155 12.286,238.445 12.436,237.755C12.516,237.385 12.976,237.255 13.246,237.525C16.526,240.775 20.506,243.495 24.786,245.515C32.256,249.055 39.776,252.525 47.096,257.965C60.686,268.075 59.006,285.535 60.626,299.875C62.446,315.915 69.476,333.395 85.926,339.565C95.156,343.035 104.136,343.645 113.926,343.025C119.176,342.685 127.926,341.995 140.176,340.965C146.836,340.405 153.436,340.715 159.986,341.885C175.056,344.575 186.246,355.495 196.616,366.655C205.806,376.545 214.546,385.995 225.116,393.525C239.206,403.565 256.346,408.945 272.926,403.855C283.956,400.465 293.326,396.155 301.036,390.905C307.566,386.455 313.406,382.405 318.556,378.755C318.966,378.465 321.866,376.755 327.236,373.625C327.696,373.355 328.226,373.225 328.766,373.245C332.086,373.365 334.916,373.635 337.246,374.045C342.966,375.045 350.166,377.655 355.956,378.005C364.046,378.485 371.266,376.845 377.636,373.085C382.726,370.085 387.016,367.225 390.516,364.495C390.736,364.315 391.046,364.255 391.316,364.345C403.196,368.145 415.526,371.535 428.306,374.505C448.566,379.215 475.336,377.305 487.726,357.665C495.576,345.235 498.606,332.885 503.316,317.275C506.366,307.135 512.646,297.715 522.056,292.015C530.956,286.635 539.156,284.675 548.366,281.985C560.906,278.325 572.886,271.525 580.466,260.925Z" style="fill:rgb(183,135,90);fill-rule:nonzero;"/>
            <path d="M381.294,274.495C376.756,286.365 383.496,299.965 396.338,304.871C409.176,309.775 423.266,304.125 427.799,292.254C432.336,280.385 425.596,266.785 412.755,261.879C399.916,256.975 385.826,262.625 381.294,274.495ZM377.99,272.51C383.576,258.755 399.986,252.425 414.639,258.38C429.296,264.335 436.646,280.305 431.062,294.06C425.476,307.815 409.066,314.145 394.413,308.19C379.756,302.235 372.406,286.265 377.99,272.51Z" style="fill:rgb(28,26,25);fill-rule:nonzero;"/>
            <path d="M381.294,274.495C385.826,262.625 399.916,256.975 412.755,261.879C425.596,266.785 432.336,280.385 427.799,292.254C423.266,304.125 409.176,309.775 396.338,304.871C383.496,299.965 376.756,286.365 381.294,274.495Z" style="fill:rgb(145,145,83);fill-rule:nonzero;"/>
            <path d="M244.454,299.438C239.106,292.105 228.706,290.585 221.216,296.049C213.726,301.515 211.996,311.875 217.338,319.211C222.686,326.545 233.086,328.065 240.577,322.6C248.066,317.135 249.796,306.775 244.454,299.438ZM246.702,296.221C253.766,304.885 252.346,317.735 243.539,324.919C234.726,332.105 221.856,330.915 214.79,322.248C207.726,313.585 209.146,300.735 217.954,293.55C226.766,286.365 239.636,287.555 246.702,296.221Z" style="fill:rgb(28,26,25);fill-rule:nonzero;"/>
            <path d="M244.454,299.438C249.796,306.775 248.066,317.135 240.577,322.6C233.086,328.065 222.686,326.545 217.338,319.211C211.996,311.875 213.726,301.515 221.216,296.049C228.706,290.585 239.106,292.105 244.454,299.438Z" style="fill:rgb(106,147,147);fill-rule:nonzero;"/>
            <path d="M333.476,369.745C333.216,369.715 333.146,369.375 333.366,369.245C339.096,365.795 344.616,363.235 349.916,361.565C361.116,358.035 374.256,359.455 385.846,362.685C386.096,362.755 386.156,363.085 385.946,363.235C383.246,365.215 380.636,367.015 378.126,368.625C369.496,374.195 360.016,375.665 349.706,373.055C342.936,371.345 337.526,370.235 333.476,369.745Z" style="fill:rgb(213,154,144);fill-rule:nonzero;"/>
        </g>
    </g>
</svg>
