<?xml version="1.0" encoding="UTF-8" standalone="no"?>
<!DOCTYPE svg PUBLIC "-//W3C//DTD SVG 1.1//EN" "http://www.w3.org/Graphics/SVG/1.1/DTD/svg11.dtd">
<svg width="100%" height="100%" viewBox="0 0 1168 2054" version="1.1" xmlns="http://www.w3.org/2000/svg" xmlns:xlink="http://www.w3.org/1999/xlink" xml:space="preserve" xmlns:serif="http://www.serif.com/" style="fill-rule:evenodd;clip-rule:evenodd;stroke-linejoin:round;stroke-miterlimit:2;">
    <g transform="matrix(0.64,0,0,0.64,0,0)">
        <g transform="matrix(4.16667,0,0,4.16667,0,0)">
            <path d="M176.219,740.542C176.419,740.282 176.549,739.922 176.619,739.462C178.149,728.892 180.419,717.752 183.419,706.022C183.439,705.932 185.269,699.232 188.909,685.922C189.259,684.662 189.359,683.342 189.189,682.042C187.129,665.492 185.889,650.192 185.479,636.142C185.109,623.542 183.729,613.792 183.329,601.862C181.849,557.512 182.429,512.842 185.069,467.872C185.389,462.402 186.009,454.632 186.929,444.542C187.959,433.182 188.699,425.422 189.159,421.252C189.179,421.032 188.939,420.892 188.759,421.012C183.089,424.712 178.399,427.732 174.689,430.072C173.579,430.772 172.999,431.732 172.959,432.942C172.439,449.972 171.179,466.322 170.679,483.952C170.599,486.682 170.179,499.602 169.409,522.702C168.489,550.132 168.139,578.322 169.149,607.632C169.489,617.602 169.789,628.372 170.039,639.952C170.129,644.162 170.869,648.712 171.159,652.932C171.279,654.742 171.639,662.752 172.229,676.942C172.459,682.412 172.959,690.412 173.739,700.932C174.669,713.502 175.299,726.632 175.619,740.342C175.629,740.662 176.029,740.792 176.219,740.542ZM404.009,377.132C404.029,376.772 403.639,376.532 403.319,376.712C395.309,381.352 388.039,386.802 381.499,393.072C372.929,401.302 362.379,410.582 356.349,417.232C347.439,427.062 338.419,436.242 329.659,446.522C315.429,463.222 302.659,478.542 291.349,492.482C278.399,508.432 266.819,524.682 256.599,541.222C252.179,548.382 245.889,559.462 237.739,574.462C233.769,581.772 230.499,589.852 226.569,597.602C223.529,603.592 220.839,609.412 218.509,615.072C211.469,632.172 206.979,643.202 205.049,648.162C202.239,655.362 199.819,664.822 197.559,672.052C192.709,687.562 189.849,697.342 188.999,701.402C186.959,711.082 185.429,718.072 184.419,722.362C182.479,730.622 181.109,737.562 180.319,743.172C179.089,751.832 178.079,758.842 177.289,764.202C177.189,764.922 177.779,765.542 178.499,765.482L193.549,764.182C194.839,764.072 195.929,763.142 196.249,761.882C199.519,748.992 202.949,737.922 206.539,728.672C208.329,724.062 211.669,716.102 216.559,704.802C219.129,698.832 222.469,692.142 226.579,684.722C234.559,670.302 238.169,662.882 244.639,653.262C253.909,639.462 264.169,624.082 275.609,608.492C292.819,585.022 303.939,569.902 308.989,563.112C323.819,543.192 332.779,530.912 335.879,526.262C346.709,510.062 356.609,493.592 365.599,476.852C368.059,472.282 370.289,467.952 372.279,463.872C377.829,452.502 383.329,442.062 387.799,430.812C390.009,425.252 393.039,417.572 396.899,407.762C400.509,398.582 403.439,387.572 404.009,377.132ZM171.919,758.222C171.559,750.772 171.389,745.222 171.399,741.562C171.419,734.572 171.239,729.022 170.859,724.912C170.209,717.992 170.109,708.132 168.869,699.992C167.929,693.782 166.909,688.272 165.799,683.462C162.469,668.922 161.139,661.182 157.719,650.172C155.549,643.222 151.929,632.132 146.859,616.912C142.819,604.772 137.659,592.932 132.349,579.652C129.729,573.102 125.219,562.962 118.829,549.232C103.679,516.713 85.999,486.042 66.258,455.012C59.789,444.842 50.959,430.772 39.789,412.792C35.519,405.932 30.769,399.442 27.099,393.402C20.109,381.892 13.919,373.412 5.418,363.812C5.238,363.612 4.908,363.652 4.788,363.892C4.648,364.172 4.578,364.522 4.568,364.952C4.368,374.402 4.518,382.612 5.008,389.582C5.418,395.292 6.468,402.862 8.158,412.282C10.529,425.522 11.898,433.032 12.248,434.822C17.719,462.442 26.378,490.262 38.209,518.283C41.068,525.052 44.698,531.722 47.599,538.172C49.979,543.472 52.459,548.372 55.049,552.862C62.928,566.552 68.689,576.252 72.329,581.952C78.439,591.522 86.829,603.882 97.499,619.052C106.609,631.982 115.019,644.142 122.749,655.512C124.559,658.172 126.369,661.112 128.179,664.342C135.639,677.622 144.009,691.262 147.839,699.912C157.029,720.662 165.189,738.312 171.539,758.292C171.569,758.382 171.659,758.442 171.759,758.422C171.859,758.402 171.929,758.322 171.919,758.222ZM98.329,327.202C92.589,325.342 86.878,323.182 81.199,320.722C74.479,317.812 69.229,315.922 65.459,315.042C55.178,312.652 42.128,314.052 33.169,314.112C32.949,314.112 32.829,314.372 32.979,314.542C33.289,314.892 33.759,315.182 34.368,315.402C55.269,322.822 76.559,326.932 98.239,327.722C98.369,327.722 98.489,327.632 98.509,327.502C98.529,327.372 98.459,327.242 98.329,327.202ZM215.319,285.442C210.719,284.382 207.709,282.032 202.689,278.812C200.609,277.482 198.199,277.172 195.459,277.882C191.659,278.872 188.219,279.182 185.149,278.792C184.729,278.742 184.319,278.972 184.139,279.362C179.249,290.102 173.959,299.062 165.489,307.372C154.999,317.662 142.749,324.662 128.739,328.382C128.029,328.572 127.499,329.172 127.399,329.902C124.449,352.532 129.679,372.782 143.079,390.662C150.129,400.072 158.719,408.572 163.319,419.692C164.469,422.472 165.689,425.692 166.969,429.352C167.149,429.872 167.789,430.062 168.239,429.732C173.039,426.162 177.589,422.682 183.179,419.272C195.579,411.702 201.979,407.782 202.389,407.512C207.999,403.822 215.519,399.382 221.009,394.712C232.189,385.162 242.159,375.252 245.509,361.482C245.609,361.092 245.449,360.672 245.119,360.432C232.579,351.382 223.039,338.952 219.009,323.542C215.759,311.142 214.739,298.732 215.949,286.302C215.979,285.892 215.709,285.532 215.319,285.442ZM356.819,382.232C358.279,373.762 358.699,365.442 358.089,357.262C358.029,356.472 357.389,350.642 356.179,339.772C355.349,332.302 354.589,326.502 353.889,322.352C351.879,310.482 347.949,298.322 342.109,285.872C338.559,278.312 334.239,272.312 329.139,267.862C316.759,257.072 298.989,250.802 282.859,247.302C282.459,247.212 282.089,247.502 282.069,247.912C281.999,250.022 281.969,252.962 281.129,255.002C278.559,261.172 273.059,261.992 266.929,262.922C260.909,263.842 260.409,270.042 258.689,273.332C255.719,279.002 251.009,280.852 244.579,278.872C241.419,277.902 235.919,274.652 232.449,278.082C228.219,282.272 225.839,285.082 220.639,285.812C220.149,285.882 219.779,286.302 219.779,286.802C219.819,305.212 220.379,322.612 229.719,337.832C234.459,345.552 241.569,352.752 251.059,359.422C259.069,365.052 268.159,369.892 278.349,373.962C293.579,380.032 308.429,384.932 324.879,383.452C331.879,382.822 336.619,382.322 343.669,382.892C346.259,383.102 349.999,383.382 354.889,383.732C355.819,383.802 356.659,383.152 356.819,382.232ZM171.389,254.692C173.089,254.812 174.549,255.162 175.779,255.752C181.359,258.412 179.849,264.532 180.989,268.742C182.239,273.312 185.669,275.232 190.229,274.362C194.809,273.482 198.699,272.382 202.149,273.912C208.199,276.592 212.569,282.062 220.309,281.242C222.599,280.992 224.379,280.172 225.649,278.762C227.619,276.572 229.529,274.832 231.379,273.552C236.489,270.012 242.689,273.962 246.649,275.002C256.449,277.582 255.539,266.212 260.189,262.042C262.449,260.012 264.759,258.822 267.119,258.482C270.949,257.942 273.459,257.262 274.639,256.452C277.639,254.402 278.729,251.262 277.899,247.032C277.859,246.812 277.719,246.602 277.529,246.472C266.729,239.072 253.789,238.902 241.599,242.422C241.199,242.542 240.849,242.802 240.609,243.152C230.819,257.532 211.569,258.852 198.479,248.022C198.049,247.652 196.009,245.912 192.359,242.802C190.709,241.392 189.399,241.552 187.249,241.892C180.939,242.902 174.729,248.782 170.979,253.762C170.699,254.132 170.939,254.662 171.389,254.692ZM207.369,249.392C207.949,249.872 208.829,249.562 208.979,248.822C209.729,245.162 210.249,240.372 210.539,234.462C210.639,232.442 210.399,230.672 209.809,229.162C209.369,228.022 207.709,228.202 207.519,229.412L204.889,246.292C204.799,246.862 205.019,247.442 205.469,247.812L207.369,249.392ZM215.949,251.502C216.739,251.712 217.559,251.232 217.769,250.432L223.599,228.272C223.719,227.842 223.429,227.412 222.989,227.352C220.189,226.942 218.799,230.732 218.249,232.902C216.699,238.952 215.199,244.542 213.749,249.662C213.569,250.302 213.949,250.972 214.589,251.142L215.949,251.502ZM209.059,224.082C209.289,224.082 209.469,223.882 209.459,223.652C209.259,220.782 208.119,218.642 206.029,217.212C205.069,216.562 203.799,216.762 203.189,217.662C202.809,218.232 202.729,218.892 202.929,219.662C203.729,222.642 205.769,224.122 209.059,224.082ZM222.949,223.082C226.459,224.162 229.109,223.232 230.909,220.292C231.369,219.542 231.489,218.802 231.259,218.072C230.899,216.922 229.609,216.302 228.369,216.692C225.679,217.562 223.779,219.492 222.659,222.492C222.569,222.742 222.699,223.002 222.949,223.082ZM149.829,212.002C150.069,211.442 149.759,210.802 149.179,210.622C143.049,208.802 136.769,207.422 130.328,206.472C121.719,205.212 112.729,205.582 103.379,207.592C86.419,211.222 68.758,224.602 58.069,237.932C51.878,245.642 47.818,251.012 45.889,254.042C35.579,270.232 26.148,287.612 17.599,306.182C17.329,306.762 17.589,307.462 18.179,307.722C23.459,310.082 30.069,310.492 35.818,310.192C50.339,309.432 59.838,308.302 71.449,312.602C71.939,312.772 77.498,315.022 88.139,319.332C96.829,322.862 106.059,325.002 115.819,325.752C118.449,325.952 121.109,325.762 123.819,325.192C149.849,319.672 170.899,301.572 180.409,276.722C180.469,276.562 180.449,276.392 180.349,276.252C176.959,271.502 176.939,268.942 176.119,262.482C175.909,260.862 174.649,259.582 173.039,259.362C166.889,258.492 159.409,257.872 159.939,249.702C160.069,247.692 161.979,241.812 159.289,240.202C157.229,238.972 155.369,237.962 153.699,237.152C145.019,232.942 142.849,225.382 147.409,216.752C148.789,214.142 149.599,212.562 149.829,212.002ZM214.729,231.662C215.979,228.152 216.999,225.822 217.809,224.672C219.189,222.702 219.439,219.902 220.419,217.862C220.569,217.542 220.789,217.272 221.069,217.062C225.359,213.762 229.019,211.042 233.089,214.682C234.499,215.932 235.179,217.442 235.149,219.192C235.069,223.052 231.769,225.352 228.299,226.742C228.039,226.842 227.839,227.072 227.779,227.342L222.429,250.102C222.349,250.452 222.669,250.762 223.019,250.672C236.569,247.252 243.559,236.422 242.839,222.592C242.489,215.922 238.289,210.092 233.829,205.152C229.149,199.962 222.459,197.762 215.269,198.572C204.999,199.722 197.029,204.482 191.349,212.852C191.139,213.162 190.969,213.482 190.839,213.822C187.599,222.232 187.239,229.822 192.439,237.552C192.559,237.742 192.699,237.902 192.869,238.032L200.759,244.592C201.069,244.852 201.539,244.672 201.599,244.272L204.109,228.202C204.169,227.782 204.019,227.362 203.709,227.072C200.329,223.962 197.279,219.962 200.389,215.482C200.649,215.102 200.999,214.782 201.399,214.552C207.679,210.942 212.389,217.992 212.799,223.502C212.969,225.832 213.209,227.362 213.499,228.112C213.879,229.092 213.839,231.522 213.959,231.732C214.139,232.042 214.609,232.002 214.729,231.662ZM187.599,237.682C183.449,229.522 183.079,221.192 186.469,212.682C186.599,212.362 186.569,211.992 186.389,211.692C180.129,201.202 174.249,192.402 164.219,185.592C163.859,185.342 163.389,185.292 162.979,185.452C158.669,187.132 155.789,188.552 154.349,189.722C148.809,194.202 151.979,198.932 154.189,205.042C155.979,209.982 153.559,213.952 150.959,219.102C147.569,225.792 149.269,230.752 156.049,234.002C161.249,236.492 165.579,238.422 164.779,244.212C164.259,247.972 162.759,251.822 165.809,253.552C166.309,253.832 166.929,253.682 167.249,253.202C171.959,246.122 178.039,239.332 187.169,238.462C187.549,238.432 187.769,238.022 187.599,237.682ZM432.289,227.792C426.509,222.242 421.649,215.862 416.449,210.372C408.029,201.472 400.739,195.062 390.589,189.922C373.839,181.442 355.429,173.202 337.849,171.332C320.849,169.522 303.379,176.762 289.479,186.272C289.149,186.502 288.869,186.812 288.689,187.162C287.889,188.742 285.859,193.602 287.399,195.162C292.929,200.742 299.379,205.912 294.289,214.172C292.199,217.582 291.119,219.332 291.059,219.442C288.939,223.332 291.259,227.032 291.989,229.942C292.709,232.792 292.369,235.402 290.979,237.772C289.789,239.782 286.879,241.312 284.649,242.782C284.289,243.022 284.389,243.582 284.809,243.682C309.849,249.662 334.699,258.342 345.619,283.932C345.859,284.482 346.399,284.832 346.999,284.822C368.299,284.432 386.869,275.282 402.429,260.562C408.559,254.772 415.769,245.862 423.289,237.892C424.359,236.762 427.359,233.812 432.289,229.022C432.639,228.682 432.639,228.122 432.289,227.792ZM244.269,237.712C244.209,238.042 244.529,238.312 244.849,238.212C255.679,234.872 268.339,235.472 277.689,242.692C278.169,243.062 278.849,242.962 279.209,242.482C282.189,238.422 289.729,237.312 287.659,230.752C285.959,225.392 284.359,222.232 287.349,217.192C289.439,213.652 294.559,209.222 290.039,203.952C286.799,200.162 282.809,197.872 282.609,191.912C282.479,187.712 286.949,182.802 283.549,178.702C281.099,175.752 277.009,174.682 274.409,171.282C270.119,165.692 272.049,157.312 262.499,158.142C259.648,158.392 257.409,158.332 255.759,157.962C255.409,157.882 255.039,158.022 254.819,158.312C253.339,160.282 251.559,163.132 249.479,166.852C242.199,179.872 237.269,187.872 233.969,198.862C233.869,199.182 233.949,199.532 234.179,199.782C242.919,209.082 249.889,219.332 246.059,232.802C245.569,234.512 244.459,236.452 244.269,237.712ZM252.059,155.952C250.339,154.052 248.849,151.912 247.599,149.532C246.109,146.702 244.429,144.962 241.769,144.022C235.729,141.902 230.759,148.442 223.679,145.082C218.349,142.542 212.969,137.302 207.369,143.992C203.199,148.982 200.749,152.002 194.139,150.282C191.119,149.492 187.099,147.912 185.759,151.422C184.769,153.992 183.939,156.312 183.259,158.402C181.519,163.702 177.439,164.542 172.469,165.162C163.549,166.272 165.689,174.192 165.979,181.952C165.989,182.262 166.149,182.542 166.399,182.722C172.529,187.012 177.759,192.342 182.099,198.712C184.309,201.962 186.539,205.422 188.769,209.102C188.969,209.432 189.449,209.442 189.669,209.122C193.239,203.872 197.869,200.072 203.559,197.732C212.629,193.992 221.459,192.382 230.129,197.472C230.379,197.612 230.689,197.502 230.789,197.232C233.759,189.492 237.119,181.962 240.869,174.632C244.159,168.192 248.609,162.072 252.129,156.812C252.309,156.552 252.279,156.192 252.059,155.952ZM150.439,206.202C149.939,203.752 148.289,200.842 147.769,198.152C146.799,193.082 148.319,189.022 152.339,185.972C154.439,184.382 157.229,183.522 160.239,182.362C161.249,181.972 161.929,181.012 161.959,179.922C162.109,173.852 160.239,167.362 166.059,163.052C166.429,162.782 166.499,162.272 166.219,161.912C159.769,153.532 155.199,144.392 152.519,134.502C151.139,129.402 150.609,122.372 150.929,113.402C150.939,112.992 150.779,112.602 150.479,112.322C142.829,105.312 135.229,100.732 127.689,98.592C100.849,90.962 72.739,96.162 46.579,104.562C41.319,106.252 37.619,106.492 32.678,106.522C32.118,106.522 31.739,107.082 31.939,107.602C34.129,113.392 35.419,117.942 35.949,123.762C36.349,128.202 36.938,133.372 37.719,139.272C40.549,160.842 48.098,182.052 61.939,198.592C65.868,203.292 71.429,208.072 78.609,212.922C78.908,213.122 79.299,213.132 79.598,212.942C93.229,204.492 108.039,200.752 124.049,201.722C133.149,202.272 141.709,203.972 149.729,206.812C150.129,206.952 150.519,206.612 150.439,206.202ZM264.639,153.962C276.769,154.482 273.049,166.812 279.479,170.552C284.309,173.352 288.249,175.402 288.989,180.292C289.039,180.652 289.449,180.842 289.759,180.652C294.929,177.442 300.719,174.562 307.109,172.012C323.229,165.582 339.579,165.162 356.159,170.752C356.689,170.932 357.289,170.752 357.619,170.292C362.789,163.142 366.369,155.292 368.369,146.742C371.249,134.432 372.419,121.752 371.879,108.702C371.669,103.582 371.419,98.852 371.139,94.522C370.839,89.852 371.399,86.002 372.419,81.382C372.499,81.032 372.209,80.712 371.859,80.742C367.769,81.102 364.179,81.402 360.799,81.162C344.749,80.012 330.309,79.002 315.339,81.982C303.319,84.382 292.189,87.762 282.309,95.052C281.879,95.372 281.679,95.902 281.799,96.422C285.609,113.282 281.099,130.092 271.059,144.202C269.159,146.882 266.929,149.962 264.379,153.432C264.219,153.642 264.369,153.952 264.639,153.962ZM225.639,5.772C223.189,8.622 218.569,13.302 211.769,19.812C204.359,26.902 198.809,33.152 192.259,40.652C180.769,53.812 171.409,67.532 164.199,81.812C159.889,90.332 157.019,99.292 155.579,108.692C152.709,127.472 158.769,145.342 170.349,160.392C170.649,160.782 171.089,161.032 171.579,161.082C176.269,161.592 178.979,159.682 180.219,154.972C181.649,149.532 183.609,144.302 190.579,145.482C190.919,145.532 192.519,145.902 195.379,146.592C202.009,148.182 203.309,141.122 207.959,138.182C211.569,135.892 215.529,135.802 219.859,137.932C219.929,137.962 221.869,138.992 225.689,141.022C227.219,141.832 228.489,142.112 229.519,141.852C230.829,141.512 232.389,141.052 234.189,140.472C244.809,137.062 249.419,144.102 253.999,152.022C254.659,153.162 255.679,153.772 257.049,153.842C257.349,153.852 257.639,153.742 257.859,153.532C263.389,148.182 268.289,141.412 272.569,133.222C278.219,122.412 280.039,111.332 278.049,99.972C275.319,84.432 270.439,71.352 263.999,56.032C259.259,44.762 252.729,33.912 244.409,23.502C238.929,16.642 232.439,12.362 226.319,5.762C226.129,5.562 225.819,5.562 225.639,5.772ZM166.539,665.252C166.579,665.392 166.719,665.472 166.859,665.452C166.999,665.432 167.099,665.302 167.089,665.162C166.559,656.252 166.289,647.112 165.819,637.052C164.319,604.972 163.769,578.102 164.159,556.452C164.919,515.332 166.459,474.952 168.779,435.322C168.799,435.032 168.519,434.812 168.239,434.902C164.729,436.042 163.509,433.482 162.709,430.412C159.739,419.152 153.939,411.772 146.079,401.462C142.649,396.972 137.089,390.512 133.899,385.062C124.059,368.272 120.449,350.042 123.059,330.372C123.099,330.072 122.819,329.822 122.519,329.902C109.809,333.402 95.659,332.742 81.068,330.732C59.889,327.802 39.779,323.372 20.709,314.312C18.699,313.352 16.799,312.242 15.029,310.972C12.699,309.302 12.179,307.112 13.469,304.392C23.719,282.682 34.999,261.312 49.079,242.072C56.248,232.282 64.829,223.632 74.838,216.112C74.999,215.992 74.999,215.742 74.829,215.632C61.039,206.352 50.809,193.552 43.829,177.492C37.299,162.462 33.529,147.712 32.519,133.242C31.709,121.482 29.878,112.302 27.039,105.712C26.909,105.402 26.859,105.062 26.898,104.732C27.089,103.282 27.979,102.542 29.589,102.502C33.869,102.402 37.029,102.532 40.779,101.582C44.508,100.632 49.989,99.072 57.239,96.912C74.949,91.622 92.959,89.672 111.249,91.052C125.049,92.092 140.389,97.032 150.559,106.712C150.889,107.022 151.419,106.842 151.499,106.402C155.919,80.442 171.659,58.342 188.099,38.432C198.179,26.232 209.959,15.512 222.419,2.752C224.589,0.522 226.729,0.402 228.859,2.372C234.069,7.222 237.339,10.222 238.669,11.372C245.679,17.442 251.599,24.442 256.419,32.352C267.409,50.382 275.379,69.572 280.319,89.922C280.419,90.332 280.899,90.522 281.259,90.292C299.709,78.422 322.059,74.932 343.809,75.842C352.429,76.202 363.049,77.292 372.769,76.452C375.389,76.222 378.209,76.922 377.169,80.072C375.649,84.662 375.109,89.282 375.559,93.952C376.909,108.162 376.789,121.632 375.219,134.372C373.519,148.182 369.979,160.742 361.359,171.882C361.189,172.102 361.279,172.432 361.549,172.522C369.599,175.372 377.369,178.512 384.849,181.962C397.369,187.732 408.209,195.292 417.379,204.642C418.429,205.712 421.629,209.362 426.979,215.592C431.929,221.352 435.189,224.932 436.779,226.322C438.589,227.902 437.209,230.532 435.539,232.062C426.629,240.182 421.379,246.592 411.789,257.422C396.119,275.102 373.219,288.772 348.889,288.912C348.549,288.912 348.309,289.262 348.449,289.582C354.299,303.082 357.729,316.022 359.659,331.662C361.069,343.152 361.879,350.332 362.069,353.202C362.729,363.232 362.419,373.232 361.139,383.202C360.469,388.372 354.469,388.342 350.529,387.752C343.739,386.722 336.809,386.562 329.719,387.282C323.049,387.962 318.639,388.282 316.509,388.232C310.669,388.102 303.999,386.982 296.499,384.872C278.769,379.882 263.329,372.982 250.189,364.192C249.829,363.952 249.339,364.132 249.219,364.542C245.899,375.512 238.779,385.572 227.859,394.722C217.829,403.122 206.979,410.522 195.309,416.932C194.669,417.282 194.239,417.922 194.149,418.642C190.739,446.142 188.609,474.412 187.769,503.452C186.609,543.732 186.879,581.522 188.589,616.822C189.509,635.902 191.289,655.232 192.289,670.302C192.309,670.632 192.769,670.682 192.869,670.372C205.779,629.862 222.789,590.912 243.909,553.512C257.879,528.792 274.049,506.162 291.939,484.452C315.159,456.292 338.219,428.532 364.199,403.082C371.059,396.372 378.279,389.842 385.869,383.502C391.429,378.852 398.279,372.982 404.149,371.842C405.469,371.582 406.789,372.222 407.379,373.402C409.189,377.042 408.039,384.292 407.129,388.002C403.799,401.622 399.089,415.672 392.999,430.142C375.089,472.712 352.929,511.792 326.519,547.392C314.479,563.622 299.789,583.522 282.459,607.082C257.739,640.682 234.769,675.052 218.669,711.292C211.059,728.412 204.759,746.112 199.759,764.402C199.319,766.012 198.409,767.092 197.019,767.652C194.709,768.582 191.059,769.212 186.049,769.552C178.789,770.042 174.349,770.132 172.719,769.812C171.089,769.502 170.019,768.472 169.499,766.742C165.689,754.052 160.449,739.792 153.769,723.942C142.119,696.312 127.709,670.302 110.549,645.932C92.239,619.922 74.509,595.472 58.449,568.102C39.019,534.992 24.379,500.222 14.519,463.812C8.728,442.442 4.318,419.672 1.278,395.522C0.098,386.142 -0.381,375.632 0.338,366.212C0.488,364.242 0.758,362.512 1.138,361.012C3.138,353.272 11.919,364.152 13.539,366.242C19.989,374.552 26.118,383.242 31.928,392.322C43.058,409.752 56.799,431.422 73.159,457.352C79.009,466.632 85.219,476.852 91.769,488.002C115.969,529.212 136.249,573.132 152.609,619.782C155.679,628.522 158.119,636.062 159.939,642.402C161.409,647.532 163.609,655.152 166.539,665.252Z" style="fill:rgb(4,4,5);fill-rule:nonzero;"/>
            <path d="M225.639,5.772C225.819,5.562 226.129,5.562 226.319,5.762C232.439,12.362 238.929,16.642 244.409,23.502C252.729,33.912 259.259,44.762 263.999,56.032C270.439,71.352 275.319,84.432 278.049,99.972C280.039,111.332 278.219,122.412 272.569,133.222C268.289,141.412 263.389,148.182 257.859,153.532C257.639,153.742 257.349,153.852 257.049,153.842C255.679,153.772 254.659,153.162 253.999,152.022C249.419,144.102 244.809,137.062 234.189,140.472C232.389,141.052 230.829,141.512 229.519,141.852C228.489,142.112 227.219,141.832 225.689,141.022C221.869,138.992 219.929,137.962 219.859,137.932C215.529,135.802 211.569,135.892 207.959,138.182C203.309,141.122 202.009,148.182 195.379,146.592C192.519,145.902 190.919,145.532 190.579,145.482C183.609,144.302 181.649,149.532 180.219,154.972C178.979,159.682 176.269,161.592 171.579,161.082C171.089,161.032 170.649,160.782 170.349,160.392C158.769,145.342 152.709,127.472 155.579,108.692C157.019,99.292 159.889,90.332 164.199,81.812C171.409,67.532 180.769,53.812 192.259,40.652C198.809,33.152 204.359,26.902 211.769,19.812C218.569,13.302 223.189,8.622 225.639,5.772Z" style="fill:rgb(239,221,144);fill-rule:nonzero;"/>
            <path d="M264.379,153.432C266.929,149.962 269.159,146.882 271.059,144.202C281.099,130.092 285.609,113.282 281.799,96.422C281.679,95.902 281.879,95.372 282.309,95.052C292.189,87.762 303.319,84.382 315.339,81.982C330.309,79.002 344.749,80.012 360.799,81.162C364.179,81.402 367.769,81.102 371.859,80.742C372.209,80.712 372.499,81.032 372.419,81.382C371.399,86.002 370.839,89.852 371.139,94.522C371.419,98.852 371.669,103.582 371.879,108.702C372.419,121.752 371.249,134.432 368.369,146.742C366.369,155.292 362.789,163.142 357.619,170.292C357.289,170.752 356.689,170.932 356.159,170.752C339.579,165.162 323.229,165.582 307.109,172.012C300.719,174.562 294.929,177.442 289.759,180.652C289.449,180.842 289.039,180.652 288.989,180.292C288.249,175.402 284.309,173.352 279.479,170.552C273.049,166.812 276.769,154.482 264.639,153.962C264.369,153.952 264.219,153.642 264.379,153.432Z" style="fill:rgb(237,210,118);fill-rule:nonzero;"/>
            <path d="M150.439,206.202C150.519,206.612 150.129,206.952 149.729,206.812C141.709,203.972 133.149,202.272 124.049,201.722C108.039,200.752 93.229,204.492 79.598,212.942C79.299,213.132 78.908,213.122 78.609,212.922C71.429,208.072 65.868,203.292 61.939,198.592C48.098,182.052 40.549,160.842 37.719,139.272C36.938,133.372 36.349,128.202 35.949,123.762C35.419,117.942 34.129,113.392 31.939,107.602C31.739,107.082 32.118,106.522 32.678,106.522C37.619,106.492 41.319,106.252 46.579,104.562C72.739,96.162 100.849,90.962 127.689,98.592C135.229,100.732 142.829,105.312 150.479,112.322C150.779,112.602 150.939,112.992 150.929,113.402C150.609,122.372 151.139,129.402 152.519,134.502C155.199,144.392 159.769,153.532 166.219,161.912C166.499,162.272 166.429,162.782 166.059,163.052C160.239,167.362 162.109,173.852 161.959,179.922C161.929,181.012 161.249,181.972 160.239,182.362C157.229,183.522 154.439,184.382 152.339,185.972C148.319,189.022 146.799,193.082 147.769,198.152C148.289,200.842 149.939,203.752 150.439,206.202Z" style="fill:rgb(237,210,118);fill-rule:nonzero;"/>
            <path d="M252.059,155.952C252.279,156.192 252.309,156.552 252.129,156.812C248.609,162.072 244.159,168.192 240.869,174.632C237.119,181.962 233.759,189.492 230.789,197.232C230.689,197.502 230.379,197.612 230.129,197.472C221.459,192.382 212.629,193.992 203.559,197.732C197.869,200.072 193.239,203.872 189.669,209.122C189.449,209.442 188.969,209.432 188.769,209.102C186.539,205.422 184.309,201.962 182.099,198.712C177.759,192.342 172.529,187.012 166.399,182.722C166.149,182.542 165.989,182.262 165.979,181.952C165.689,174.192 163.549,166.272 172.469,165.162C177.439,164.542 181.519,163.702 183.259,158.402C183.939,156.312 184.769,153.992 185.759,151.422C187.099,147.912 191.119,149.492 194.139,150.282C200.749,152.002 203.199,148.982 207.369,143.992C212.969,137.302 218.349,142.542 223.679,145.082C230.759,148.442 235.729,141.902 241.769,144.022C244.429,144.962 246.109,146.702 247.599,149.532C248.849,151.912 250.339,154.052 252.059,155.952Z" style="fill:rgb(224,144,83);fill-rule:nonzero;"/>
            <path d="M244.269,237.712C244.459,236.452 245.569,234.512 246.059,232.802C249.889,219.332 242.919,209.082 234.179,199.782C233.949,199.532 233.869,199.182 233.969,198.862C237.269,187.872 242.199,179.872 249.479,166.852C251.559,163.132 253.339,160.282 254.819,158.312C255.039,158.022 255.409,157.882 255.759,157.962C257.409,158.332 259.648,158.392 262.499,158.142C272.049,157.312 270.119,165.692 274.409,171.282C277.009,174.682 281.099,175.752 283.549,178.702C286.949,182.802 282.479,187.712 282.609,191.912C282.809,197.872 286.799,200.162 290.039,203.952C294.559,209.222 289.439,213.652 287.349,217.192C284.359,222.232 285.959,225.392 287.659,230.752C289.729,237.312 282.189,238.422 279.209,242.482C278.849,242.962 278.169,243.062 277.689,242.692C268.339,235.472 255.679,234.872 244.849,238.212C244.529,238.312 244.209,238.042 244.269,237.712Z" style="fill:rgb(224,144,83);fill-rule:nonzero;"/>
            <path d="M432.289,229.022C427.359,233.812 424.359,236.762 423.289,237.892C415.769,245.862 408.559,254.772 402.429,260.562C386.869,275.282 368.299,284.432 346.999,284.822C346.399,284.832 345.859,284.482 345.619,283.932C334.699,258.342 309.849,249.662 284.809,243.682C284.389,243.582 284.289,243.022 284.649,242.782C286.879,241.312 289.789,239.782 290.979,237.772C292.369,235.402 292.709,232.792 291.989,229.942C291.259,227.032 288.939,223.332 291.059,219.442C291.119,219.332 292.199,217.582 294.289,214.172C299.379,205.912 292.929,200.742 287.399,195.162C285.859,193.602 287.889,188.742 288.689,187.162C288.869,186.812 289.149,186.502 289.479,186.272C303.379,176.762 320.849,169.522 337.849,171.332C355.429,173.202 373.839,181.442 390.589,189.922C400.739,195.062 408.029,201.472 416.449,210.372C421.649,215.862 426.509,222.242 432.289,227.792C432.639,228.122 432.639,228.682 432.289,229.022Z" style="fill:rgb(239,221,144);fill-rule:nonzero;"/>
            <path d="M187.169,238.462C178.039,239.332 171.959,246.122 167.249,253.202C166.929,253.682 166.309,253.832 165.809,253.552C162.759,251.822 164.259,247.972 164.779,244.212C165.579,238.422 161.249,236.492 156.049,234.002C149.269,230.752 147.569,225.792 150.959,219.102C153.559,213.952 155.979,209.982 154.189,205.042C151.979,198.932 148.809,194.202 154.349,189.722C155.789,188.552 158.669,187.132 162.979,185.452C163.389,185.292 163.859,185.342 164.219,185.592C174.249,192.402 180.129,201.202 186.389,211.692C186.569,211.992 186.599,212.362 186.469,212.682C183.079,221.192 183.449,229.522 187.599,237.682C187.769,238.022 187.549,238.432 187.169,238.462Z" style="fill:rgb(224,144,83);fill-rule:nonzero;"/>
            <path d="M220.489,216.192C223.249,212.102 224.769,207.522 222.389,203.192C220.179,199.162 215.619,199.712 212.879,202.982C210.339,206.012 209.939,209.412 211.669,213.192C213.159,216.462 216.269,218.272 219.549,216.952C219.929,216.802 220.259,216.532 220.489,216.192ZM213.959,231.732C213.839,231.522 213.879,229.092 213.499,228.112C213.209,227.362 212.969,225.832 212.799,223.502C212.389,217.992 207.679,210.942 201.399,214.552C200.999,214.782 200.649,215.102 200.389,215.482C197.279,219.962 200.329,223.962 203.709,227.072C204.019,227.362 204.169,227.782 204.109,228.202L201.599,244.272C201.539,244.672 201.069,244.852 200.759,244.592L192.869,238.032C192.699,237.902 192.559,237.742 192.439,237.552C187.239,229.822 187.599,222.232 190.839,213.822C190.969,213.482 191.139,213.162 191.349,212.852C197.029,204.482 204.999,199.722 215.269,198.572C222.459,197.762 229.149,199.962 233.829,205.152C238.289,210.092 242.489,215.922 242.839,222.592C243.559,236.422 236.569,247.252 223.019,250.672C222.669,250.762 222.349,250.452 222.429,250.102L227.779,227.342C227.839,227.072 228.039,226.842 228.299,226.742C231.769,225.352 235.069,223.052 235.149,219.192C235.179,217.442 234.499,215.932 233.089,214.682C229.019,211.042 225.359,213.762 221.069,217.062C220.789,217.272 220.569,217.542 220.419,217.862C219.439,219.902 219.189,222.702 217.809,224.672C216.999,225.822 215.979,228.152 214.729,231.662C214.609,232.002 214.139,232.042 213.959,231.732Z" style="fill:rgb(224,144,83);fill-rule:nonzero;"/>
            <path d="M217.193,203.942C215.429,203.912 213.959,206.042 213.909,208.706C213.859,211.372 215.259,213.552 217.025,213.581C218.789,213.612 220.259,211.482 220.308,208.817C220.359,206.152 218.959,203.972 217.193,203.942ZM219.549,216.952C216.269,218.272 213.159,216.462 211.669,213.192C209.939,209.412 210.339,206.012 212.879,202.982C215.619,199.712 220.179,199.162 222.389,203.192C224.769,207.522 223.249,212.102 220.489,216.192C220.259,216.532 219.929,216.802 219.549,216.952Z" style="fill:rgb(4,4,5);fill-rule:nonzero;"/>
            <path d="M217.193,203.942C218.959,203.972 220.359,206.152 220.308,208.817C220.259,211.482 218.789,213.612 217.025,213.581C215.259,213.552 213.859,211.372 213.909,208.706C213.959,206.042 215.429,203.912 217.193,203.942Z" style="fill:rgb(224,144,83);fill-rule:nonzero;"/>
            <path d="M149.829,212.002C149.599,212.562 148.789,214.142 147.409,216.752C142.849,225.382 145.019,232.942 153.699,237.152C155.369,237.962 157.229,238.972 159.289,240.202C161.979,241.812 160.069,247.692 159.939,249.702C159.409,257.872 166.889,258.492 173.039,259.362C174.649,259.582 175.909,260.862 176.119,262.482C176.939,268.942 176.959,271.502 180.349,276.252C180.449,276.392 180.469,276.562 180.409,276.722C170.899,301.572 149.849,319.672 123.819,325.192C121.109,325.762 118.449,325.952 115.819,325.752C106.059,325.002 96.829,322.862 88.139,319.332C77.498,315.022 71.939,312.772 71.449,312.602C59.838,308.302 50.339,309.432 35.818,310.192C30.069,310.492 23.459,310.082 18.179,307.722C17.589,307.462 17.329,306.762 17.599,306.182C26.148,287.612 35.579,270.232 45.889,254.042C47.818,251.012 51.878,245.642 58.069,237.932C68.758,224.602 86.419,211.222 103.379,207.592C112.729,205.582 121.719,205.212 130.328,206.472C136.769,207.422 143.049,208.802 149.179,210.622C149.759,210.802 150.069,211.442 149.829,212.002Z" style="fill:rgb(239,221,144);fill-rule:nonzero;"/>
            <path d="M222.949,223.082C222.699,223.002 222.569,222.742 222.659,222.492C223.779,219.492 225.679,217.562 228.369,216.692C229.609,216.302 230.899,216.922 231.259,218.072C231.489,218.802 231.369,219.542 230.909,220.292C229.109,223.232 226.459,224.162 222.949,223.082Z" style="fill:rgb(224,144,83);fill-rule:nonzero;"/>
            <path d="M209.059,224.082C205.769,224.122 203.729,222.642 202.929,219.662C202.729,218.892 202.809,218.232 203.189,217.662C203.799,216.762 205.069,216.562 206.029,217.212C208.119,218.642 209.259,220.782 209.459,223.652C209.469,223.882 209.289,224.082 209.059,224.082Z" style="fill:rgb(224,144,83);fill-rule:nonzero;"/>
            <path d="M215.949,251.502L214.589,251.142C213.949,250.972 213.569,250.302 213.749,249.662C215.199,244.542 216.699,238.952 218.249,232.902C218.799,230.732 220.189,226.942 222.989,227.352C223.429,227.412 223.719,227.842 223.599,228.272L217.769,250.432C217.559,251.232 216.739,251.712 215.949,251.502Z" style="fill:rgb(239,221,144);fill-rule:nonzero;"/>
            <path d="M207.369,249.392L205.469,247.812C205.019,247.442 204.799,246.862 204.889,246.292L207.519,229.412C207.709,228.202 209.369,228.022 209.809,229.162C210.399,230.672 210.639,232.442 210.539,234.462C210.249,240.372 209.729,245.162 208.979,248.822C208.829,249.562 207.949,249.872 207.369,249.392Z" style="fill:rgb(237,210,118);fill-rule:nonzero;"/>
            <path d="M171.389,254.692C170.939,254.662 170.699,254.132 170.979,253.762C174.729,248.782 180.939,242.902 187.249,241.892C189.399,241.552 190.709,241.392 192.359,242.802C196.009,245.912 198.049,247.652 198.479,248.022C211.569,258.852 230.819,257.532 240.609,243.152C240.849,242.802 241.199,242.542 241.599,242.422C253.789,238.902 266.729,239.072 277.529,246.472C277.719,246.602 277.859,246.812 277.899,247.032C278.729,251.262 277.639,254.402 274.639,256.452C273.459,257.262 270.949,257.942 267.119,258.482C264.759,258.822 262.449,260.012 260.189,262.042C255.539,266.212 256.449,277.582 246.649,275.002C242.689,273.962 236.489,270.012 231.379,273.552C229.529,274.832 227.619,276.572 225.649,278.762C224.379,280.172 222.599,280.992 220.309,281.242C212.569,282.062 208.199,276.592 202.149,273.912C198.699,272.382 194.809,273.482 190.229,274.362C185.669,275.232 182.239,273.312 180.989,268.742C179.849,264.532 181.359,258.412 175.779,255.752C174.549,255.162 173.089,254.812 171.389,254.692Z" style="fill:rgb(224,144,83);fill-rule:nonzero;"/>
            <path d="M356.819,382.232C356.659,383.152 355.819,383.802 354.889,383.732C349.999,383.382 346.259,383.102 343.669,382.892C336.619,382.322 331.879,382.822 324.879,383.452C308.429,384.932 293.579,380.032 278.349,373.962C268.159,369.892 259.069,365.052 251.059,359.422C241.569,352.752 234.459,345.552 229.719,337.832C220.379,322.612 219.819,305.212 219.779,286.802C219.779,286.302 220.149,285.882 220.639,285.812C225.839,285.082 228.219,282.272 232.449,278.082C235.919,274.652 241.419,277.902 244.579,278.872C251.009,280.852 255.719,279.002 258.689,273.332C260.409,270.042 260.909,263.842 266.929,262.922C273.059,261.992 278.559,261.172 281.129,255.002C281.969,252.962 281.999,250.022 282.069,247.912C282.089,247.502 282.459,247.212 282.859,247.302C298.989,250.802 316.759,257.072 329.139,267.862C334.239,272.312 338.559,278.312 342.109,285.872C347.949,298.322 351.879,310.482 353.889,322.352C354.589,326.502 355.349,332.302 356.179,339.772C357.389,350.642 358.029,356.472 358.089,357.262C358.699,365.442 358.279,373.762 356.819,382.232Z" style="fill:rgb(239,221,144);fill-rule:nonzero;"/>
            <path d="M215.319,285.442C215.709,285.532 215.979,285.892 215.949,286.302C214.739,298.732 215.759,311.142 219.009,323.542C223.039,338.952 232.579,351.382 245.119,360.432C245.449,360.672 245.609,361.092 245.509,361.482C242.159,375.252 232.189,385.162 221.009,394.712C215.519,399.382 207.999,403.822 202.389,407.512C201.979,407.782 195.579,411.702 183.179,419.272C177.589,422.682 173.039,426.162 168.239,429.732C167.789,430.062 167.149,429.872 166.969,429.352C165.689,425.692 164.469,422.472 163.319,419.692C158.719,408.572 150.129,400.072 143.079,390.662C129.679,372.782 124.449,352.532 127.399,329.902C127.499,329.172 128.029,328.572 128.739,328.382C142.749,324.662 154.999,317.662 165.489,307.372C173.959,299.062 179.249,290.102 184.139,279.362C184.319,278.972 184.729,278.742 185.149,278.792C188.219,279.182 191.659,278.872 195.459,277.882C198.199,277.172 200.609,277.482 202.689,278.812C207.709,282.032 210.719,284.382 215.319,285.442Z" style="fill:rgb(237,210,118);fill-rule:nonzero;"/>
            <path d="M98.329,327.202C98.459,327.242 98.529,327.372 98.509,327.502C98.489,327.632 98.369,327.722 98.239,327.722C76.559,326.932 55.269,322.822 34.368,315.402C33.759,315.182 33.289,314.892 32.979,314.542C32.829,314.372 32.949,314.112 33.169,314.112C42.128,314.052 55.178,312.652 65.459,315.042C69.229,315.922 74.479,317.812 81.199,320.722C86.878,323.182 92.589,325.342 98.329,327.202Z" style="fill:rgb(239,221,144);fill-rule:nonzero;"/>
            <path d="M171.919,758.222C171.929,758.322 171.859,758.402 171.759,758.422C171.659,758.442 171.569,758.382 171.539,758.292C165.189,738.312 157.029,720.662 147.839,699.912C144.009,691.262 135.639,677.622 128.179,664.342C126.369,661.112 124.559,658.172 122.749,655.512C115.019,644.142 106.609,631.982 97.499,619.052C86.829,603.882 78.439,591.522 72.329,581.952C68.689,576.252 62.928,566.552 55.049,552.862C52.459,548.372 49.979,543.472 47.599,538.172C44.698,531.722 41.068,525.052 38.209,518.283C26.378,490.262 17.719,462.442 12.248,434.822C11.898,433.032 10.529,425.522 8.158,412.282C6.468,402.862 5.418,395.292 5.008,389.582C4.518,382.612 4.368,374.402 4.568,364.952C4.578,364.522 4.648,364.172 4.788,363.892C4.908,363.652 5.238,363.612 5.418,363.812C13.919,373.412 20.109,381.892 27.099,393.402C30.769,399.442 35.519,405.932 39.789,412.792C50.959,430.772 59.789,444.842 66.258,455.012C85.999,486.042 103.679,516.713 118.829,549.232C125.219,562.962 129.729,573.102 132.349,579.652C137.659,592.932 142.819,604.772 146.859,616.912C151.929,632.132 155.549,643.222 157.719,650.172C161.139,661.182 162.469,668.922 165.799,683.462C166.909,688.272 167.929,693.782 168.869,699.992C170.109,708.132 170.209,717.992 170.859,724.912C171.239,729.022 171.419,734.572 171.399,741.562C171.389,745.222 171.559,750.772 171.919,758.222Z" style="fill:rgb(153,171,119);fill-rule:nonzero;"/>
            <path d="M404.009,377.132C403.439,387.572 400.509,398.582 396.899,407.762C393.039,417.572 390.009,425.252 387.799,430.812C383.329,442.062 377.829,452.502 372.279,463.872C370.289,467.952 368.059,472.282 365.599,476.852C356.609,493.592 346.709,510.062 335.879,526.262C332.779,530.912 323.819,543.192 308.989,563.112C303.939,569.902 292.819,585.022 275.609,608.492C264.169,624.082 253.909,639.462 244.639,653.262C238.169,662.882 234.559,670.302 226.579,684.722C222.469,692.142 219.129,698.832 216.559,704.802C211.669,716.102 208.329,724.062 206.539,728.672C202.949,737.922 199.519,748.992 196.249,761.882C195.929,763.142 194.839,764.072 193.549,764.182L178.499,765.482C177.779,765.542 177.189,764.922 177.289,764.202C178.079,758.842 179.089,751.832 180.319,743.172C181.109,737.562 182.479,730.622 184.419,722.362C185.429,718.072 186.959,711.082 188.999,701.402C189.849,697.342 192.709,687.562 197.559,672.052C199.819,664.822 202.239,655.362 205.049,648.162C206.979,643.202 211.469,632.172 218.509,615.072C220.839,609.412 223.529,603.592 226.569,597.602C230.499,589.852 233.769,581.772 237.739,574.462C245.889,559.462 252.179,548.382 256.599,541.222C266.819,524.682 278.399,508.432 291.349,492.482C302.659,478.542 315.429,463.222 329.659,446.522C338.419,436.242 347.439,427.062 356.349,417.232C362.379,410.582 372.929,401.302 381.499,393.072C388.039,386.802 395.309,381.352 403.319,376.712C403.639,376.532 404.029,376.772 404.009,377.132Z" style="fill:rgb(153,171,119);fill-rule:nonzero;"/>
            <path d="M176.219,740.542C176.029,740.792 175.629,740.662 175.619,740.342C175.299,726.632 174.669,713.502 173.739,700.932C172.959,690.412 172.459,682.412 172.229,676.942C171.639,662.752 171.279,654.742 171.159,652.932C170.869,648.712 170.129,644.162 170.039,639.952C169.789,628.372 169.489,617.602 169.149,607.632C168.139,578.322 168.489,550.132 169.409,522.702C170.179,499.602 170.599,486.682 170.679,483.952C171.179,466.322 172.439,449.972 172.959,432.942C172.999,431.732 173.579,430.772 174.689,430.072C178.399,427.732 183.089,424.712 188.759,421.012C188.939,420.892 189.179,421.032 189.159,421.252C188.699,425.422 187.959,433.182 186.929,444.542C186.009,454.632 185.389,462.402 185.069,467.872C182.429,512.842 181.849,557.512 183.329,601.862C183.729,613.792 185.109,623.542 185.479,636.142C185.889,650.192 187.129,665.492 189.189,682.042C189.359,683.342 189.259,684.662 188.909,685.922C185.269,699.232 183.439,705.932 183.419,706.022C180.419,717.752 178.149,728.892 176.619,739.462C176.549,739.922 176.419,740.282 176.219,740.542Z" style="fill:rgb(153,171,119);fill-rule:nonzero;"/>
        </g>
    </g>
</svg>
