<?xml version="1.0" encoding="UTF-8" ?>
<!DOCTYPE svg PUBLIC "-//W3C//DTD SVG 1.1//EN" "http://www.w3.org/Graphics/SVG/1.1/DTD/svg11.dtd">
<svg width="762pt" height="603pt" viewBox="0 0 762 603" version="1.1" xmlns="http://www.w3.org/2000/svg">
<path fill="#000000" opacity="1.00" d=" M 410.68 54.67 C 422.58 21.31 463.28 4.52 495.88 16.18 C 537.00 33.64 578.24 50.83 619.10 68.90 C 651.13 83.66 664.61 126.22 649.38 157.47 C 643.50 174.48 633.44 190.22 629.10 207.58 C 643.35 214.14 658.29 219.26 672.15 226.72 C 665.63 238.30 662.20 251.34 656.03 263.11 C 653.91 262.49 651.79 261.88 649.67 261.30 C 660.60 292.59 663.52 325.80 662.22 358.77 C 695.04 367.42 727.17 378.62 758.26 392.23 C 715.66 412.17 671.43 428.65 627.04 444.00 C 587.18 489.70 527.55 511.75 469.11 521.09 C 404.99 530.19 338.51 528.41 276.19 509.81 C 237.48 498.12 200.13 478.51 172.68 448.33 C 148.21 421.00 135.39 385.16 132.70 348.93 C 112.38 362.23 93.47 377.72 73.31 391.29 C 62.94 376.69 51.94 362.55 41.75 347.83 C 64.29 335.89 86.36 323.07 109.07 311.47 C 76.04 311.23 43.18 316.75 10.08 317.03 C 10.55 298.68 8.49 280.38 9.21 262.03 C 41.32 264.80 73.38 269.93 105.24 274.90 C 77.99 257.18 48.31 242.66 21.42 224.63 C 27.97 210.66 36.84 195.85 43.12 181.03 C 43.69 178.13 46.78 179.02 48.28 180.64 C 81.05 208.94 114.19 236.82 146.91 265.17 C 149.07 267.41 150.64 264.07 151.28 262.28 C 156.25 249.17 164.49 237.77 171.97 226.04 C 148.38 204.07 148.37 164.15 174.04 143.85 C 158.60 109.31 163.99 65.34 191.29 38.24 C 192.84 36.52 196.18 34.78 196.77 38.23 C 208.25 70.27 233.01 94.96 256.87 118.20 C 252.18 89.56 260.55 58.89 281.29 38.24 C 282.84 36.52 286.18 34.78 286.77 38.23 C 296.22 65.32 315.99 86.86 335.35 107.33 C 339.97 101.23 341.47 93.49 345.19 86.88 C 359.87 92.38 373.76 101.39 389.48 102.92 C 397.69 87.47 403.01 70.46 410.68 54.67 M 433.40 57.24 L 432.73 57.39 C 429.35 65.61 425.56 73.66 422.40 81.97 C 418.50 91.48 413.75 100.71 410.99 110.62 C 477.50 138.18 543.49 167.04 609.88 194.88 C 613.74 186.01 617.81 177.22 621.15 168.13 C 624.96 160.18 627.99 151.87 632.07 144.05 L 631.81 143.30 C 640.16 121.27 626.93 93.97 604.87 86.15 C 568.49 69.89 531.42 55.20 495.00 39.04 C 473.66 27.42 445.04 35.91 433.40 57.24 M 189.78 122.24 C 207.07 172.65 248.44 209.74 289.07 241.96 C 245.78 230.23 206.90 202.90 181.70 165.71 C 163.96 181.56 176.74 207.45 191.94 220.06 C 228.35 252.07 273.73 270.78 318.05 288.98 C 274.77 287.29 230.56 275.51 194.97 250.07 C 190.58 283.10 212.92 314.78 243.65 325.35 C 271.25 337.43 301.79 339.35 331.50 340.89 C 289.25 345.35 241.08 347.08 204.56 321.45 C 185.74 307.31 176.73 283.91 174.46 261.14 C 155.68 298.11 147.08 341.63 160.04 381.98 C 171.07 424.36 205.58 456.53 244.10 474.90 C 315.41 507.87 397.18 510.71 473.74 498.78 C 512.98 492.22 551.85 478.89 584.11 455.06 C 571.80 456.29 559.16 456.84 547.18 453.29 C 528.63 449.50 511.10 436.20 508.02 416.65 C 506.33 388.29 523.97 357.76 552.82 350.86 C 581.78 343.66 612.13 348.12 640.94 354.04 C 641.30 339.03 641.06 324.01 639.85 309.05 C 638.39 309.04 635.48 309.02 634.02 309.01 C 634.01 318.01 633.99 327.01 633.90 336.02 C 625.83 336.14 617.76 335.80 609.73 335.18 C 609.94 326.71 611.03 317.71 609.39 309.66 C 600.96 307.45 590.94 309.68 582.02 309.04 C 576.67 309.01 571.34 308.99 566.01 308.98 C 565.96 300.99 565.96 293.00 566.01 285.02 C 588.70 284.82 611.41 285.30 634.11 284.79 C 631.37 272.70 628.17 259.78 621.70 249.25 C 545.74 215.99 468.89 184.61 393.00 151.16 L 392.21 151.36 C 384.13 148.25 376.39 143.71 368.23 141.25 C 364.78 139.43 361.22 137.73 357.42 136.82 L 358.25 136.67 C 354.21 135.45 350.52 132.21 346.22 132.39 C 329.06 137.91 311.41 143.10 295.66 152.02 C 302.02 158.44 308.85 164.40 315.82 170.16 C 318.99 173.91 322.78 177.06 326.64 180.07 C 331.00 184.56 335.44 188.95 339.84 193.40 L 340.71 193.33 L 339.86 193.39 C 375.42 229.01 405.68 275.81 403.46 328.04 C 395.66 268.72 349.76 224.45 305.95 188.05 C 266.37 152.13 213.81 125.30 190.87 74.76 C 183.22 89.42 186.05 106.89 189.78 122.24 M 283.37 133.00 C 294.03 130.05 303.30 123.50 314.12 120.93 C 301.24 107.00 287.21 93.09 280.87 74.76 C 271.76 93.01 276.99 114.75 283.37 133.00 M 563.12 365.00 C 542.48 367.72 525.71 386.01 524.71 406.74 C 519.72 429.15 547.18 439.32 565.03 440.01 C 610.02 436.92 651.75 417.92 693.50 402.37 C 681.14 403.95 668.58 403.82 656.34 406.34 C 627.24 409.87 593.83 406.11 568.09 422.12 C 565.29 422.22 562.41 422.10 559.67 421.72 C 560.31 408.72 575.92 404.93 586.01 402.03 C 628.02 392.60 671.34 393.60 714.10 391.44 C 665.49 375.84 614.95 357.70 563.12 365.00 Z" />
<path fill="#ed7c31" opacity="1.00" d=" M 433.40 57.24 C 445.04 35.91 473.66 27.42 495.00 39.04 C 531.42 55.20 568.49 69.89 604.87 86.15 C 626.93 93.97 640.16 121.27 631.81 143.30 C 629.44 135.72 625.72 128.65 621.27 122.10 C 625.61 116.80 623.48 109.88 618.20 105.84 C 605.38 95.99 588.23 87.88 571.82 93.00 C 541.94 80.26 512.11 67.40 482.14 54.87 C 466.27 47.88 448.95 51.49 433.40 57.24 Z" />
<path fill="#d6562b" opacity="1.00" d=" M 433.40 57.24 C 448.95 51.49 466.27 47.88 482.14 54.87 C 512.11 67.40 541.94 80.26 571.82 93.00 C 570.90 97.02 569.64 101.65 573.12 104.83 C 585.08 117.67 603.72 125.39 621.27 122.10 C 625.72 128.65 629.44 135.72 631.81 143.30 L 632.07 144.05 C 627.99 151.87 624.96 160.18 621.15 168.13 C 555.32 138.58 487.42 112.89 422.40 81.97 C 425.56 73.66 429.35 65.61 432.73 57.39 L 433.40 57.24 Z" />
<path fill="#c7b29e" opacity="1.00" d=" M 189.78 122.24 C 186.05 106.89 183.22 89.42 190.87 74.76 C 213.81 125.30 266.37 152.13 305.95 188.05 C 349.76 224.45 395.66 268.72 403.46 328.04 C 405.68 275.81 375.42 229.01 339.86 193.39 L 340.71 193.33 C 351.20 192.16 370.58 190.60 369.86 176.02 C 356.51 168.79 338.47 170.30 326.64 180.07 C 322.78 177.06 318.99 173.91 315.82 170.16 C 340.28 160.26 366.47 156.32 392.21 151.36 L 393.00 151.16 C 468.89 184.61 545.74 215.99 621.70 249.25 C 628.17 259.78 631.37 272.70 634.11 284.79 C 611.41 285.30 588.70 284.82 566.01 285.02 C 565.96 293.00 565.96 300.99 566.01 308.98 C 571.34 308.99 576.67 309.01 582.02 309.04 C 581.98 317.67 582.00 326.31 582.08 334.96 C 591.29 334.99 600.51 334.87 609.73 335.18 C 617.76 335.80 625.83 336.14 633.90 336.02 C 633.99 327.01 634.01 318.01 634.02 309.01 C 635.48 309.02 638.39 309.04 639.85 309.05 C 641.06 324.01 641.30 339.03 640.94 354.04 C 612.13 348.12 581.78 343.66 552.82 350.86 C 523.97 357.76 506.33 388.29 508.02 416.65 C 511.10 436.20 528.63 449.50 547.18 453.29 C 528.63 465.32 505.75 469.34 484.30 473.46 C 449.19 480.41 423.57 447.32 390.43 443.06 C 373.26 440.34 360.30 455.88 343.34 454.59 C 323.79 453.00 309.33 435.55 289.52 435.35 C 281.80 437.28 274.70 442.88 266.21 440.46 C 255.57 434.55 248.83 423.91 239.58 416.28 C 229.47 408.53 216.56 416.79 205.48 415.83 C 188.33 407.63 173.72 395.02 160.04 381.98 C 147.08 341.63 155.68 298.11 174.46 261.14 C 176.73 283.91 185.74 307.31 204.56 321.45 C 241.08 347.08 289.25 345.35 331.50 340.89 C 301.79 339.35 271.25 337.43 243.65 325.35 C 212.92 314.78 190.58 283.10 194.97 250.07 C 230.56 275.51 274.77 287.29 318.05 288.98 C 273.73 270.78 228.35 252.07 191.94 220.06 C 176.74 207.45 163.96 181.56 181.70 165.71 C 206.90 202.90 245.78 230.23 289.07 241.96 C 248.44 209.74 207.07 172.65 189.78 122.24 M 363.91 192.50 C 359.69 193.16 353.55 195.52 356.33 201.29 C 364.60 207.48 377.49 207.63 385.55 201.22 C 388.71 189.58 370.58 192.09 363.91 192.50 M 455.01 288.01 C 454.96 296.00 454.96 303.99 455.01 311.99 C 456.76 311.99 460.26 312.00 462.01 312.01 C 461.96 320.66 461.96 329.32 462.01 337.98 C 474.01 338.04 486.00 338.03 498.01 337.98 L 498.00 338.98 C 506.00 339.05 513.98 339.03 521.99 338.98 C 521.99 330.00 522.00 321.02 522.01 312.04 C 525.04 312.03 527.91 311.94 530.99 311.96 C 531.03 303.98 531.02 296.00 530.99 288.02 C 505.66 287.97 480.34 287.99 455.01 288.01 Z" />
<path fill="#c7b29e" opacity="1.00" d=" M 283.37 133.00 C 276.99 114.75 271.76 93.01 280.87 74.76 C 287.21 93.09 301.24 107.00 314.12 120.93 C 303.30 123.50 294.03 130.05 283.37 133.00 Z" />
<path fill="#b55232" opacity="1.00" d=" M 410.99 110.62 C 413.75 100.71 418.50 91.48 422.40 81.97 C 487.42 112.89 555.32 138.58 621.15 168.13 C 617.81 177.22 613.74 186.01 609.88 194.88 C 543.49 167.04 477.50 138.18 410.99 110.62 Z" />
<path fill="#ffffff" opacity="1.00" d=" M 571.82 93.00 C 588.23 87.88 605.38 95.99 618.20 105.84 C 623.48 109.88 625.61 116.80 621.27 122.10 C 603.72 125.39 585.08 117.67 573.12 104.83 C 569.64 101.65 570.90 97.02 571.82 93.00 Z" />
<path fill="#e5d3bd" opacity="1.00" d=" M 295.66 152.02 C 311.41 143.10 329.06 137.91 346.22 132.39 C 350.52 132.21 354.21 135.45 358.25 136.67 L 357.42 136.82 C 337.70 140.24 317.44 145.21 299.77 154.87 C 322.32 148.99 345.28 145.20 368.23 141.25 C 376.39 143.71 384.13 148.25 392.21 151.36 C 366.47 156.32 340.28 160.26 315.82 170.16 C 308.85 164.40 302.02 158.44 295.66 152.02 Z" />
<path fill="#ffffff" opacity="1.00" d=" M 299.77 154.87 C 317.44 145.21 337.70 140.24 357.42 136.82 C 361.22 137.73 364.78 139.43 368.23 141.25 C 345.28 145.20 322.32 148.99 299.77 154.87 Z" />
<path fill="#937963" opacity="1.00" d=" M 326.64 180.07 C 338.47 170.30 356.51 168.79 369.86 176.02 C 370.58 190.60 351.20 192.16 340.71 193.33 L 339.84 193.40 C 335.44 188.95 331.00 184.56 326.64 180.07 Z" />
<path fill="#937963" opacity="1.00" d=" M 363.91 192.50 C 370.58 192.09 388.71 189.58 385.55 201.22 C 377.49 207.63 364.60 207.48 356.33 201.29 C 353.55 195.52 359.69 193.16 363.91 192.50 Z" />
<path fill="#000000" opacity="1.00" d=" M 455.01 288.01 C 480.34 287.99 505.66 287.97 530.99 288.02 C 531.02 296.00 531.03 303.98 530.99 311.96 C 527.91 311.94 525.04 312.03 522.01 312.04 C 522.00 321.02 521.99 330.00 521.99 338.98 C 513.98 339.03 506.00 339.05 498.00 338.98 L 498.01 337.98 C 498.01 329.33 498.00 320.67 497.98 312.03 C 485.99 311.97 474.00 311.98 462.01 312.01 C 460.26 312.00 456.76 311.99 455.01 311.99 C 454.96 303.99 454.96 296.00 455.01 288.01 Z" />
<path fill="#ffffff" opacity="1.00" d=" M 582.02 309.04 C 590.94 309.68 600.96 307.45 609.39 309.66 C 611.03 317.71 609.94 326.71 609.73 335.18 C 600.51 334.87 591.29 334.99 582.08 334.96 C 582.00 326.31 581.98 317.67 582.02 309.04 Z" />
<path fill="#ffffff" opacity="1.00" d=" M 462.01 312.01 C 474.00 311.98 485.99 311.97 497.98 312.03 C 498.00 320.67 498.01 329.33 498.01 337.98 C 486.00 338.03 474.01 338.04 462.01 337.98 C 461.96 329.32 461.96 320.66 462.01 312.01 Z" />
<path fill="#faaf40" opacity="1.00" d=" M 563.12 365.00 C 614.95 357.70 665.49 375.84 714.10 391.44 C 671.34 393.60 628.02 392.60 586.01 402.03 C 575.92 404.93 560.31 408.72 559.67 421.72 C 546.85 419.88 534.74 415.00 524.71 406.74 C 525.71 386.01 542.48 367.72 563.12 365.00 M 558.02 378.88 C 567.53 389.19 586.29 386.66 598.22 380.63 C 593.47 366.92 565.31 367.93 558.02 378.88 Z" />
<path fill="#ffffff" opacity="1.00" d=" M 558.02 378.88 C 565.31 367.93 593.47 366.92 598.22 380.63 C 586.29 386.66 567.53 389.19 558.02 378.88 Z" />
<path fill="#937963" opacity="1.00" d=" M 160.04 381.98 C 173.72 395.02 188.33 407.63 205.48 415.83 C 216.56 416.79 229.47 408.53 239.58 416.28 C 248.83 423.91 255.57 434.55 266.21 440.46 C 274.70 442.88 281.80 437.28 289.52 435.35 C 309.33 435.55 323.79 453.00 343.34 454.59 C 360.30 455.88 373.26 440.34 390.43 443.06 C 423.57 447.32 449.19 480.41 484.30 473.46 C 505.75 469.34 528.63 465.32 547.18 453.29 C 559.16 456.84 571.80 456.29 584.11 455.06 C 551.85 478.89 512.98 492.22 473.74 498.78 C 397.18 510.71 315.41 507.87 244.10 474.90 C 205.58 456.53 171.07 424.36 160.04 381.98 Z" />
<path fill="#f6921e" opacity="1.00" d=" M 656.34 406.34 C 668.58 403.82 681.14 403.95 693.50 402.37 C 651.75 417.92 610.02 436.92 565.03 440.01 C 547.18 439.32 519.72 429.15 524.71 406.74 C 534.74 415.00 546.85 419.88 559.67 421.72 C 562.41 422.10 565.29 422.22 568.09 422.12 C 598.09 421.25 627.32 413.28 656.34 406.34 Z" />
<path fill="#faaf40" opacity="1.00" d=" M 568.09 422.12 C 593.83 406.11 627.24 409.87 656.34 406.34 C 627.32 413.28 598.09 421.25 568.09 422.12 Z" />
</svg>
