<?xml version="1.0" encoding="UTF-8" standalone="no"?>
<!DOCTYPE svg PUBLIC "-//W3C//DTD SVG 1.1//EN" "http://www.w3.org/Graphics/SVG/1.1/DTD/svg11.dtd">
<svg width="100%" height="100%" viewBox="0 0 1366 2016" version="1.1" xmlns="http://www.w3.org/2000/svg" xmlns:xlink="http://www.w3.org/1999/xlink" xml:space="preserve" xmlns:serif="http://www.serif.com/" style="fill-rule:evenodd;clip-rule:evenodd;stroke-linejoin:round;stroke-miterlimit:2;">
    <g transform="matrix(0.64,0,0,0.64,0,0)">
        <g transform="matrix(4.16667,0,0,4.16667,0,0)">
            <path d="M510.439,455.068C509.239,455.258 507.969,455.628 506.629,456.168C503.539,457.418 498.969,459.268 492.939,461.718C490.129,462.868 487.319,463.658 484.489,464.098C484.309,464.128 484.119,464.098 483.959,464.028C483.669,463.918 483.469,463.788 483.359,463.648C483.069,463.288 483.189,462.738 483.619,462.488C491.159,457.998 497.469,453.298 500.919,444.988C501.259,444.178 500.839,443.248 499.999,442.978C499.509,442.818 498.729,442.778 497.679,442.848C482.259,443.888 467.209,444.528 451.889,442.558C437.399,440.688 426.079,436.438 413.149,429.588C413.099,429.558 413.039,429.548 412.979,429.538C412.819,429.518 412.709,429.518 412.649,429.528C412.299,429.618 412.159,430.048 412.399,430.328C419.649,438.888 426.119,447.648 431.819,456.598C436.239,463.548 440.119,472.758 430.539,477.118C424.539,479.858 418.199,480.358 411.519,478.618C411.349,478.578 411.179,478.658 411.109,478.818C411.039,478.968 411.099,479.158 411.239,479.248C417.749,483.388 423.889,487.798 429.659,492.468C436.859,498.318 447.649,506.748 438.109,515.989C433.639,520.318 426.549,522.248 420.179,523.169C415.029,523.908 408.529,524.039 400.689,523.568C400.579,523.558 399.449,523.468 397.319,523.299C397.029,523.278 396.879,523.628 397.089,523.828C400.559,527.008 405.319,531.408 406.819,535.838C410.619,547.078 398.039,554.778 388.789,557.598C381.969,559.668 374.349,560.968 365.929,561.478C350.699,562.408 335.289,561.538 319.709,558.868C278.839,551.858 239.299,534.698 208.089,507.518C197.999,498.728 188.859,488.818 180.649,477.778C169.359,462.608 161.779,445.678 157.889,427.008C155.159,413.918 155.839,400.768 159.909,387.568C160.219,386.558 160.989,385.748 161.989,385.388L162.329,385.268C163.009,385.018 163.679,385.638 163.509,386.338C159.299,403.258 159.729,419.858 164.779,436.138C171.839,458.898 186.399,480.088 203.389,496.508C236.309,528.318 278.849,547.638 324.089,554.558C339.949,556.988 356.059,557.468 372.419,555.998C379.789,555.328 386.899,553.478 393.749,550.428C398.749,548.198 405.269,542.738 402.349,536.618C401.289,534.388 400.019,532.638 398.529,531.348C394.879,528.198 389.869,524.348 385.029,521.588C383.279,520.588 381.849,519.638 380.759,518.739C380.019,518.128 379.859,517.098 380.399,516.419C380.769,515.948 381.359,515.808 382.169,515.989C393.079,518.448 403.169,519.598 412.419,519.428C419.909,519.299 426.579,517.658 432.429,514.489C441.919,509.368 435.329,502.748 430.169,498.478C423.609,493.058 418.189,488.738 411.599,484.518C404.739,480.128 397.869,475.688 390.999,471.198C387.659,469.008 384.779,466.848 382.369,464.718C381.929,464.318 381.899,463.638 382.319,463.218L382.529,462.998C383.169,462.358 384.179,462.248 384.949,462.738C396.209,469.868 408.299,475.278 421.659,475.028C426.749,474.938 433.659,472.248 431.519,465.708C430.639,463.038 428.879,459.678 426.239,455.638C421.669,448.618 415.979,440.988 409.189,432.748C396.479,417.328 382.809,402.698 368.159,388.868C352.999,374.548 339.699,362.988 322.979,352.188C298.609,336.438 272.339,327.618 244.189,325.728C234.629,325.078 221.439,325.468 211.179,324.978C197.939,324.348 186.189,319.708 181.029,306.618C178.109,299.218 176.989,290.568 177.679,280.678C178.529,268.458 180.809,254.908 184.519,240.018C186.889,230.488 189.919,218.688 193.599,204.628C197.629,189.198 200.949,171.718 203.209,155.968C205.879,137.318 206.469,118.528 204.999,99.609C203.949,86.199 201.379,73.209 197.289,60.619C184.449,21.179 150.579,-9.031 106.599,2.649C99.268,4.599 92.338,7.979 85.788,12.808C78.138,18.459 71.808,25.149 66.798,32.879C70.048,32.729 73.178,32.558 76.188,32.379C81.628,32.068 82.848,39.199 82.508,43.469C81.748,53.149 80.228,60.229 84.068,67.209C86.268,71.209 91.148,74.409 93.868,76.548C95.038,77.469 95.908,78.459 96.458,79.508C97.028,80.599 96.868,81.919 96.058,82.849C95.148,83.879 93.928,84.739 92.388,85.409C86.478,87.989 80.878,90.808 75.578,93.869C76.378,93.769 77.358,94.009 78.528,94.578C87.888,99.189 96.868,102.378 105.479,104.148C107.199,104.498 111.119,105.338 117.249,106.668C124.809,108.298 129.438,112.998 131.129,120.748C134.469,136.008 131.909,153.988 128.069,169.358C117.869,210.238 97.708,247.708 77.718,284.738C59.658,318.198 42.118,352.548 34.938,390.198C33.058,400.078 32.098,410.758 32.048,422.238C31.938,451.138 39.718,476.518 55.398,498.388C74.188,524.588 102.189,542.458 130.139,557.488C139.829,562.698 149.319,567.718 158.609,572.548C166.459,576.628 178.059,583.028 193.419,591.738C206.509,599.158 216.149,604.428 222.319,607.538C222.529,607.648 222.789,607.588 222.929,607.388C223.069,607.198 223.059,606.938 222.889,606.768L203.399,586.918C202.899,586.398 203.149,585.528 203.849,585.358L203.869,585.348C205.069,585.078 206.329,585.398 207.249,586.208C214.659,592.698 220.789,598.638 225.619,604.028C239.279,619.268 249.139,630.748 263.159,641.018C281.059,654.128 304.969,653.878 321.029,637.818C325.759,633.088 329.659,628.658 332.729,624.518C343.539,609.968 351.089,600.178 355.379,595.148C355.829,594.618 356.339,594.418 356.909,594.548C357.669,594.718 358.059,595.598 357.709,596.368C354.629,603.268 348.999,609.818 344.919,616.288C344.659,616.698 345.039,617.218 345.509,617.098C360.969,613.298 375.499,607.308 389.109,599.128C403.299,590.608 415.459,578.938 425.589,564.108C427.489,561.338 431.779,554.628 438.469,543.988C447.239,530.048 458.199,519.539 471.079,508.858C480.889,500.728 489.569,492.008 497.129,482.678C502.649,475.888 506.929,468.828 509.969,461.508C510.789,459.538 511.199,457.608 511.199,455.718C511.209,455.308 510.839,454.998 510.439,455.068Z" style="fill:rgb(248,216,213);fill-rule:nonzero;"/>
            <path d="M129.529,37.628C129.529,42.019 125.969,45.579 121.579,45.579C117.189,45.579 113.629,42.019 113.629,37.628C113.629,33.239 117.189,29.679 121.579,29.679C125.969,29.679 129.529,33.239 129.529,37.628Z" style="fill:rgb(7,6,6);fill-rule:nonzero;"/>
            <path d="M75.578,93.869C73.698,93.619 71.948,93.479 70.318,93.429C67.068,93.329 65.308,93.268 65.048,93.249C49.118,92.109 32.728,91.489 15.868,91.379C12.258,91.349 3.098,90.389 0.948,87.019C-2.281,81.949 3.418,78.059 7.808,75.829C8.328,75.569 12.278,73.759 19.668,70.388C31.058,65.199 41.018,58.689 49.558,50.849C54.468,46.339 60.208,40.349 66.798,32.879C70.048,32.729 73.178,32.559 76.188,32.378C81.628,32.069 82.848,39.199 82.508,43.469C81.748,53.149 80.228,60.229 84.068,67.209C86.268,71.209 91.148,74.409 93.868,76.549C95.038,77.469 95.908,78.459 96.458,79.508C97.028,80.599 96.868,81.919 96.058,82.849C95.148,83.879 93.928,84.739 92.388,85.409C86.478,87.989 80.878,90.809 75.578,93.869Z" style="fill:rgb(232,160,143);fill-rule:nonzero;"/>
            <path d="M150.739,573.408C156.589,576.498 159.729,578.158 160.139,578.388C184.139,591.758 201.729,601.428 212.919,607.418C219.229,610.798 224.269,613.358 228.019,615.108C228.439,615.308 228.519,615.878 228.169,616.188C223.019,620.668 217.969,623.868 210.849,625.108C203.309,626.418 195.739,625.598 188.129,622.648C179.439,619.288 173.699,612.568 169.029,604.838C168.099,603.298 164.959,597.628 159.589,587.818C157.979,584.888 154.949,580.178 150.489,573.698C150.369,573.528 150.559,573.308 150.739,573.408Z" style="fill:rgb(248,216,213);fill-rule:nonzero;"/>
            <path d="M112.989,697.308C115.759,694.218 124.019,691.898 128.539,690.828C135.909,689.088 145.889,687.238 158.479,685.268C162.459,684.648 166.919,683.668 171.859,682.318C182.919,679.298 189.269,674.628 190.309,662.588C191.299,651.148 190.929,639.458 189.199,627.508C189.149,627.158 189.499,626.878 189.829,627.008C196.879,629.718 204.089,630.258 211.449,628.628C211.819,628.548 212.169,628.828 212.159,629.208C211.849,638.298 211.989,646.088 212.579,652.558C213.359,661.048 215.599,671.058 219.309,682.568C220.249,685.498 219.989,688.648 218.519,692.028C212.629,705.638 201.239,717.318 188.479,724.728C187.509,725.288 186.339,725.348 185.319,724.888C176.669,720.948 167.449,718.768 157.679,718.358C148.969,717.988 142.269,717.738 137.569,717.628C135.139,717.578 133.649,716.478 133.089,714.348C131.599,708.678 130.589,704.338 124.709,701.658C121.219,700.068 117.379,698.828 113.199,697.958C112.909,697.898 112.789,697.538 112.989,697.308Z" style="fill:rgb(232,160,143);fill-rule:nonzero;"/>
            <path d="M283.739,654.528C283.659,654.188 283.949,653.868 284.299,653.928C292.689,655.368 300.649,654.338 308.199,650.828C308.739,650.578 309.339,651.018 309.269,651.608C307.959,663.038 308.139,674.468 309.799,685.898C310.109,688.018 311.289,695.228 313.339,707.518C313.849,710.618 313.889,714.198 313.439,718.248C311.739,733.618 300.939,747.378 287.959,755.378C286.859,756.058 285.509,756.188 284.299,755.728C268.919,749.908 252.899,747.528 236.229,748.588C234.719,748.688 233.229,748.628 231.749,748.408C230.929,748.288 230.249,747.718 229.969,746.928C229.279,744.958 228.649,742.908 228.059,740.778C225.399,731.098 217.089,728.058 208.049,726.478C207.569,726.388 207.369,725.828 207.669,725.458C207.979,725.068 208.409,724.748 208.959,724.478C213.409,722.258 219.089,720.278 225.999,718.538C232.389,716.928 242.209,714.758 255.479,712.028C261.368,710.818 266.449,709.408 270.739,707.798C281.709,703.658 286.289,695.318 286.769,683.948C287.179,674.338 286.169,664.538 283.739,654.528Z" style="fill:rgb(232,160,143);fill-rule:nonzero;"/>
        </g>
    </g>
</svg>
