<?xml version="1.0" encoding="UTF-8" standalone="no"?>
<!DOCTYPE svg PUBLIC "-//W3C//DTD SVG 1.1//EN" "http://www.w3.org/Graphics/SVG/1.1/DTD/svg11.dtd">
<svg width="100%" height="100%" viewBox="0 0 1614 1280" version="1.1" xmlns="http://www.w3.org/2000/svg" xmlns:xlink="http://www.w3.org/1999/xlink" xml:space="preserve" xmlns:serif="http://www.serif.com/" style="fill-rule:evenodd;clip-rule:evenodd;stroke-linejoin:round;stroke-miterlimit:2;">
    <g transform="matrix(0.64,0,0,0.64,0,0)">
        <g transform="matrix(4.16667,0,0,4.16667,0,0)">
            <path d="M161.65,23.686C158.711,26.316 154.991,30.286 150.501,35.576C142.201,45.356 139.341,48.426 131.601,56.916C123.761,65.506 116.171,74.996 108.871,82.996C98.01,94.906 89.46,104.686 83.23,112.356C81.5,114.486 79.96,117.456 78.61,121.286C73.44,135.956 68.54,149.456 63.91,161.776C59.11,174.566 55.63,186.586 50.94,198.796C47.49,207.786 45.16,214.046 43.97,217.576C39.17,231.786 36.35,239.906 35.52,241.916C32.04,250.386 29.26,258.006 27.17,264.776C25.54,270.066 24.11,274.226 22.88,277.266C21.46,280.796 18.18,280.546 14.31,280.366C11.12,280.216 8.29,280.006 5.84,279.716C-1.259,278.896 -0.399,272.276 0.83,267.196C2.41,260.656 3.9,255.506 5.31,251.756C6.4,248.826 11.93,234.046 21.9,207.416C25.39,198.086 27.15,193.376 27.18,193.306C33.95,174.226 41.27,156.946 47.44,139.666C51.24,129.016 55.65,117.886 60.66,106.276C62.13,102.886 65.69,97.856 71.34,91.206C74.88,87.036 97.14,60.066 138.121,10.276C141.021,6.746 142.881,4.516 143.711,3.586C147.041,-0.164 151.821,0.466 156.881,1.846C169.031,5.156 182.511,10.646 194.051,14.076C201.37,16.256 210.131,20.016 217.921,22.576C237.441,28.996 255.941,35.586 275.061,41.956C315.801,55.506 346.441,65.796 366.981,72.846C392.151,81.466 411.701,87.496 436.951,96.296C444.871,99.046 452.331,101.366 458.491,106.226C479.241,122.596 500.211,138.036 521.401,152.546C527.921,157.016 531.501,164.476 536.121,173.626C557.091,215.176 568.921,238.506 571.601,243.636C573.751,247.756 580.01,259.096 590.381,277.646C594.401,284.826 600.551,293.456 603.751,299.146C604.851,301.106 604.531,302.656 602.801,303.786C602.491,303.986 602.121,304.106 601.741,304.116C598.301,304.206 595.641,304.086 593.751,303.776C581.441,301.726 571.851,300.296 565.001,299.486C552.951,298.056 543.331,296.766 536.141,295.606C518.401,292.746 496.381,290.236 477.041,287.546C428.901,280.836 386.751,275.186 350.591,270.596C341.541,269.446 332.351,268.446 327.951,258.526C322.421,246.056 315.701,230.676 307.791,212.366C292.341,176.626 281.601,151.336 275.571,136.486C270.431,123.816 264.131,110.316 259.611,98.096C258.42,94.886 256.271,92.046 253.15,89.556C242.681,81.206 235.721,75.506 227.62,69.546C216.251,61.176 207.851,54.856 202.431,50.596C192.37,42.676 183.251,36.836 172.931,28.786C170.291,26.716 167.621,24.906 164.921,23.346C163.871,22.736 162.551,22.876 161.65,23.686Z" style="fill:rgb(116,44,43);fill-rule:nonzero;"/>
            <path d="M151.551,152.686C146.65,153.346 145.491,156.096 145.551,160.896C145.631,166.946 145.701,182.636 145.771,207.956C145.781,211.666 146.161,214.096 146.911,215.246C148.15,217.166 150.37,217.966 153.571,217.656C166.141,216.446 174.461,215.766 178.541,215.616C183.34,215.446 186.801,214.156 186.811,209.156C186.84,181.026 186.84,165.526 186.821,162.666C186.761,157.146 187.501,149.946 180.481,149.956C170.621,149.966 165.131,150.866 151.551,152.686ZM145.331,97.766C146.271,98.626 147.591,99.516 149.291,100.446C153.261,102.596 155.121,104.066 153.381,108.576C152.171,111.726 151.401,114.556 151.071,117.076C150.951,117.986 151.471,118.806 152.251,118.956C152.771,119.056 153.37,118.876 154.041,118.406C154.711,117.936 156.991,115.876 160.881,112.226C162.781,110.436 164.231,109.856 166.491,111.236C169.681,113.176 172.501,114.946 174.971,116.536C175.781,117.056 176.841,116.856 177.321,116.076C177.771,115.346 177.741,114.376 177.241,113.156C176.041,110.196 175.061,107.616 174.291,105.416C173.481,103.086 174.011,101.216 175.881,99.796C178.961,97.466 181.311,95.436 182.941,93.716C183.671,92.946 183.131,91.666 182.061,91.656L170.891,91.516C169.891,91.506 168.991,90.896 168.601,89.966C167.4,87.066 166.331,84.276 165.381,81.596C165.051,80.676 164.601,80.056 164.031,79.726C163.161,79.236 162.031,79.676 161.661,80.656C160.951,82.546 159.911,85.546 158.551,89.656C157.941,91.526 156.951,92.586 155.581,92.856C150.861,93.786 147.681,94.466 146.031,94.906C144.751,95.246 144.351,96.866 145.331,97.766ZM240.411,476.126C239.301,474.466 238.741,472.566 238.731,470.416C238.651,442.826 238.611,402.666 238.621,349.916C238.621,348.486 238.571,346.406 238.481,343.666C238.361,340.216 236.741,337.876 233.62,336.646C231.561,335.836 227.661,336.296 224.031,336.376C177.691,337.446 137.771,338.516 104.281,339.566C95.23,339.846 96.03,345.896 96.01,353.746C95.85,406.756 95.7,444.156 95.57,465.926C95.54,470.966 91.73,470.976 87.8,470.806C63.59,469.806 48.69,469.136 43.1,468.806C37,468.436 31.23,467.686 30.22,460.396C30.07,459.326 29.97,456.166 29.9,450.916C29.37,409.126 29.09,359.026 29.06,300.606C29.06,291.856 27.32,282.386 30.68,273.816C32.87,268.236 34.63,263.416 35.97,259.356C38.46,251.826 41.49,243.166 45.04,233.376C48.47,223.906 51.31,217.056 54.72,206.326C57.26,198.326 59.01,193.156 59.96,190.816C63.18,182.846 66,175.216 68.41,167.936C74.22,150.386 79.48,136.406 85.48,122.086C87.12,118.186 89.82,114.136 93.58,109.936C101.891,100.656 111.081,90.106 121.171,78.286C124.851,73.986 129.991,69.096 133.12,65.236C140.291,56.416 145.801,49.836 149.65,45.506C154.541,40.006 157.581,36.736 158.791,35.686C163.941,31.206 168.9,33.456 173.661,37.066C185.461,46.016 190.431,50.096 203.111,59.336C208.551,63.306 215.151,68.346 222.911,74.476C234.991,84.006 248.131,90.926 254.59,103.096C259.411,112.176 263.701,124.656 267.241,133.066C283.891,172.636 292.751,193.586 293.811,195.936C298.411,206.126 302.371,216.476 305.911,223.936C311.901,236.566 315.831,246.746 321.821,259.636C323.741,263.766 324.331,268.806 324.411,273.806C324.801,299.346 324.941,323.386 324.821,345.916C324.441,416.936 324.211,455.376 324.131,461.236C324.041,468.226 323.841,472.676 323.531,474.586C322.741,479.576 319.811,480.106 314.901,479.986C296.971,479.556 273.681,478.866 245.051,477.906C243.411,477.856 242.101,477.496 241.111,476.826C240.831,476.646 240.591,476.406 240.411,476.126Z" style="fill:rgb(160,60,58);fill-rule:nonzero;"/>
            <path d="M145.551,160.896C145.491,156.096 146.65,153.346 151.551,152.686C165.131,150.866 170.621,149.966 180.481,149.956C187.501,149.946 186.761,157.146 186.821,162.666C186.84,165.526 186.84,181.026 186.811,209.156C186.801,214.156 183.34,215.446 178.541,215.616C174.461,215.766 166.141,216.446 153.571,217.656C150.37,217.966 148.15,217.166 146.911,215.246C146.161,214.096 145.781,211.666 145.771,207.956C145.701,182.636 145.631,166.946 145.551,160.896Z" style="fill:rgb(73,34,26);fill-rule:nonzero;"/>
            <path d="M527.021,353.926L527.101,403.026C527.111,405.826 529.381,408.086 532.171,408.076L543.971,408.056C547.671,408.046 550.671,404.806 550.661,400.816L550.581,356.056C550.571,352.066 547.571,348.826 543.871,348.836L532.071,348.856C529.271,348.866 527.01,351.136 527.021,353.926ZM481.591,408.056C484.421,407.856 486.611,405.506 486.611,402.676L486.611,350.676C486.611,347.886 484.481,345.556 481.691,345.316L465.741,343.896C462.571,343.616 459.851,346.136 459.871,349.316L460.381,403.796C460.411,406.896 463.041,409.336 466.141,409.126L481.591,408.056ZM403.881,411.326C407.141,411.326 409.791,408.706 409.831,405.446L410.561,345.846C410.601,342.726 408.231,340.116 405.141,339.846L386.021,338.156C382.541,337.846 379.551,340.596 379.551,344.086L379.551,405.376C379.551,408.666 382.211,411.326 385.501,411.326L403.881,411.326ZM333.801,275.676C334.801,275.046 336.631,274.856 339.301,275.126C349.391,276.146 361.421,278.306 372.331,279.806C419.321,286.256 445.201,289.786 449.981,290.396C456.581,291.246 469.661,293.046 489.231,295.786C518.06,299.826 549.201,303.366 577.791,307.966C582.441,308.716 584.771,311.526 584.801,316.416C584.891,335.446 584.871,360.236 584.731,390.776C584.621,415.306 584.841,432.856 583.951,451.586C583.541,460.056 578.201,460.306 570.361,460.936C549.651,462.606 525.021,465.566 501.581,467.386C476.691,469.326 443.171,471.886 401.031,475.066C371.581,477.286 352.001,478.776 342.291,479.546C338.141,479.876 335.641,479.906 334.801,479.656C332.471,478.956 331.26,476.966 331.161,473.676C330.991,467.886 330.901,464.946 330.901,464.876C330.871,453.676 330.971,397.436 331.201,296.166C331.211,290.126 331.371,284.856 331.661,280.356C331.731,279.156 332.211,277.836 333.091,276.406C333.271,276.116 333.51,275.866 333.801,275.676Z" style="fill:rgb(160,60,58);fill-rule:nonzero;"/>
            <path d="M403.881,411.326L385.501,411.326C382.211,411.326 379.551,408.666 379.551,405.376L379.551,344.086C379.551,340.596 382.541,337.846 386.021,338.156L405.141,339.846C408.231,340.116 410.601,342.726 410.561,345.846L409.831,405.446C409.791,408.706 407.141,411.326 403.881,411.326Z" style="fill:rgb(73,34,26);fill-rule:nonzero;"/>
            <path d="M232.321,472.166C232.301,474.956 231.311,477.266 227.791,477.056C219.051,476.526 201.031,475.786 173.741,474.836C169.391,474.676 168.651,470.066 168.621,466.166C168.431,440.896 168.361,403.236 168.411,353.166C168.421,349.166 169.161,344.176 174.521,344.036C190.211,343.626 205.851,343.276 221.441,342.966C224.501,342.906 226.351,342.956 227.001,343.126C231.181,344.206 232.071,348.006 232.101,351.916C232.451,396.896 232.531,436.976 232.321,472.166Z" style="fill:rgb(133,98,67);fill-rule:nonzero;"/>
            <path d="M481.591,408.056L466.141,409.126C463.041,409.336 460.411,406.896 460.381,403.796L459.871,349.316C459.851,346.136 462.571,343.616 465.741,343.896L481.691,345.316C484.481,345.556 486.611,347.886 486.611,350.676L486.611,402.676C486.611,405.506 484.421,407.856 481.591,408.056Z" style="fill:rgb(73,34,26);fill-rule:nonzero;"/>
            <path d="M160.481,472.736C160.041,473.356 159.34,473.746 158.581,473.786C156.501,473.916 154.321,473.916 152.041,473.796C129.399,472.586 114.641,471.916 107.761,471.786C101.161,471.656 101.981,467.666 102.011,462.086C102.161,427.546 102.241,391.326 102.251,353.416C102.251,345.856 107.531,346.076 114.181,345.796C129.931,345.126 143.471,344.806 154.821,344.816C159.071,344.816 161.371,346.766 161.721,350.666C161.991,353.676 162.121,356.596 162.111,359.416C161.901,396.446 161.831,429.856 161.881,459.666C161.891,460.496 161.821,463.586 161.681,468.916C161.641,470.386 161.241,471.666 160.481,472.736Z" style="fill:rgb(133,98,67);fill-rule:nonzero;"/>
            <path d="M527.021,353.926C527.01,351.136 529.271,348.866 532.071,348.856L543.871,348.836C547.571,348.826 550.571,352.066 550.581,356.056L550.661,400.816C550.671,404.806 547.671,408.046 543.971,408.056L532.171,408.076C529.381,408.086 527.111,405.826 527.101,403.026L527.021,353.926Z" style="fill:rgb(73,34,26);fill-rule:nonzero;"/>
        </g>
    </g>
</svg>
