<?xml version="1.0" encoding="UTF-8" standalone="no"?>
<!-- Created with Inkscape (http://www.inkscape.org/) -->
<svg xmlns:dc="http://purl.org/dc/elements/1.1/" xmlns:cc="http://web.resource.org/cc/" xmlns:rdf="http://www.w3.org/1999/02/22-rdf-syntax-ns#" xmlns:svg="http://www.w3.org/2000/svg" xmlns="http://www.w3.org/2000/svg" xmlns:sodipodi="http://sodipodi.sourceforge.net/DTD/sodipodi-0.dtd" xmlns:inkscape="http://www.inkscape.org/namespaces/inkscape" width="716.36981" height="387.58215" id="svg2" sodipodi:version="0.32" inkscape:version="0.44.1" sodipodi:docbase="C:\Documents and Settings\Im\Plocha\10.Duma a nabytek" sodipodi:docname="dum_2.svg" version="1.0">
  <defs id="defs3"/>
  <sodipodi:namedview id="base" pagecolor="#ffffff" bordercolor="#666666" borderopacity="1.0" inkscape:pageopacity="0.0" inkscape:pageshadow="2" inkscape:zoom="0.94644222" inkscape:cx="371.15097" inkscape:cy="482.41484" inkscape:document-units="px" inkscape:current-layer="layer1" inkscape:window-width="1016" inkscape:window-height="693" inkscape:window-x="0" inkscape:window-y="0"/>
  <g inkscape:label="Layer 1" inkscape:groupmode="layer" id="layer1" transform="translate(-27.09002,-395.292)">
    <path id="path2900" d="M 644.42405,727.19408 L 742.95984,717.3405 L 630.62904,687.77977 L 467.05963,691.7212 L 500.5618,731.13551 L 644.42405,727.19408 z " style="opacity:0.87634409;fill:#7e996b;fill-opacity:1;fill-rule:evenodd;stroke:black;stroke-width:1px;stroke-linecap:butt;stroke-linejoin:miter;stroke-opacity:1"/>
    <path style="fill:#e5e582;fill-opacity:1;fill-rule:evenodd;stroke:black;stroke-width:0.81577957;stroke-linecap:butt;stroke-linejoin:miter;stroke-miterlimit:4;stroke-opacity:1" d="M 148.61159,476.24923 L 209.25636,449.78301 L 281.13162,515.37321 L 283.37772,701.78749 L 121.65837,689.12972 L 117.16616,551.04508 L 148.61159,476.24923 z " id="path2459"/>
    <rect transform="matrix(0.999954,-9.540129e-3,8.861613e-3,0.999961,0,0)" ry="3.0903482" rx="0.25493038" y="581.10944" x="396.00406" height="78.101067" width="29.173" id="rect4547" style="fill:#926539;fill-opacity:1;fill-rule:evenodd;stroke:#201409;stroke-width:1.23574924;stroke-linejoin:round;stroke-miterlimit:4;stroke-opacity:1"/>
    <path style="fill:#e9cf79;fill-opacity:1;fill-rule:evenodd;stroke:black;stroke-width:0.81577957;stroke-linecap:butt;stroke-linejoin:miter;stroke-miterlimit:4;stroke-opacity:1" d="M 282.25467,699.48605 L 310.33095,697.18465 L 310.33095,661.5128 L 401.2981,654.60856 L 400.17504,576.36059 L 430.49742,576.36059 L 431.48278,661.34072 L 486.19389,661.66467 L 504.06802,678.6114 L 623.66221,670.71843 L 620.29307,553.34649 L 282.25467,524.57886 L 282.25467,699.48605 z " id="path2463" sodipodi:nodetypes="ccccccccccccc"/>
    <path style="fill:none;fill-opacity:0.75;fill-rule:evenodd;stroke:black;stroke-width:1.73205078px;stroke-linecap:butt;stroke-linejoin:miter;stroke-opacity:1" d="M 456.95125,629.77914 C 455.15941,656.97739 456.47548,663.01037 456.47548,663.01037" id="path2529"/>
    <path sodipodi:nodetypes="cccccccccccccccc" id="path2856" d="M 626.68761,670.04333 L 627.67297,693.69192 L 404.98209,704.53085 L 402.02601,659.20439 L 404.98209,661.17511 L 316.29988,668.07261 L 318.27059,708.47228 L 313.34381,710.443 L 308.41702,697.63335 L 312.35845,698.6187 L 311.37309,662.16046 L 402.02602,656.24831 L 467.05963,661.17511 L 485.78143,659.20439 L 509.43002,676.94083 L 626.68761,670.04333 z " style="fill:#8a7771;fill-opacity:1;fill-rule:evenodd;stroke:black;stroke-width:1px;stroke-linecap:butt;stroke-linejoin:miter;stroke-opacity:1"/>
    <path style="fill:none;fill-opacity:0.75;fill-rule:evenodd;stroke:black;stroke-width:1.73205078px;stroke-linecap:butt;stroke-linejoin:miter;stroke-opacity:1" d="M 524.94094,662.29594 C 523.1491,689.49419 524.46517,695.52717 524.46517,695.52717" id="path2521"/>
    <path style="fill:#a09d6a;fill-opacity:1;fill-rule:evenodd;stroke:none;stroke-width:1px;stroke-linecap:butt;stroke-linejoin:miter;stroke-opacity:1" d="M 250.83115,474.05701 C 147.71168,501.92714 146.31817,511.68169 146.31817,511.68169 L 118.44804,581.35701 L 115.66104,540.94532 L 142.13765,458.72844 L 215.99349,426.6778 L 250.83115,474.05701 z " id="path2509" sodipodi:nodetypes="ccccccc"/>
    <path style="fill:#625915;fill-opacity:1;fill-rule:evenodd;stroke:black;stroke-width:0.40788978px;stroke-linecap:butt;stroke-linejoin:miter;stroke-opacity:1" d="M 102.56649,559.10002 L 107.0587,541.83944 L 139.62718,463.59147 L 210.3794,429.07032 L 209.25636,442.87878 L 210.3794,453.23513 L 150.8577,477.39994 L 119.41227,549.89438 L 119.41227,560.25072 L 102.56649,559.10002 z " id="path2495"/>
    <path style="opacity:0.96236554;fill:#c28e30;fill-opacity:1;fill-rule:evenodd;stroke:black;stroke-width:0.40788978px;stroke-linecap:butt;stroke-linejoin:miter;stroke-opacity:1" d="M 287.86992,501.56475 L 287.86992,528.03097 L 268.77806,528.03097 L 269.90111,513.07181 L 208.1333,453.23513 L 210.3794,430.22102 L 287.86992,501.56475 z " id="path2497"/>
    <path style="fill:#4a3021;fill-opacity:1;fill-rule:evenodd;stroke:black;stroke-width:0.40788978px;stroke-linecap:butt;stroke-linejoin:miter;stroke-opacity:1" d="M 285.62382,501.56475 L 285.62382,525.72956 L 385.57538,532.63379 L 386.69843,554.49719 L 420.38996,545.29155 L 618.04694,561.40143 L 592.21677,568.30566 L 588.84762,549.89438 L 623.66221,554.49719 L 650.61543,551.04508 L 647.2463,544.14084 L 468.68116,523.42815 L 339.53028,496.96193 L 285.62382,501.56475 z " id="path2499"/>
    <path style="fill:#bf9275;fill-opacity:1;fill-rule:evenodd;stroke:black;stroke-width:0.81577957;stroke-linecap:butt;stroke-linejoin:miter;stroke-miterlimit:4;stroke-opacity:1" d="M 105.93565,560.25072 L 108.18175,541.83944 L 138.50413,469.34501 L 209.25636,435.97455 L 285.62382,510.77039 L 399.05199,521.12674 L 420.38996,540.68874 L 615.80085,557.94931 L 597.83204,541.83944 L 650.61543,547.59297 L 564.14049,490.0577 L 482.15777,450.93372 L 219.36381,396.85057 L 135.13498,463.59147 L 96.95124,561.40143 L 105.93565,560.25072 z " id="path2465"/>
    <path style="fill:#af7854;fill-opacity:1;fill-rule:evenodd;stroke:black;stroke-width:0.81577957;stroke-linecap:butt;stroke-linejoin:miter;stroke-miterlimit:4;stroke-opacity:1" d="M 210.3794,434.82385 L 221.60992,395.69986 L 132.88887,468.1943 L 210.3794,434.82385 z " id="path2467"/>
    <path style="fill:#fafae9;fill-opacity:1;fill-rule:evenodd;stroke:#0b0707;stroke-width:3.75;stroke-linecap:butt;stroke-linejoin:miter;stroke-miterlimit:4;stroke-dasharray:none;stroke-opacity:1" d="M 318.1923,572.90848 L 319.31535,626.99163 L 366.48351,626.99163 L 366.48351,572.90848 L 318.1923,572.90848 z " id="path2469"/>
    <path style="fill:#efefed;fill-opacity:1;fill-rule:evenodd;stroke:black;stroke-width:2.5;stroke-linecap:butt;stroke-linejoin:miter;stroke-miterlimit:4;stroke-dasharray:none;stroke-opacity:1" d="M 222.73297,523.42815 L 220.48686,469.34501 L 196.90279,476.24923 L 198.02585,529.18168 L 222.73297,523.42815 z " id="path2471" sodipodi:nodetypes="ccccc"/>
    <path id="path4468" d="M 198.05693,477.15952 L 218.99579,471.00103 L 221.45918,522.48598 L 199.28863,527.65911 L 198.05693,477.15952 z " style="fill:#b7d6ea;fill-opacity:1;fill-rule:evenodd;stroke:black;stroke-width:1px;stroke-linecap:butt;stroke-linejoin:miter;stroke-opacity:1"/>
    <path style="fill:#efefed;fill-opacity:1;fill-rule:evenodd;stroke:black;stroke-width:2.5;stroke-linecap:butt;stroke-linejoin:miter;stroke-miterlimit:4;stroke-dasharray:none;stroke-opacity:1" d="M 171.07261,533.7845 L 153.1038,538.38732 L 153.1038,493.50982 L 172.19566,486.60559 L 171.07261,533.7845 z " id="path2473"/>
    <path style="fill:#f3f3ec;fill-opacity:1;fill-rule:evenodd;stroke:black;stroke-width:2.5;stroke-linecap:butt;stroke-linejoin:miter;stroke-miterlimit:4;stroke-dasharray:none;stroke-opacity:1" d="M 199.1489,582.11413 L 220.48686,579.81271 L 221.60992,631.59445 L 199.1489,631.59445 L 199.1489,582.11413 z " id="path2475"/>
    <path sodipodi:nodetypes="ccccc" id="path4483" d="M 199.8909,583.4391 L 219.90166,580.6197 L 220.98008,631.0009 L 199.8909,630.87832 L 199.8909,583.4391 z " style="fill:#b7d6ea;fill-opacity:1;fill-rule:evenodd;stroke:black;stroke-width:0.98397219px;stroke-linecap:butt;stroke-linejoin:miter;stroke-opacity:1"/>
    <path style="fill:#f3f3ec;fill-opacity:1;fill-rule:evenodd;stroke:black;stroke-width:2.5;stroke-linecap:butt;stroke-linejoin:miter;stroke-miterlimit:4;stroke-dasharray:none;stroke-opacity:1" d="M 169.94956,586.71695 L 171.07261,630.44374 L 154.22685,630.44374 L 153.5301,588.80721 L 169.94956,586.71695 z " id="path2477" sodipodi:nodetypes="ccccc"/>
    <path style="fill:#d3e5e6;fill-opacity:1;fill-rule:evenodd;stroke:black;stroke-width:0.81577957;stroke-linecap:butt;stroke-linejoin:miter;stroke-miterlimit:4;stroke-opacity:1" d="M 392.31368,480.85206 L 411.40555,499.26334 L 431.62047,500.41404 L 411.40555,483.15346 L 392.31368,480.85206 z " id="path2479"/>
    <path style="fill:#d3e5e6;fill-opacity:1;fill-rule:evenodd;stroke:black;stroke-width:0.81577957;stroke-linecap:butt;stroke-linejoin:miter;stroke-miterlimit:4;stroke-opacity:1" d="M 473.17336,491.2084 L 488.89607,507.31828 L 510.23405,509.61969 L 488.89607,493.50982 L 473.17336,491.2084 z " id="path2481"/>
    <path style="fill:none;fill-opacity:0.75;fill-rule:evenodd;stroke:black;stroke-width:1.02340686px;stroke-linecap:butt;stroke-linejoin:miter;stroke-opacity:1" d="M 510.00586,547.90688 L 387.41229,430.86428 L 387.41229,430.86428" id="path2511"/>
    <path style="fill:#ddc671;fill-opacity:1;fill-rule:evenodd;stroke:black;stroke-width:0.81577957;stroke-linecap:butt;stroke-linejoin:miter;stroke-miterlimit:4;stroke-opacity:1" d="M 401.2981,418.71397 L 417.02081,421.01538 L 418.14386,454.38584 L 402.42114,454.38584 L 401.2981,418.71397 z " id="path2487"/>
    <path style="fill:#2b1a1a;fill-opacity:1;fill-rule:evenodd;stroke:black;stroke-width:0.40788978px;stroke-linecap:butt;stroke-linejoin:miter;stroke-opacity:1" d="M 387.82147,553.34649 L 592.21677,568.30566 L 615.80085,559.10002 L 591.09372,555.6479 L 591.09372,559.10002 L 419.2669,546.44226 L 387.82147,553.34649 z " id="path2501"/>
    <path style="fill:#fafae9;fill-opacity:1;fill-rule:evenodd;stroke:#0b0707;stroke-width:2.97243166;stroke-linecap:butt;stroke-linejoin:miter;stroke-miterlimit:4;stroke-opacity:1" d="M 474.95144,579.14474 L 475.78871,624.72157 L 510.95434,624.67858 L 510.95434,579.10074 L 474.95144,579.14474 z " id="path2505"/>
    <path style="fill:#fafae9;fill-opacity:1;fill-rule:evenodd;stroke:#0b0707;stroke-width:2.29834747;stroke-linecap:butt;stroke-linejoin:miter;stroke-miterlimit:4;stroke-opacity:1" d="M 575.55867,581.31141 L 576.14012,620.54781 L 600.56076,620.42078 L 600.56076,581.18136 L 575.55867,581.31141 z " id="path2507"/>
    <path style="fill:#ffe183;fill-opacity:1;fill-rule:evenodd;stroke:black;stroke-width:0.40788978px;stroke-linecap:butt;stroke-linejoin:miter;stroke-opacity:1" d="M 391.19064,422.16608 L 400.17504,418.71397 L 401.2981,454.38584 L 388.94453,445.18019 L 391.19064,422.16608 z " id="path2485"/>
    <path style="fill:none;fill-opacity:0.75;fill-rule:evenodd;stroke:black;stroke-width:1.73205078px;stroke-linecap:butt;stroke-linejoin:miter;stroke-opacity:1" d="M 508.68254,649.48629 C 506.8907,676.68454 508.20677,682.71752 508.20677,682.71752" id="path2523"/>
    <path style="fill:none;fill-opacity:0.75;fill-rule:evenodd;stroke:black;stroke-width:1.73205078px;stroke-linecap:butt;stroke-linejoin:miter;stroke-opacity:1" d="M 490.9461,635.1986 C 489.15426,662.39685 490.47033,668.42983 490.47033,668.42983" id="path2525"/>
    <path style="fill:none;fill-opacity:0.75;fill-rule:evenodd;stroke:black;stroke-width:1.73205078px;stroke-linecap:butt;stroke-linejoin:miter;stroke-opacity:1" d="M 480.10716,628.3011 C 478.31532,655.49935 479.63139,661.53233 479.63139,661.53233" id="path2527"/>
    <path style="fill:#a78440;fill-opacity:1;fill-rule:evenodd;stroke:black;stroke-width:1px;stroke-linecap:butt;stroke-linejoin:miter;stroke-opacity:1" d="M 401.04065,655.26297 L 401.04065,667.08726 L 425.67459,669.05798 L 482.82535,663.14583 L 521.25431,698.61871 L 538.00539,697.63336 L 482.82535,651.32154 L 428.63067,656.24833 L 401.04065,655.26297 z " id="path2515"/>
    <path style="fill:none;fill-opacity:0.75;fill-rule:evenodd;stroke:black;stroke-width:1.76199389px;stroke-linecap:butt;stroke-linejoin:miter;stroke-opacity:1" d="M 425.91248,631.54609 C 424.12064,659.69286 425.43671,665.93624 425.43671,665.93624" id="path2531"/>
    <path style="fill:#6b5636;fill-opacity:1;fill-rule:evenodd;stroke:black;stroke-width:0.91291612px;stroke-linecap:butt;stroke-linejoin:miter;stroke-opacity:1" d="M 425.75788,656.24833 L 425.75788,668.07262 L 401.94271,666.10191 L 402.1169,656.36275 L 425.75788,656.24833 z " id="path2517" sodipodi:nodetypes="ccccc"/>
    <path style="fill:none;fill-opacity:0.75;fill-rule:evenodd;stroke:black;stroke-width:1.73205078px;stroke-linecap:butt;stroke-linejoin:miter;stroke-opacity:1" d="M 401.77121,630.76449 C 399.97937,657.96274 401.29544,663.99572 401.29544,663.99572" id="path2533"/>
    <path style="fill:none;fill-opacity:0.75;fill-rule:evenodd;stroke:black;stroke-width:1.5;stroke-linecap:butt;stroke-linejoin:miter;stroke-miterlimit:4;stroke-dasharray:none;stroke-opacity:1" d="M 402.026,631.61438 L 425.67459,631.61438 L 480.85463,627.67295 L 530.12252,666.10191" id="path2519"/>
    <path id="path2870" d="M 404.98209,690.73584 L 406.9528,740.98909 L 567.56614,725.22337 L 567.56614,713.39907 L 404.98209,690.73584 z " style="fill:#d9d5c3;fill-opacity:1;fill-rule:evenodd;stroke:black;stroke-width:1px;stroke-linecap:butt;stroke-linejoin:miter;stroke-opacity:1"/>
    <path id="path2874" d="M 469.03035,744.93052 L 647.38013,726.20873 L 567.56614,725.22337 L 407.93816,741.97445 L 469.03035,744.93052 z " style="fill:#afafac;fill-opacity:1;fill-rule:evenodd;stroke:black;stroke-width:1px;stroke-linecap:butt;stroke-linejoin:miter;stroke-opacity:1"/>
    <path id="path2858" d="M 321.22667,708.47228 L 467.05963,742.95981 L 451.29391,745.91588 L 451.29391,747.8866 L 313.34381,713.39907 L 313.34381,704.53085 L 321.22667,708.47228 z " style="fill:#928d8b;fill-opacity:1;fill-rule:evenodd;stroke:black;stroke-width:1px;stroke-linecap:butt;stroke-linejoin:miter;stroke-opacity:1"/>
    <path id="path2090" d="M 122.18438,689.75048 L 122.18438,689.75048 z " style="fill:none;fill-opacity:0.75;fill-rule:evenodd;stroke:black;stroke-width:1px;stroke-linecap:butt;stroke-linejoin:miter;stroke-opacity:1"/>
    <path sodipodi:nodetypes="ccccccc" id="path2092" d="M 119.2283,722.26729 L 286.73914,739.01838 L 316.29988,732.12087 L 315.31452,696.64799 L 281.81235,698.6187 L 118.24295,689.75048 L 119.2283,722.26729 z " style="fill:#695d58;fill-opacity:1;fill-rule:evenodd;stroke:black;stroke-width:1px;stroke-linecap:butt;stroke-linejoin:miter;stroke-opacity:1"/>
    <path id="path2094" d="M 283.78307,699.60406 L 284.76843,738.03302" style="fill:none;fill-opacity:0.75;fill-rule:evenodd;stroke:black;stroke-width:1px;stroke-linecap:butt;stroke-linejoin:miter;stroke-opacity:1"/>
    <path id="path2860" d="M 466.93646,743.08298 L 467.05963,745.54637 L 451.41708,748.13294 L 451.29391,745.66954 L 466.93646,743.08298 z " style="fill:#928d8b;fill-opacity:1;fill-rule:evenodd;stroke:black;stroke-width:1px;stroke-linecap:butt;stroke-linejoin:miter;stroke-opacity:1"/>
    <path id="path2862" d="M 452.27927,745.91588 L 311.37309,709.45764 L 312.35845,710.443" style="fill:none;fill-opacity:0.75;fill-rule:evenodd;stroke:black;stroke-width:1px;stroke-linecap:butt;stroke-linejoin:miter;stroke-opacity:1"/>
    <path id="path2866" d="M 565.88092,715.5429 C 403.85229,691.06798 403.85229,691.67986 403.85229,691.67986 L 404.16269,690.15017 L 413.47468,688.00862 L 572.08892,710.95385" style="fill:#928d8b;fill-opacity:1;fill-rule:evenodd;stroke:black;stroke-width:0.88455999px;stroke-linecap:butt;stroke-linejoin:miter;stroke-opacity:1"/>
    <path id="path2864" d="M 564.7185,713.04336 L 565.06688,715.83037 L 572.73116,713.04336 L 572.38278,710.60472 L 564.7185,713.04336 z " style="fill:#928d8b;fill-opacity:1;fill-rule:evenodd;stroke:black;stroke-width:1px;stroke-linecap:butt;stroke-linejoin:miter;stroke-opacity:1"/>
    <path id="path2868" d="M 565.09667,712.69354 L 406.05179,690.16123" style="fill:none;fill-opacity:0.75;fill-rule:evenodd;stroke:black;stroke-width:0.86797965px;stroke-linecap:butt;stroke-linejoin:miter;stroke-opacity:1"/>
    <path id="path2872" d="M 315.31452,714.38443 L 451.29391,748.87196 L 180.32049,782.37412 L 65.03362,743.94517 L 27.590021,731.13551 L 119.2283,715.36979 L 119.2283,722.26729 L 286.73914,739.01838 L 316.29988,733.10623 L 315.31452,714.38443 z " style="fill:#7e996b;fill-opacity:1;fill-rule:evenodd;stroke:black;stroke-width:1px;stroke-linecap:butt;stroke-linejoin:miter;stroke-opacity:1"/>
    <path id="path2876" d="M 317.0389,668.56529 L 401.287,661.66778 L 406.21379,728.67212 L 318.27059,707.9796 L 317.0389,668.56529 z " style="fill:#f7f7f1;fill-opacity:1;fill-rule:evenodd;stroke:black;stroke-width:1px;stroke-linecap:butt;stroke-linejoin:miter;stroke-opacity:1"/>
    <path sodipodi:nodetypes="cccccccc" id="path2878" d="M 317.0389,668.81163 C 318.51693,669.79699 319.00961,670.28967 319.00961,670.28967 L 402.76503,663.88484 L 407.19914,727.9331 L 404.98209,729.1648 L 319.99497,708.47228 L 318.76327,670.04333 L 319.00961,669.79699" style="fill:none;fill-opacity:0.75;fill-rule:evenodd;stroke:black;stroke-width:1px;stroke-linecap:butt;stroke-linejoin:miter;stroke-opacity:1"/>
    <path id="path2880" d="M 319.25595,676.85766 L 403.25771,669.38747" style="fill:none;fill-opacity:0.75;fill-rule:evenodd;stroke:black;stroke-width:1.07997084px;stroke-linecap:butt;stroke-linejoin:miter;stroke-opacity:1"/>
    <path id="path2882" d="M 319.25451,684.19336 C 403.50549,676.33946 403.50549,676.33946 403.50549,676.33946" style="fill:none;fill-opacity:0.75;fill-rule:evenodd;stroke:black;stroke-width:1.1276629px;stroke-linecap:butt;stroke-linejoin:miter;stroke-opacity:1"/>
    <path id="path2884" d="M 319.75295,691.27526 C 405.22624,682.31356 404.97777,682.31356 404.97777,682.31356" style="fill:none;fill-opacity:0.75;fill-rule:evenodd;stroke:black;stroke-width:1.18798304px;stroke-linecap:butt;stroke-linejoin:miter;stroke-opacity:1"/>
    <path id="path2886" d="M 320.24131,697.71405 C 405.22843,689.17711 405.22843,689.17711 405.22843,689.17711" style="fill:none;fill-opacity:0.75;fill-rule:evenodd;stroke:black;stroke-width:1.35053968px;stroke-linecap:butt;stroke-linejoin:miter;stroke-opacity:1"/>
    <path id="path2888" d="M 320.49053,704.41443 C 405.47189,696.76441 405.47189,696.76441 405.47189,696.76441" style="fill:none;fill-opacity:0.75;fill-rule:evenodd;stroke:black;stroke-width:1.49364758px;stroke-linecap:butt;stroke-linejoin:miter;stroke-opacity:1"/>
    <path id="path2890" d="M 404.25858,703.43429 C 329.33493,710.30785 329.33493,710.30785 329.33493,710.30785 L 329.33493,710.30785 L 329.09402,710.30785" style="fill:none;fill-opacity:0.75;fill-rule:evenodd;stroke:black;stroke-width:1.26250005;stroke-linecap:butt;stroke-linejoin:miter;stroke-miterlimit:4;stroke-dasharray:none;stroke-opacity:1"/>
    <path sodipodi:nodetypes="cc" id="path2892" d="M 405.22816,709.3956 C 349.55598,714.69281 349.55598,715.18549 349.55598,715.18549" style="fill:none;fill-opacity:0.75;fill-rule:evenodd;stroke:black;stroke-width:1.06022012px;stroke-linecap:butt;stroke-linejoin:miter;stroke-opacity:1"/>
    <path sodipodi:nodetypes="cc" id="path2894" d="M 405.22843,715.61613 C 366.30679,718.81854 366.55313,718.81854 371.72626,720.29658" style="fill:none;fill-opacity:0.75;fill-rule:evenodd;stroke:black;stroke-width:1px;stroke-linecap:butt;stroke-linejoin:miter;stroke-opacity:1"/>
    <path sodipodi:nodetypes="cc" id="path2896" d="M 406.46012,721.0356 C 384.04323,722.75998 387.24565,723.49899 383.7969,723.00631" style="fill:none;fill-opacity:0.75;fill-rule:evenodd;stroke:black;stroke-width:1px;stroke-linecap:butt;stroke-linejoin:miter;stroke-opacity:1"/>
    <g id="g4450">
      <rect transform="matrix(0.971174,-0.238371,1.94453e-2,0.999811,0,0)" rx="0.27445868" ry="30.545296" y="522.56042" x="202.20169" height="52.041164" width="3.8212266" id="rect3660" style="fill:#76512b;fill-opacity:1;fill-rule:evenodd;stroke:none;stroke-width:1.26250005;stroke-linejoin:round;stroke-miterlimit:4;stroke-opacity:1"/>
      <rect transform="matrix(0.943946,-0.3301,-3.582554e-2,0.999358,0,0)" ry="3.102308" rx="0.27208558" y="569.30896" x="231.41756" height="3.3325701" width="23.498466" id="rect4438" style="fill:#76512b;fill-opacity:1;fill-rule:evenodd;stroke:none;stroke-width:1.26250005;stroke-linejoin:round;stroke-miterlimit:4;stroke-opacity:1"/>
      <rect transform="matrix(0.943946,-0.3301,-3.582554e-2,0.999358,0,0)" ry="3.1023073" rx="0.27208558" y="586.9408" x="232.93471" height="3.3325694" width="23.498466" id="rect4440" style="fill:#76512b;fill-opacity:1;fill-rule:evenodd;stroke:none;stroke-width:1.26250005;stroke-linejoin:round;stroke-miterlimit:4;stroke-opacity:1"/>
    </g>
    <path sodipodi:nodetypes="ccccc" id="path4470" d="M 154.0702,493.89123 L 171.17252,487.71367 L 170.35888,533.51486 L 154.27923,537.79748 L 154.0702,493.89123 z " style="fill:#b7d6ea;fill-opacity:1;fill-rule:evenodd;stroke:black;stroke-width:0.94611871px;stroke-linecap:butt;stroke-linejoin:miter;stroke-opacity:1"/>
    <rect transform="matrix(0.979276,-0.20253,-1.006369e-2,0.999949,0,0)" rx="0.27427649" ry="30.515131" y="525.80743" x="168.64651" height="44.145805" width="3.8156409" id="rect4457" style="fill:#76512b;fill-opacity:1;fill-rule:evenodd;stroke:none;stroke-width:1.26250005;stroke-linejoin:round;stroke-miterlimit:4;stroke-opacity:1"/>
    <rect transform="matrix(0.93263,-0.360833,-7.197408e-2,0.997407,0,0)" ry="3.1017017" rx="0.2705996" y="583.16809" x="209.83528" height="3.3287187" width="18.527508" id="rect4459" style="fill:#76512b;fill-opacity:1;fill-rule:evenodd;stroke:none;stroke-width:1.26250005;stroke-linejoin:round;stroke-miterlimit:4;stroke-opacity:1"/>
    <rect transform="matrix(0.926519,-0.376247,-3.085628e-2,0.999524,0,0)" ry="3.1022093" rx="0.27106076" y="593.06238" x="185.73409" height="3.0318227" width="18.758907" id="rect4461" style="fill:#76512b;fill-opacity:1;fill-rule:evenodd;stroke:none;stroke-width:1.26250005;stroke-linejoin:round;stroke-miterlimit:4;stroke-opacity:1"/>
    <rect transform="matrix(0.998002,-6.317906e-2,2.089432e-2,0.999782,0,0)" rx="0.26672083" ry="30.545588" y="594.5611" x="195.39456" height="48.432125" width="3.7185032" id="rect4474" style="fill:#76512b;fill-opacity:1;fill-rule:evenodd;stroke:none;stroke-width:1.26250005;stroke-linejoin:round;stroke-miterlimit:4;stroke-opacity:1"/>
    <rect transform="matrix(0.994406,-0.105625,-3.214754e-2,0.999483,0,0)" ry="3.1024811" rx="0.25575775" y="620.22449" x="221.34393" height="3.3016586" width="19.830376" id="rect4476" style="fill:#76512b;fill-opacity:1;fill-rule:evenodd;stroke:none;stroke-width:1.26250005;stroke-linejoin:round;stroke-miterlimit:4;stroke-opacity:1"/>
    <rect transform="matrix(0.997729,-6.734887e-2,-3.278836e-2,0.999462,0,0)" ry="3.1025815" rx="0.25135252" y="627.6496" x="221.18843" height="3.2977531" width="20.134476" id="rect4478" style="fill:#76512b;fill-opacity:1;fill-rule:evenodd;stroke:none;stroke-width:1.26250005;stroke-linejoin:round;stroke-miterlimit:4;stroke-opacity:1"/>
    <path sodipodi:nodetypes="ccccc" id="path4485" d="M 154.48326,589.33768 L 168.68763,586.89688 L 169.45313,630.51271 L 154.48326,630.40659 L 154.48326,589.33768 z " style="fill:#b7d6ea;fill-opacity:1;fill-rule:evenodd;stroke:black;stroke-width:0.77134693px;stroke-linecap:butt;stroke-linejoin:miter;stroke-opacity:1"/>
    <rect transform="matrix(0.997447,-7.141345e-2,1.847568e-2,0.999829,0,0)" rx="0.26670349" ry="30.545471" y="599.40198" x="149.1812" height="41.682388" width="2.8313961" id="rect4487" style="fill:#76512b;fill-opacity:1;fill-rule:evenodd;stroke:none;stroke-width:1.26250005;stroke-linejoin:round;stroke-miterlimit:4;stroke-opacity:1"/>
    <rect transform="matrix(0.993068,-0.117541,-2.88525e-2,0.999584,0,0)" ry="3.102447" rx="0.25571457" y="621.53693" x="173.48538" height="2.7995474" width="15.111489" id="rect4489" style="fill:#76512b;fill-opacity:1;fill-rule:evenodd;stroke:none;stroke-width:1.26250005;stroke-linejoin:round;stroke-miterlimit:4;stroke-opacity:1"/>
    <rect transform="matrix(0.997183,-7.500685e-2,-2.942778e-2,0.999567,0,0)" ry="3.102545" rx="0.25133464" y="627.62952" x="173.2614" height="2.7962236" width="15.330945" id="rect4491" style="fill:#76512b;fill-opacity:1;fill-rule:evenodd;stroke:none;stroke-width:1.26250005;stroke-linejoin:round;stroke-miterlimit:4;stroke-opacity:1"/>
    <path sodipodi:nodetypes="ccccc" id="path4507" d="M 319.42074,573.65912 L 364.95936,573.6441 L 365.89566,626.02905 L 320.15976,625.91058 L 319.42074,573.65912 z " style="fill:#b7d6ea;fill-opacity:1;fill-rule:evenodd;stroke:black;stroke-width:1.44734848px;stroke-linecap:butt;stroke-linejoin:miter;stroke-opacity:1"/>
    <rect transform="matrix(0.998395,-5.663478e-2,2.331665e-2,0.999728,0,0)" rx="0.26669666" ry="30.545097" y="593.22131" x="327.29929" height="51.381218" width="4.4005389" id="rect4501" style="fill:#76512b;fill-opacity:1;fill-rule:evenodd;stroke:none;stroke-width:1.26250005;stroke-linejoin:round;stroke-miterlimit:4;stroke-opacity:1"/>
    <rect transform="matrix(0.999949,-1.010127e-2,-7.99187e-2,0.996801,0,0)" ry="3.0923262" rx="0.25493762" y="594.4339" x="367.78" height="3.0477059" width="45.2542" id="rect4503" style="fill:#76512b;fill-opacity:1;fill-rule:evenodd;stroke:none;stroke-width:1.26250005;stroke-linejoin:round;stroke-miterlimit:4;stroke-opacity:1"/>
    <rect transform="matrix(0.999912,1.323618e-2,-7.366536e-2,0.997283,0,0)" ry="3.0955436" rx="0.25068712" y="602.45374" x="364.84003" height="3.3203609" width="45.446556" id="rect4505" style="fill:#76512b;fill-opacity:1;fill-rule:evenodd;stroke:none;stroke-width:1.26250005;stroke-linejoin:round;stroke-miterlimit:4;stroke-opacity:1"/>
    <path sodipodi:nodetypes="ccccc" id="path4515" d="M 475.91288,579.71467 L 510.21769,579.70199 L 510.92302,623.91259 L 476.4696,623.81261 L 475.91288,579.71467 z " style="fill:#b7d6ea;fill-opacity:1;fill-rule:evenodd;stroke:black;stroke-width:1.15403926px;stroke-linecap:butt;stroke-linejoin:miter;stroke-opacity:1"/>
    <rect transform="matrix(0.997873,-6.518226e-2,2.024988e-2,0.999795,0,0)" rx="0.26655525" ry="30.543901" y="611.59711" x="480.45987" height="43.525753" width="3.2391484" id="rect4509" style="fill:#76512b;fill-opacity:1;fill-rule:evenodd;stroke:none;stroke-width:1.26250005;stroke-linejoin:round;stroke-miterlimit:4;stroke-opacity:1"/>
    <rect transform="matrix(0.999932,-1.163166e-2,-6.945719e-2,0.997585,0,0)" ry="3.0909278" rx="0.25493318" y="599.74353" x="518.5423" height="2.5798984" width="33.293865" id="rect4511" style="fill:#76512b;fill-opacity:1;fill-rule:evenodd;stroke:none;stroke-width:1.26250005;stroke-linejoin:round;stroke-miterlimit:4;stroke-opacity:1"/>
    <rect transform="matrix(0.999884,1.524137e-2,-6.401483e-2,0.997949,0,0)" ry="3.0943542" rx="0.25067958" y="599.89471" x="515.44019" height="2.8110354" width="33.435764" id="rect4513" style="fill:#76512b;fill-opacity:1;fill-rule:evenodd;stroke:none;stroke-width:1.26250005;stroke-linejoin:round;stroke-miterlimit:4;stroke-opacity:1"/>
    <path sodipodi:nodetypes="ccccc" id="path4517" d="M 576.47748,582.79864 L 599.08237,582.78801 L 599.54714,619.84121 L 576.84433,619.75741 L 576.47748,582.79864 z " style="fill:#b7d6ea;fill-opacity:1;fill-rule:evenodd;stroke:black;stroke-width:0.85761786px;stroke-linecap:butt;stroke-linejoin:miter;stroke-opacity:1"/>
    <rect transform="matrix(0.997873,-6.518226e-2,2.024988e-2,0.999795,0,0)" rx="0.26655525" ry="30.543901" y="611.59711" x="480.45987" height="43.525753" width="3.2391484" id="rect4519" style="fill:#76512b;fill-opacity:1;fill-rule:evenodd;stroke:none;stroke-width:1.26250005;stroke-linejoin:round;stroke-miterlimit:4;stroke-opacity:1"/>
    <rect transform="matrix(0.999932,-1.163166e-2,-6.945719e-2,0.997585,0,0)" ry="3.0909278" rx="0.25493318" y="599.74353" x="518.5423" height="2.5798984" width="33.293865" id="rect4521" style="fill:#76512b;fill-opacity:1;fill-rule:evenodd;stroke:none;stroke-width:1.26250005;stroke-linejoin:round;stroke-miterlimit:4;stroke-opacity:1"/>
    <rect transform="matrix(0.999884,1.524137e-2,-6.401483e-2,0.997949,0,0)" ry="3.0943542" rx="0.25067958" y="599.89471" x="515.44019" height="2.8110354" width="33.435764" id="rect4523" style="fill:#76512b;fill-opacity:1;fill-rule:evenodd;stroke:none;stroke-width:1.26250005;stroke-linejoin:round;stroke-miterlimit:4;stroke-opacity:1"/>
    <rect transform="matrix(0.996663,-8.162994e-2,1.61513e-2,0.99987,0,0)" rx="0.26647177" ry="30.543457" y="630.63995" x="578.61896" height="36.161098" width="2.1490073" id="rect4525" style="fill:#76512b;fill-opacity:1;fill-rule:evenodd;stroke:none;stroke-width:1.26250005;stroke-linejoin:round;stroke-miterlimit:4;stroke-opacity:1"/>
    <rect transform="matrix(0.999894,-1.458386e-2,-5.544371e-2,0.998462,0,0)" ry="3.0903466" rx="0.25493029" y="603.21564" x="610.46161" height="2.1416471" width="22.062805" id="rect4527" style="fill:#76512b;fill-opacity:1;fill-rule:evenodd;stroke:none;stroke-width:1.26250005;stroke-linejoin:round;stroke-miterlimit:4;stroke-opacity:1"/>
    <rect transform="matrix(0.999817,1.910914e-2,-5.109257e-2,0.998694,0,0)" ry="3.0938623" rx="0.25067571" y="594.39795" x="607.51849" height="2.3338311" width="22.157518" id="rect4529" style="fill:#76512b;fill-opacity:1;fill-rule:evenodd;stroke:none;stroke-width:1.26250005;stroke-linejoin:round;stroke-miterlimit:4;stroke-opacity:1"/>
    <path id="path4531" d="M 567.85389,724.71397 L 573.25373,723.32047 L 572.90535,712.69498 L 567.33132,715.13362 L 567.85389,724.71397 z " style="fill:#bdbbb0;fill-opacity:1;fill-rule:evenodd;stroke:black;stroke-width:1px;stroke-linecap:butt;stroke-linejoin:miter;stroke-opacity:1"/>
    <path transform="translate(-1.916071,0.696753)" d="M 426.76137 598.42743 A 8.4481335 13.935064 0 1 1  409.8651,598.42743 A 8.4481335 13.935064 0 1 1  426.76137 598.42743 z" sodipodi:ry="13.935064" sodipodi:rx="8.4481335" sodipodi:cy="598.42743" sodipodi:cx="418.31323" id="path4533" style="fill:#b7d6ea;fill-opacity:1;fill-rule:evenodd;stroke:none;stroke-width:1.26250005;stroke-linejoin:round;stroke-miterlimit:4;stroke-opacity:1" sodipodi:type="arc"/>
    <path transform="translate(-2.00318,0.87096)" d="M 426.76137 598.42743 A 8.4481335 13.935064 0 1 1  409.8651,598.42743 A 8.4481335 13.935064 0 1 1  426.76137 598.42743 z" sodipodi:ry="13.935064" sodipodi:rx="8.4481335" sodipodi:cy="598.42743" sodipodi:cx="418.31323" id="path4537" style="fill:none;fill-opacity:1;fill-rule:evenodd;stroke:#6f4811;stroke-width:1.26250005;stroke-linejoin:round;stroke-miterlimit:4;stroke-opacity:1" sodipodi:type="arc"/>
    <path id="path4539" d="M 408.64577,594.94368 C 424.14853,594.42112 424.14853,594.42112 424.14853,594.42112" style="fill:#92591d;fill-opacity:1;fill-rule:evenodd;stroke:#774e11;stroke-width:1px;stroke-linecap:butt;stroke-linejoin:miter;stroke-opacity:1"/>
    <path id="path4541" d="M 408.64577,603.6531 C 424.6711,602.95634 424.6711,602.95634 424.6711,602.95634" style="fill:none;fill-opacity:0.75;fill-rule:evenodd;stroke:#714211;stroke-width:1px;stroke-linecap:butt;stroke-linejoin:miter;stroke-opacity:1"/>
    <path id="path4543" d="M 412.65211,587.10521 C 412.82629,612.01414 412.82629,612.01414 412.82629,612.01414" style="fill:#805120;fill-opacity:1;fill-rule:evenodd;stroke:#75471e;stroke-width:1px;stroke-linecap:butt;stroke-linejoin:miter;stroke-opacity:1"/>
    <path id="path4545" d="M 420.49058,587.45358 C 420.31639,611.49157 420.31639,611.49157 420.31639,611.49157" style="fill:#76512b;fill-opacity:1;fill-rule:evenodd;stroke:#825222;stroke-width:1px;stroke-linecap:butt;stroke-linejoin:miter;stroke-opacity:1"/>
  </g>
  <metadata>
    <rdf:RDF>
      <cc:Work>
        <dc:format>image/svg+xml</dc:format>
        <dc:type rdf:resource="http://purl.org/dc/dcmitype/StillImage"/>
        <cc:license rdf:resource="http://creativecommons.org/licenses/publicdomain/"/>
        <dc:publisher>
          <cc:Agent rdf:about="http://openclipart.org/">
            <dc:title>Open Clip Art Library</dc:title>
          </cc:Agent>
        </dc:publisher>
        <dc:title>House 3</dc:title>
        <dc:date>2006-12-31T04:06:29</dc:date>
        <dc:description/>
        <dc:source>http://openclipart.org/detail/2622/house-3-by-machovka</dc:source>
        <dc:creator>
          <cc:Agent>
            <dc:title>Machovka</dc:title>
          </cc:Agent>
        </dc:creator>
        <dc:subject>
          <rdf:Bag>
            <rdf:li>architecture</rdf:li>
            <rdf:li>building</rdf:li>
            <rdf:li>clip art</rdf:li>
            <rdf:li>clipart</rdf:li>
            <rdf:li>home</rdf:li>
            <rdf:li>house</rdf:li>
            <rdf:li>image</rdf:li>
            <rdf:li>media</rdf:li>
            <rdf:li>png</rdf:li>
            <rdf:li>public domain</rdf:li>
            <rdf:li>svg</rdf:li>
          </rdf:Bag>
        </dc:subject>
      </cc:Work>
      <cc:License rdf:about="http://creativecommons.org/licenses/publicdomain/">
        <cc:permits rdf:resource="http://creativecommons.org/ns#Reproduction"/>
        <cc:permits rdf:resource="http://creativecommons.org/ns#Distribution"/>
        <cc:permits rdf:resource="http://creativecommons.org/ns#DerivativeWorks"/>
      </cc:License>
    </rdf:RDF>
  </metadata>
</svg>
