<?xml version="1.0" encoding="UTF-8" standalone="no"?>
<!DOCTYPE svg PUBLIC "-//W3C//DTD SVG 1.1//EN" "http://www.w3.org/Graphics/SVG/1.1/DTD/svg11.dtd">
<svg width="100%" height="100%" viewBox="0 0 1115 1590" version="1.1" xmlns="http://www.w3.org/2000/svg" xmlns:xlink="http://www.w3.org/1999/xlink" xml:space="preserve" xmlns:serif="http://www.serif.com/" style="fill-rule:evenodd;clip-rule:evenodd;stroke-linejoin:round;stroke-miterlimit:2;">
    <g transform="matrix(0.64,0,0,0.64,0,0)">
        <g transform="matrix(4.16667,0,0,4.16667,0,0)">
            <path d="M263.181,557.658C262.851,557.778 262.591,557.368 262.831,557.118C265.441,554.408 267.381,551.348 268.641,547.928C270.301,543.418 272.001,537.548 272.641,532.048C272.701,531.568 272.981,531.138 273.411,530.908C297.541,518.038 318.191,500.698 335.341,478.898C349.961,460.298 361.381,440.068 370.971,418.118C373.931,411.348 376.201,405.658 377.781,401.058C387.451,372.848 393.541,344.068 396.071,314.718C401.161,255.548 392.211,195.078 367.551,140.838C339.861,79.909 286.791,24.798 216.051,21.219C165.481,18.658 120.751,43.809 88.271,81.119C54.931,119.398 34.501,168.888 25.721,218.878C18.201,261.628 18.321,304.678 26.091,348.008C36.351,405.248 60.801,459.648 102.141,500.228C119.621,517.388 141.501,531.618 164.801,539.248C166.951,539.958 169.311,540.398 171.101,541.078C171.491,541.218 171.851,541.458 172.141,541.758C176.741,546.488 179.841,546.718 186.081,544.828C186.401,544.728 186.741,544.698 187.081,544.728L191.891,545.138C192.311,545.168 192.631,545.518 192.631,545.938L192.631,565.478C192.631,565.778 192.371,566.018 192.061,565.998C186.071,565.528 180.501,564.698 175.361,563.518C108.411,548.118 58.451,493.668 31.141,432.698C15.151,396.978 5.351,359.478 1.751,320.208C-2.248,276.618 0.491,232.418 11.131,189.938C29.201,117.768 74.081,44.229 145.111,13.819C180.071,-1.141 219.591,-3.521 255.601,7.429C290.071,17.899 320.891,39.739 344.801,67.579C403.421,135.838 423.421,230.138 415.861,318.728C412.541,357.638 403.231,394.818 387.931,430.268C364.081,485.528 320.561,536.898 263.181,557.658Z" style="fill:rgb(202,108,72);fill-rule:nonzero;"/>
            <path d="M247.911,198.288C247.991,198.408 247.961,198.578 247.851,198.668C247.731,198.758 247.571,198.748 247.461,198.648C240.251,191.758 232.731,186.208 224.901,182.008C205.331,171.528 181.901,174.458 169.471,194.308C161.571,206.928 160.581,223.998 162.571,238.508C166.361,266.178 178.961,293.738 195.291,316.338C199.281,321.858 204.301,328.198 210.361,335.368C232.621,361.698 259.901,383.008 289.871,399.238C298.501,403.908 307.521,407.718 316.921,410.668C317.531,410.858 318.111,411.158 318.611,411.558C320.961,413.388 322.761,415.658 324.021,418.368C324.461,419.308 324.031,420.428 323.071,420.818C318.621,422.638 310.951,420.748 305.441,419.398C266.311,409.808 226.481,386.708 192.791,360.818C146.391,325.148 111.181,274.318 105.621,214.918C98.951,143.778 137.351,53.999 222.531,57.929C236.701,58.589 251.201,63.239 260.651,73.769C263.921,77.419 265.901,82.139 266.591,87.919C266.691,88.699 266.251,89.459 265.531,89.779C260.751,91.909 256.17,94.979 251.791,99.009C251.541,99.239 251.131,99.139 251.021,98.819C246.661,86.049 236.161,78.919 222.861,77.759C204.341,76.139 184.641,88.819 181.221,108.348C175.611,140.418 206.841,157.228 234.231,150.368C234.551,150.288 234.841,150.548 234.801,150.878C234.511,152.958 233.311,155.068 233.001,157.388C230.641,174.818 239.561,185.118 247.911,198.288Z" style="fill:rgb(40,80,118);fill-rule:nonzero;"/>
            <path d="M233.861,98.829C233.861,92.139 228.441,86.719 221.751,86.719C215.061,86.719 209.641,92.139 209.641,98.829C209.641,105.518 215.061,110.938 221.751,110.938C228.441,110.938 233.861,105.518 233.861,98.829ZM248.021,102.848C247.551,103.898 246.461,104.898 245.891,105.838C242.961,110.688 240.391,115.878 238.191,121.408C235.141,129.048 234.311,136.738 234.901,144.228C235.011,145.618 234.261,146.488 232.661,146.828C221.631,149.178 211.401,147.968 201.961,143.218C187.911,136.158 181.511,121.568 185.681,106.418C187.971,98.109 192.821,91.689 200.251,87.158C209.781,81.359 221.911,79.839 232.221,83.849C240.071,86.899 245.351,92.919 248.071,101.908C248.171,102.218 248.151,102.548 248.021,102.848Z" style="fill:rgb(251,228,189);fill-rule:nonzero;"/>
            <path d="M229.861,98.899C229.861,103.418 226.201,107.078 221.681,107.078C217.161,107.078 213.501,103.418 213.501,98.899C213.501,94.379 217.161,90.719 221.681,90.719C226.201,90.719 229.861,94.379 229.861,98.899Z" style="fill:rgb(65,63,61);fill-rule:nonzero;"/>
            <path d="M269.221,160.978C268.781,161.108 268.351,160.728 268.441,160.268C269.931,152.528 271.751,141.108 264.101,135.868C256.89,130.928 251.031,124.338 246.531,116.108C245.951,115.048 245.951,113.768 246.521,112.698C251.291,103.868 258.441,97.389 267.971,93.259C268.481,93.038 269.071,93.048 269.581,93.298C282.641,99.788 289.891,113.878 289.031,128.218C288.211,142.068 282.091,152.758 270.671,160.288C270.171,160.618 269.691,160.848 269.221,160.978Z" style="fill:rgb(65,63,61);fill-rule:nonzero;"/>
            <path d="M243.821,119.728C244.001,119.778 244.221,119.988 244.481,120.378C248.691,126.778 252.951,131.938 257.26,135.868C259.461,137.868 264.901,140.088 265.711,143.978C265.821,144.528 265.571,145.078 265.101,145.368C257.431,149.958 249.441,151.008 241.111,148.518C239.831,148.138 238.861,147.088 238.581,145.778C236.981,138.328 239.991,127.178 242.971,120.148C243.131,119.758 243.411,119.618 243.821,119.728Z" style="fill:rgb(65,63,61);fill-rule:nonzero;"/>
            <path d="M173.931,350.008C174.011,350.078 174.021,350.188 173.971,350.278C173.911,350.358 173.801,350.388 173.711,350.348C165.601,346.548 159.221,342.308 151.091,336.568C135.921,325.848 122.731,313.538 111.501,299.648C91.251,274.578 77.081,239.498 81.691,206.988C83.741,192.538 89.891,178.678 102.301,170.568C102.541,170.408 102.861,170.618 102.811,170.898C101.661,177.908 101.001,185.348 100.831,193.208C100.131,224.718 106.971,254.568 121.351,282.758C134.531,308.608 152.061,331.018 173.931,350.008Z" style="fill:rgb(130,146,74);fill-rule:nonzero;"/>
            <path d="M232.011,316.448C231.721,316.258 231.341,316.468 231.331,316.808C231.291,317.828 231.411,318.788 231.691,319.698C233.391,325.098 237.831,337.908 233.641,341.418C228.351,345.838 213.671,332.088 210.291,328.268C192.951,308.618 180.241,286.518 172.151,261.958C166.241,244.028 163.011,223.798 168.651,205.508C171.041,197.788 176.771,189.298 183.901,185.118C210.701,169.428 240.031,194.118 255.861,213.568C265.861,225.848 274.921,239.198 283.041,253.608C292.931,271.148 301.511,288.388 308.801,305.328C310.671,309.668 319.781,331.108 308.911,329.678C301.131,328.658 294.241,320.768 288.831,315.038C288.481,314.668 288.001,314.348 287.401,314.088C286.911,313.878 286.401,314.348 286.571,314.858C287.641,318.088 288.791,321.318 290.011,324.548C290.851,326.738 291.191,328.848 291.021,330.858C290.531,336.958 283.731,333.638 280.671,331.738C273.881,327.518 268.541,321.508 263.151,315.478C262.511,314.758 261.841,314.288 261.151,314.058C260.611,313.888 260.111,314.388 260.281,314.928C261.371,318.278 262.631,321.738 264.051,325.288C265.451,328.788 267.141,335.338 265.741,339.038C263.661,344.518 257.881,342.038 254.461,339.658C246.991,334.468 241.301,327.518 235.491,319.818C234.381,318.358 233.221,317.238 232.011,316.448Z" style="fill:rgb(130,146,74);fill-rule:nonzero;"/>
            <path d="M269.171,328.468C269.051,327.948 269.691,327.608 270.061,327.998C274.521,332.708 284.061,340.378 290.761,337.528C295.381,335.568 294.641,331.788 295.101,327.428C295.131,327.168 295.431,327.028 295.651,327.178C299.911,330.188 303.121,332.768 308.221,333.518C308.681,333.588 309.101,333.848 309.351,334.238C309.541,334.538 315.131,340.958 326.101,353.498C328.511,356.248 336.981,365.958 333.141,369.658C328.381,374.258 316.311,371.088 310.641,368.968C302.671,365.988 294.741,361.518 286.831,355.548C278.821,349.498 273.131,344.878 269.781,341.688C269.481,341.398 269.361,340.978 269.451,340.578C270.301,337.068 270.201,333.038 269.171,328.468Z" style="fill:rgb(130,146,74);fill-rule:nonzero;"/>
            <path d="M223.761,343.688C226.701,344.838 228.131,346.088 231.781,346.068C236.811,346.028 239.371,341.478 239.281,336.718C239.251,335.088 239.141,333.438 238.971,331.778C238.931,331.378 239.431,331.158 239.701,331.468C244.751,337.348 257.441,350.278 266.101,344.628C266.421,344.418 266.851,344.478 267.111,344.768C267.601,345.318 271.351,348.488 278.361,354.278C290.031,363.918 303.861,372.398 319.111,375.358C319.701,375.468 320.231,375.758 320.641,376.188C321.391,376.978 324.291,380.148 329.341,385.708C334.211,391.048 340.901,398.718 340.601,404.678C340.281,411.028 327.771,409.258 323.801,408.308C314.251,406.018 305.301,402.718 296.931,398.408C269.211,384.118 244.771,365.958 223.611,343.908C223.511,343.808 223.621,343.638 223.761,343.688Z" style="fill:rgb(40,80,118);fill-rule:nonzero;"/>
            <path d="M190.251,364.268C190.331,364.258 190.431,364.278 190.541,364.308C190.551,364.318 190.551,364.318 190.561,364.328L200.991,372.178C201.231,372.358 201.341,372.648 201.271,372.938C195.541,397.258 189.961,419.728 184.521,440.358C182.351,448.608 179.891,456.308 177.161,463.478C174.371,470.798 169.931,479.428 162.601,481.738C148.381,486.228 153.951,460.818 155.761,454.558C160.751,437.208 165.931,426.518 176.421,400.768C180.131,391.658 184.511,379.668 189.581,364.788C189.691,364.458 189.911,364.288 190.251,364.268Z" style="fill:rgb(40,80,118);fill-rule:nonzero;"/>
            <path d="M205.701,375.468L217.811,383.498C218.111,383.698 218.271,384.058 218.221,384.408C211.701,428.028 204.421,472.718 196.371,518.488C195.661,522.538 195.051,525.428 194.541,527.158C192.361,534.628 183.571,548.468 174.881,538.558C173.691,537.198 172.771,535.018 172.131,532.018C170.701,525.288 170.331,518.158 171.021,510.648C171.961,500.338 173.541,490.068 175.751,479.838C176.461,476.528 177.621,473.018 179.231,469.328C183.121,460.358 186.591,449.838 189.651,437.758C196.741,409.848 201.801,389.198 204.831,375.818C204.921,375.428 205.371,375.248 205.701,375.468Z" style="fill:rgb(202,108,72);fill-rule:nonzero;"/>
            <path d="M222.291,387.548C222.341,387.228 222.701,387.058 222.981,387.218L236.851,395.228C237.091,395.368 237.231,395.618 237.241,395.888C237.411,433.578 237.341,466.338 235.641,499.838C234.361,524.848 233.141,545.198 228.141,567.968C226.291,576.388 221.271,592.298 212.331,595.438C199.721,599.858 197.651,576.978 197.321,569.978C196.911,561.068 196.771,552.488 196.911,544.258C197.001,539.118 198.161,530.638 200.391,518.828C203.091,504.508 207.221,480.598 212.771,447.108C216.031,427.448 219.201,407.598 222.291,387.548Z" style="fill:rgb(40,80,118);fill-rule:nonzero;"/>
            <path d="M242.201,398.388L263.281,408.778C263.551,408.908 263.741,409.168 263.781,409.458C267.321,431.468 269.711,453.058 270.961,474.228C271.911,490.248 271.721,505.668 270.391,520.478C269.571,529.578 267.651,540.678 263.561,549.378C261.151,554.518 256.04,558.878 250.351,555.558C245.021,552.448 241.271,544.388 239.231,538.638C238.111,535.488 237.631,533.298 237.931,529.708C238.461,523.368 238.841,518.298 239.061,514.499C241.241,476.948 242.061,438.388 241.521,398.818C241.521,398.468 241.881,398.228 242.201,398.388Z" style="fill:rgb(202,108,72);fill-rule:nonzero;"/>
            <path d="M252.001,560.448C252.371,560.748 252.231,561.338 251.761,561.438L233.571,565.168C233.101,565.268 232.691,564.858 232.791,564.388C234.421,556.868 235.661,550.508 236.511,545.308C236.561,545.008 236.631,544.818 236.721,544.738C237.001,544.458 237.491,544.558 237.641,544.938C239.741,550.178 243.921,556.738 249.001,558.978C250.701,559.728 251.701,560.218 252.001,560.448Z" style="fill:rgb(202,108,72);fill-rule:nonzero;"/>
        </g>
    </g>
</svg>
