<?xml version="1.0"?>
<svg xmlns:rdf="http://www.w3.org/1999/02/22-rdf-syntax-ns#" xmlns="http://www.w3.org/2000/svg" xmlns:cc="http://creativecommons.org/ns#" xmlns:dc="http://purl.org/dc/elements/1.1/" xmlns:svg="http://www.w3.org/2000/svg" id="svg1897" viewBox="0 0 687.83 527.97" version="1.0">
  <g id="g1918" transform="translate(-20.176 -29.028)">
    <path id="path2875" stroke-linejoin="round" d="m608 29.995l-8.36 18.182c-0.14-0.008-0.29-0.013-0.43-0.019l-10.11-18.671 1.8 19.148c-38.28 5.019-116.47 47.454-134.61 74.435 0 0-16.64-7.71-39.68-13.24l12.32-7.29-46.47 4.62 29.61-17.765-43.73 14.455 15.9-24.061-29.44 21.211-24.97-22.37 9.19 23.09-29.44-6.121 15.89 15.071c-20.86 4.98-35.92 11.1-35.92 11.1-19.72-26.553-93.31-66.458-131.47-72.506l1.61-17.174-9.57 16.392c-0.41-0.009-0.84-0.023-1.24-0.019l-7.37-17.967-0.49 19.207c-0.41 0.152-0.8 0.333-1.17 0.515l-16.03-12.818 10.1 18.064c-0.28 0.373-0.55 0.762-0.82 1.163l-20.95-3.362 17.34 10.344c-12.89 32.202-5.11 109.4 15.32 162.45-9.74 62.94 52.07 119.62 85.68 267.83 94.26 21.17 281.65 0.76 281.65 0.76 33.21-154.48 78.14-228.62 65.34-263.84 32.64-30.14 50.04-129.43 38.79-167.18l19.69-8.764-22.09 0.808 14.61-17.374-20.76 11.765 0.28-20.07z" stroke="#fc0" stroke-linecap="round" stroke-width=".91685" fill="#fc0"/>
    <path id="path1973" stroke-linejoin="round" d="m365.86 247c0 60.12-25.27 108.91-56.41 108.91s-56.41-48.79-56.41-108.91 25.27-108.91 56.41-108.91 56.41 48.79 56.41 108.91z" stroke="#fff6d5" stroke-linecap="round" stroke-width="4.631" fill="#fff6d5"/>
    <path id="path2093" stroke-linejoin="round" d="m479.53 244.98c0 59.56-25.27 107.91-56.41 107.91-31.13 0-56.4-48.35-56.4-107.91 0-59.57 25.27-107.92 56.4-107.92 31.14 0 56.41 48.35 56.41 107.92z" stroke="#fff6d5" stroke-linecap="round" stroke-width="4.631" fill="#fff6d5"/>
    <path id="path2017" d="m136.75 557.89a41.619 40.628 0 1 1 -83.24 0 41.619 40.628 0 1 1 83.24 0z" stroke="#806600" fill="#806600" transform="matrix(1.4252 0 0 2.1478 173.34 -936.16)"/>
    <path id="path2019" d="m136.75 557.89a41.619 40.628 0 1 1 -83.24 0 41.619 40.628 0 1 1 83.24 0z" fill="#fff" transform="matrix(1.2059 0 0 1.8172 195.18 -756.06)"/>
    <path id="path2021" d="m94.622 496.98a17.177 16.574 0 1 1 -34.353 0 17.177 16.574 0 1 1 34.353 0z" fill="#0055d4" transform="matrix(2.6036 0 0 2.5968 108.07 -1018.8)"/>
    <path id="path2023" d="m107.02 675.81a16.846 15.855 0 1 1 -33.692 0 16.846 15.855 0 1 1 33.692 0z" transform="matrix(1.2228 0 0 1.3057 199.21 -611.5)"/>
    <path id="path2026" d="m136.75 557.89a41.619 40.628 0 1 1 -83.24 0 41.619 40.628 0 1 1 83.24 0z" stroke="#806600" fill="#806600" transform="matrix(1.4252 0 0 2.1478 290.75 -934.34)"/>
    <path id="path2028" d="m136.75 557.89a41.619 40.628 0 1 1 -83.24 0 41.619 40.628 0 1 1 83.24 0z" fill="#fff" transform="matrix(1.2059 0 0 1.8172 312.59 -754.24)"/>
    <path id="path2030" d="m94.622 496.98a17.177 16.574 0 1 1 -34.353 0 17.177 16.574 0 1 1 34.353 0z" fill="#0055d4" transform="matrix(2.6036 0 0 2.5968 224.7 -1018.8)"/>
    <path id="path2032" d="m107.02 675.81a16.846 15.855 0 1 1 -33.692 0 16.846 15.855 0 1 1 33.692 0z" transform="matrix(1.2228 0 0 1.3057 315.84 -611.44)"/>
    <path id="path2037" d="m242 248.54c-10.98-14.38 3.01-47.72 27.97-66.69 24.97-18.97 60.91-23.56 71.89-9.18 10.98 14.37-26.46 18.86-51.42 37.83-24.97 18.97-37.46 52.41-48.44 38.04z" stroke="#806600" fill="#806600"/>
    <path id="path2039" d="m257.81 220.75c-6.63-12.07 7.65-35.64 28.56-47.12 20.92-11.49 48.46-10.9 55.08 1.18 6.63 12.08-22.02 11.24-42.93 22.73-20.91 11.48-34.08 35.29-40.71 23.21z" stroke="#a80" fill="#a80"/>
    <path id="path1970" d="m107.02 675.81a16.846 15.855 0 1 1 -33.692 0 16.846 15.855 0 1 1 33.692 0z" fill="#fff" transform="matrix(.65056 0 0 .69465 357.91 -213.43)"/>
    <path id="path2052" d="m107.02 675.81a16.846 15.855 0 1 1 -33.692 0 16.846 15.855 0 1 1 33.692 0z" fill="#fff" transform="matrix(.65056 0 0 .69465 241.27 -213.48)"/>
    <path id="path2055" d="m496.9 247.38c10.98-14.38-3.01-47.73-27.98-66.69-24.96-18.97-60.91-23.56-71.89-9.19-10.98 14.38 26.46 18.87 51.43 37.84s37.46 52.41 48.44 38.04z" stroke="#806600" fill="#806600"/>
    <path id="path2057" d="m481.09 219.59c6.63-12.08-7.66-35.64-28.57-47.13-20.91-11.48-48.45-10.89-55.08 1.19s22.03 11.24 42.94 22.73c20.91 11.48 34.08 35.29 40.71 23.21z" stroke="#a80" fill="#a80"/>
    <path id="path2930" stroke-linejoin="round" d="m-348.81 430.06a117.92 61.437 0 1 1 -235.84 0 117.92 61.437 0 1 1 235.84 0z" transform="matrix(.61204 0 0 .61043 654.29 185.47)" stroke="#a80" stroke-linecap="round" stroke-width="1.5" fill="#a80"/>
    <path id="path3852" stroke-linejoin="round" d="m-348.81 430.06a117.92 61.437 0 1 1 -235.84 0 117.92 61.437 0 1 1 235.84 0z" transform="matrix(.38773 0 0 .38671 550.28 283.5)" stroke="#e9afaf" stroke-linecap="round" stroke-width="1.5" fill="#e9afaf"/>
    <path id="path2925" stroke-linejoin="round" d="m461.91 311.88c-36.6 0-69.65 10.22-93.17 26.61-23.45-16.03-56.14-26-92.28-26-71.31 0-129.18 38.76-129.18 86.51s57.87 86.49 129.18 86.49c36.6 0 69.65-10.19 93.16-26.59 23.46 16.04 56.14 25.98 92.29 25.98 71.31 0 129.18-38.74 129.18-86.49s-57.87-86.51-129.18-86.51z" stroke="#fea" stroke-linecap="round" stroke-width=".91685" fill="#e5ff80"/>
    <path id="path2870" stroke-linejoin="round" d="m337.31 321.53c5.05-8.69 55.38-8.56 60.39 0.15 5.02 8.71-20.25 52.12-30.32 52.1-10.06-0.03-35.13-43.57-30.07-52.25z" stroke="#e9afaf" stroke-linecap="round" stroke-width=".35129" fill="#e9afaf"/>
    <path id="path2903" stroke-linejoin="round" d="m165.4 195.18c-15.21-6.47-25.15-88.33-11.93-98.235s89.27 22.435 91.26 38.805-64.12 65.9-79.33 59.43z" stroke="#a80" stroke-linecap="round" stroke-width=".57703" fill="#a80"/>
    <path id="path2905" stroke-linejoin="round" d="m572.83 190.36c15.21-6.47 25.15-88.33 11.93-98.232-13.22-9.905-89.27 22.432-91.26 38.812-1.99 16.37 64.11 65.89 79.33 59.42z" stroke="#a80" stroke-linecap="round" stroke-width=".57703" fill="#a80"/>
    <path id="path2943" stroke-linejoin="round" d="m194.14 173.81c-8.49-3.61-14.04-49.28-6.66-54.8 7.38-5.53 49.8 12.51 50.91 21.65 1.11 9.13-35.77 36.75-44.25 33.15z" stroke="#806600" stroke-linecap="round" stroke-width=".32189" fill="#806600"/>
    <path id="path2945" stroke-linejoin="round" d="m543.53 168.36c8.49-3.61 14.04-49.27 6.66-54.8-7.38-5.52-49.8 12.52-50.91 21.65-1.11 9.14 35.77 36.76 44.25 33.15z" stroke="#806600" stroke-linecap="round" stroke-width=".32189" fill="#806600"/>
    <path id="path1902" d="m305.34 342.33c-6.74-19.34-46.98-27.03-80.48-15.37s-60.26 42.66-53.52 62c6.74 19.35 34.34-13.13 67.84-24.79 33.5-11.65 72.9-2.5 66.16-21.84z" stroke="#f6ffd5" fill="#f6ffd5"/>
    <path id="path3840" stroke-linejoin="round" d="m291.95 364c-226.75-95.13-269.37-32.81-269.37-32.81" stroke="#806600" stroke-linecap="round" stroke-width="4.8086" fill="none"/>
    <path id="path3842" stroke-linejoin="round" d="m314.41 396.88c-236.97-49.92-272.68 20.37-272.68 20.37" stroke="#806600" stroke-linecap="round" stroke-width="4.8419" fill="none"/>
    <path id="path3844" stroke-linejoin="round" d="m285.97 425.37c-183.66 45.26-198 125.88-198 125.88" stroke="#806600" stroke-linecap="round" stroke-width="4.2427" fill="none"/>
    <path id="path1904" d="m426.14 341.29c6.74-19.35 46.98-27.03 80.48-15.37s60.26 42.66 53.52 62-34.33-13.13-67.83-24.79-72.91-2.5-66.17-21.84z" stroke="#f6ffd5" fill="#f6ffd5"/>
    <path id="path3846" stroke-linejoin="round" d="m436.23 367.63c226.76-95.13 269.37-32.81 269.37-32.81" stroke="#806600" stroke-linecap="round" stroke-width="4.8086" fill="none"/>
    <path id="path3848" stroke-linejoin="round" d="m413.78 400.5c236.96-49.91 272.67 20.38 272.67 20.38" stroke="#806600" stroke-linecap="round" stroke-width="4.8419" fill="none"/>
    <path id="path3850" stroke-linejoin="round" d="m442.22 429c183.65 45.26 198 125.88 198 125.88" stroke="#806600" stroke-linecap="round" stroke-width="4.2427" fill="none"/>
    <path id="path1958" d="m480.34 154.27c-3.74-4.9-31.36-7.36-55.22-4.93-23.87 2.44-43.98 9.76-40.23 14.66 3.75 4.89 24.52-2.79 48.38-5.22s50.82 0.38 47.07-4.51z" stroke="#806600" stroke-width=".41629" fill="#806600"/>
    <path id="path1960" d="m458.36 135.75c-2.68-3.8-22.36-5.71-39.37-3.82s-31.35 7.57-28.68 11.37c2.67 3.79 17.48-2.16 34.49-4.05s36.23 0.3 33.56-3.5z" stroke="#806600" stroke-width=".30957" fill="#806600"/>
    <path id="path1983" d="m223.25 200.45c-0.27 0.02-0.55 0.16-0.88 0.41-5.2 3.91-7.37 30.81-4.32 53.81 1.51 11.42 4.33 21.87 7.39 29.02-6.66 0.02-15.16 2.6-22.67 7.48-13.53 8.82-23.76 25.2-20.47 32.77 3.3 7.56 13.84-9.54 27.37-18.36 13.54-8.81 30.07-9.34 26.77-16.9-0.08-0.18-0.18-0.35-0.27-0.52 0.06-7.99-5.72-23.94-8.1-41.9-2.85-21.56-0.81-46.06-4.82-45.81z" stroke="#806600" stroke-width=".42533" fill="#806600"/>
    <path id="path1926" d="m202.45 203.99c-0.21 0.02-0.43 0.13-0.68 0.32-4.01 3.02-5.68 23.77-3.33 41.52 1.16 8.81 3.34 16.87 5.71 22.39-5.15 0.02-11.71 2.01-17.5 5.77-10.44 6.8-18.34 19.45-15.79 25.28 2.54 5.84 10.67-7.36 21.12-14.16 10.44-6.8 23.19-7.2 20.65-13.04-0.06-0.14-0.14-0.27-0.21-0.4 0.04-6.17-4.42-18.47-6.25-32.33-2.2-16.64-0.62-35.54-3.72-35.35z" stroke="#806600" stroke-width=".32818" fill="#806600"/>
    <path id="path1928" d="m185.78 212.72c-0.13 0.01-0.27 0.08-0.43 0.2-2.52 1.9-3.58 14.98-2.1 26.16 0.74 5.55 2.11 10.63 3.6 14.1-3.24 0.01-7.37 1.27-11.02 3.64-6.58 4.29-11.56 12.25-9.95 15.93 1.6 3.67 6.72-4.64 13.3-8.92 6.58-4.29 14.62-4.54 13.01-8.22-0.04-0.09-0.08-0.17-0.13-0.26 0.03-3.88-2.78-11.63-3.94-20.36-1.38-10.48-0.39-22.39-2.34-22.27z" stroke="#806600" stroke-width=".20675" fill="#806600"/>
    <path id="path2083" d="m509.17 196.94c0.26 0.02 0.55 0.16 0.87 0.4 5.2 3.92 7.37 30.82 4.32 53.82-1.51 11.42-4.33 21.86-7.39 29.02 6.66 0.02 15.16 2.6 22.67 7.48 13.53 8.81 23.76 25.2 20.47 32.76-3.3 7.57-13.83-9.54-27.37-18.35s-30.07-9.34-26.77-16.9c0.08-0.19 0.18-0.35 0.27-0.53-0.06-7.98 5.73-23.93 8.1-41.9 2.85-21.56 0.81-46.05 4.83-45.8z" stroke="#806600" stroke-width=".42533" fill="#806600"/>
    <path id="path2085" d="m529.96 200.48c0.21 0.02 0.43 0.12 0.68 0.31 4.01 3.02 5.68 23.78 3.33 41.52-1.16 8.82-3.34 16.88-5.7 22.4 5.14 0.01 11.7 2 17.49 5.77 10.44 6.8 18.34 19.45 15.79 25.28-2.54 5.84-10.67-7.36-21.11-14.16-10.45-6.8-23.2-7.21-20.66-13.04 0.06-0.14 0.14-0.27 0.21-0.41-0.04-6.16 4.42-18.46 6.25-32.33 2.2-16.63 0.63-35.53 3.72-35.34z" stroke="#806600" stroke-width=".32818" fill="#806600"/>
    <path id="path2087" d="m546.63 209.21c0.13 0.01 0.27 0.08 0.43 0.2 2.52 1.9 3.58 14.97 2.1 26.15-0.73 5.56-2.11 10.63-3.6 14.11 3.24 0.01 7.38 1.26 11.02 3.64 6.58 4.28 11.56 12.25 9.95 15.92-1.6 3.68-6.72-4.63-13.3-8.92-6.58-4.28-14.61-4.54-13.01-8.21 0.04-0.09 0.09-0.17 0.13-0.26-0.03-3.88 2.78-11.63 3.94-20.37 1.38-10.48 0.39-22.38 2.34-22.26z" stroke="#806600" stroke-width=".20675" fill="#806600"/>
    <path id="path2089" d="m263.37 152.5c3.75-4.89 31.36-7.35 55.23-4.92 23.86 2.43 43.98 9.76 40.23 14.65-3.75 4.9-24.52-2.78-48.38-5.22-23.87-2.43-50.83 0.39-47.08-4.51z" stroke="#806600" stroke-width=".41629" fill="#806600"/>
    <path id="path2091" d="m285.36 133.98c2.67-3.79 22.36-5.7 39.37-3.81 17.01 1.88 31.35 7.57 28.68 11.36-2.68 3.8-17.48-2.16-34.49-4.05-17.01-1.88-36.23 0.3-33.56-3.5z" stroke="#806600" stroke-width=".30957" fill="#806600"/>
  </g>
  <metadata>
    <rdf:RDF>
      <cc:Work>
        <dc:format>image/svg+xml</dc:format>
        <dc:type rdf:resource="http://purl.org/dc/dcmitype/StillImage"/>
        <cc:license rdf:resource="http://creativecommons.org/licenses/publicdomain/"/>
        <dc:publisher>
          <cc:Agent rdf:about="http://openclipart.org/">
            <dc:title>Openclipart</dc:title>
          </cc:Agent>
        </dc:publisher>
        <dc:title>Sad tiger cat</dc:title>
        <dc:date>2006-09-13T10:49:37</dc:date>
        <dc:description>Sad cartoon tiger.</dc:description>
        <dc:source>http://openclipart.org/detail/145/sad-tiger-cat-by-peterm</dc:source>
        <dc:creator>
          <cc:Agent>
            <dc:title>PeterM</dc:title>
          </cc:Agent>
        </dc:creator>
        <dc:subject>
          <rdf:Bag>
            <rdf:li>animal</rdf:li>
            <rdf:li>cartoon</rdf:li>
            <rdf:li>cat</rdf:li>
            <rdf:li>clip art</rdf:li>
            <rdf:li>clipart</rdf:li>
            <rdf:li>feline</rdf:li>
            <rdf:li>mammal</rdf:li>
            <rdf:li>mascot</rdf:li>
            <rdf:li>no contour</rdf:li>
            <rdf:li>sad</rdf:li>
            <rdf:li>tiger</rdf:li>
            <rdf:li>toy</rdf:li>
          </rdf:Bag>
        </dc:subject>
      </cc:Work>
      <cc:License rdf:about="http://creativecommons.org/licenses/publicdomain/">
        <cc:permits rdf:resource="http://creativecommons.org/ns#Reproduction"/>
        <cc:permits rdf:resource="http://creativecommons.org/ns#Distribution"/>
        <cc:permits rdf:resource="http://creativecommons.org/ns#DerivativeWorks"/>
      </cc:License>
    </rdf:RDF>
  </metadata>
</svg>
