<?xml version="1.0" encoding="UTF-8" standalone="no"?>
<!DOCTYPE svg PUBLIC "-//W3C//DTD SVG 1.1//EN" "http://www.w3.org/Graphics/SVG/1.1/DTD/svg11.dtd">
<svg width="100%" height="100%" viewBox="0 0 1851 1910" version="1.1" xmlns="http://www.w3.org/2000/svg" xmlns:xlink="http://www.w3.org/1999/xlink" xml:space="preserve" xmlns:serif="http://www.serif.com/" style="fill-rule:evenodd;clip-rule:evenodd;stroke-linejoin:round;stroke-miterlimit:2;">
    <g transform="matrix(0.64,0,0,0.64,0,0)">
        <g transform="matrix(4.16667,0,0,4.16667,0,0)">
            <path d="M397.797,714.076L11.843,591.608C-2.276,587.128 -4.283,567.975 8.601,560.665L316.696,385.862C320.903,383.475 325.928,382.997 330.51,384.546L681.424,503.199C694.624,507.662 697.121,525.25 685.685,533.211L433.704,708.633C423.23,715.924 409.962,717.935 397.797,714.076Z" style="fill:rgb(208,123,83);fill-rule:nonzero;"/>
            <path d="M597.35,105.091L596.38,115.611C596.35,115.941 596.08,116.191 595.75,116.201C595.42,116.211 595.14,115.981 595.09,115.651C594.47,111.411 593.15,107.691 591.13,104.481C589.9,102.541 587.87,100.771 585.91,98.561C574.28,85.471 556.76,80.581 539.69,80.351C536.96,80.321 534.67,80.611 532.82,81.221C531.73,81.581 531.38,82.151 531.79,82.921C531.4,82.161 531.04,81.771 530.71,81.751C512.26,80.641 493.95,86.641 477.92,95.341C468.05,100.711 458.48,106.671 449.22,113.221L437.43,121.001C437.26,121.111 437.19,121.341 437.27,121.531C437.35,121.721 437.56,121.821 437.76,121.771L439.28,121.401C439.38,121.371 439.47,121.341 439.56,121.301L453.24,114.771C454.15,114.601 455.3,114.611 456.7,114.801C472.56,116.991 488.32,119.751 503.97,123.061C507.69,123.851 511.28,125.111 514.74,126.861L472.65,146.691L468.4,148.261C468.2,148.331 467.99,148.391 467.78,148.431C443.82,152.741 428.03,153.731 399.45,155.881C398.57,155.951 397.94,155.961 397.57,155.931C397.02,155.881 396.81,155.191 397.24,154.851L422.1,135.081C422.96,134.411 423.26,133.241 422.85,132.231L422.82,132.171C422.45,131.291 421.36,130.971 420.57,131.521C413.87,136.211 409.37,139.631 407.07,141.801C401.74,146.811 395.57,151.941 388.56,157.211C385.75,159.331 383.41,161.401 381.54,163.411C381.12,163.861 380.39,163.761 380.1,163.221C377.75,158.871 374.86,155.321 371.45,152.551C370.96,152.161 370.88,151.441 371.27,150.951C376.32,144.501 380.2,138.131 385.83,133.241C391.52,128.291 398.08,122.431 405.51,115.671C405.99,115.241 405.95,114.471 405.42,114.091L405.17,113.911C404.32,113.291 403.16,113.281 402.29,113.901C395.93,118.391 390.44,123.231 385.83,128.411C381.33,133.471 377.54,137.001 373.06,141.981C371.28,143.951 369.74,146.721 368.19,148.931C367.87,149.381 367.17,149.251 367.05,148.711C366.3,145.501 366.21,142.481 366.78,139.671C370.18,133.431 373.34,127.821 377.74,121.841C382.12,115.891 386.38,109.721 390.52,103.321C391.81,101.691 393.25,99.931 394.82,98.041C396.35,96.211 397.76,94.421 399.05,92.691C401.68,89.161 404.58,85.651 407.77,82.171C413.3,76.151 418.36,70.721 422.97,65.881C436.14,52.071 450.59,39.361 466.32,27.741C478.08,19.051 490.76,11.891 504.35,6.271C526.23,-2.769 546.96,-1.319 560.93,19.171C564.19,23.951 567.12,28.931 569.71,34.121C578.42,51.551 584.21,63.261 587.08,69.231C592.48,80.481 595.9,92.441 597.35,105.091Z" style="fill:rgb(219,167,76);fill-rule:nonzero;"/>
            <path d="M290.35,94.101C292.87,96.801 295.29,99.461 297.62,102.071C304.31,109.581 313.43,118.191 318.19,124.121C323.26,130.431 328.4,136.771 333.61,143.131C332.78,144.151 331.69,144.811 330.32,145.111C329.92,145.201 329.5,145.061 329.22,144.761C322.17,137.131 313.2,130.661 304.93,125.011C304.05,124.411 302.88,124.451 302.04,125.111L301.9,125.221C301.19,125.791 301.23,126.881 301.98,127.391C311.13,133.611 319.27,140.351 326.39,147.601C326.87,148.101 326.93,148.871 326.52,149.431C323.12,154.131 320.77,159.081 319.48,164.271C319.31,164.961 318.48,165.261 317.9,164.841L307.29,157.181C306.5,156.611 305.55,156.291 304.57,156.261C280.61,155.611 261.62,154.591 240.62,151.121C231.74,149.651 223.18,147.101 214.93,143.481C206.63,139.831 200.55,136.961 194.46,131.591C193.7,130.931 193.08,130.101 192.6,129.101C198.06,126.151 203.33,124.951 208.4,125.501C215.18,127.071 221.76,128.701 228.14,130.391C234.27,132.031 241.37,132.771 248.08,134.491C260.47,137.661 272.84,140.501 285.2,143.011C285.47,143.061 285.61,142.711 285.38,142.561C277.62,137.401 271.73,133.161 263.83,128.751C258.709,125.901 252.46,122.131 245.09,117.451C242.98,116.121 240.75,115.131 238.4,114.501C227.69,108.781 216.34,104.371 204.34,101.261C197.73,99.551 191.36,98.561 185.23,98.281C180.39,97.681 174.89,97.881 168.72,98.871C159.39,100.381 151.4,103.911 144.75,109.451C137.82,115.231 133.23,120.191 130.97,124.341C130.66,124.911 130.229,125.391 129.71,125.771C128.78,126.431 128.24,127.051 128.11,127.621C127.65,129.541 127.2,133.311 126.75,138.931C126.76,130.791 127.32,124.761 128.42,120.831C130.56,113.161 134.75,103.491 140.98,91.831C146.15,82.161 152.04,72.061 158.65,61.551C162.28,55.781 165.18,51.541 167.37,48.811C182.85,29.491 203.85,32.791 223.43,43.131C232.32,47.831 241.76,53.981 251.76,61.571C266.17,72.521 279.04,83.361 290.35,94.101Z" style="fill:rgb(219,167,76);fill-rule:nonzero;"/>
            <path d="M597.35,105.091L596.96,120.041C596.43,120.631 596.1,121.121 595.96,121.511C595.49,122.821 593.6,122.741 593.25,121.391C590.41,110.591 586.15,101.881 576.69,95.291C565.18,87.271 552.04,83.611 537.27,84.321C536.8,84.341 536.45,84.761 536.5,85.231C538.04,98.091 536.17,110.671 526.8,120.221C523.49,123.601 518.63,129.861 514.13,132.781C508.83,136.221 502.84,139.901 496.1,142.901C484.6,148.011 472.43,151.631 459.58,153.741C447.73,155.691 436.04,157.071 424.49,157.871C410.52,158.841 400.06,159.661 393.13,160.331C392.57,160.381 392.02,160.591 391.56,160.921L382.37,167.561C381.95,167.871 381.74,168.381 381.83,168.891C382.72,174.141 382.49,179.191 381.13,184.061C380.98,184.601 381.34,185.141 381.89,185.211C421.4,190.301 460.92,190.771 500.45,186.601C501.3,186.511 502.14,186.661 502.95,187.041C502.54,187.571 502.12,188.091 501.69,188.611C501.22,189.181 501.22,189.641 501.67,189.981C478.46,192.731 455.14,193.731 431.69,193.001C415.26,192.491 397.76,191.071 379.2,188.761C378.78,188.711 378.35,188.811 377.99,189.041C374.16,191.491 370.01,192.881 365.29,193.261C362.02,193.521 359.94,193.741 359.04,193.921C356.97,194.331 354.89,194.431 352.82,194.231C347.26,193.701 341.45,192.621 335.38,191.011C334.93,190.891 334.44,191.061 334.16,191.441C328.71,198.791 323.74,206.451 319.24,214.421C318.04,216.541 316.16,217.451 313.61,217.161C313.64,216.491 313.35,216.121 312.76,216.071C316.87,207.791 321.99,200.191 328.1,193.271C329.27,191.941 330.08,190.931 330.52,190.221C330.75,189.851 330.59,189.371 330.19,189.211C328.73,188.611 327.51,188.451 326.02,189.031C315.97,192.961 305.08,195.541 293.69,199.291C285.1,202.121 274.08,205.781 260.63,210.281C241.02,216.851 222.65,223.991 205.54,231.711C201.61,233.481 193.64,237.791 181.63,244.641C180.77,245.131 179.68,244.721 179.37,243.781L179.31,243.581C178.96,242.521 179.39,241.371 180.35,240.811C193.34,233.161 206.32,226.711 219.27,221.441C231.15,216.611 243.91,211.881 257.549,207.231C281.02,199.221 300.03,193.071 314.57,188.771C315.74,188.431 318.85,187.561 323.92,186.171C324.15,186.111 324.2,185.811 324,185.671C322.35,184.521 321.09,183.181 320.2,181.651C320.03,181.341 319.67,181.171 319.32,181.231C313.03,182.301 306.57,183.111 299.92,183.671C268.13,186.341 236.3,187.601 204.42,187.451C204.28,186.801 204.01,186.481 203.61,186.481L203.21,186.481C186.08,184.291 168.61,180.901 152.78,173.281C143.02,168.591 135.39,161.691 129.899,152.601C129.56,152.031 129.35,151.891 129.27,152.201L129.41,151.851C129.509,151.601 129.5,151.321 129.39,151.071C127.6,147.181 126.72,143.141 126.75,138.931C127.2,133.311 127.65,129.541 128.11,127.621C128.24,127.051 128.78,126.431 129.71,125.771C130.229,125.391 130.66,124.911 130.97,124.341C133.23,120.191 137.82,115.231 144.75,109.451C151.4,103.911 159.39,100.381 168.72,98.871C174.89,97.881 180.39,97.681 185.23,98.281C182.78,103.911 182.16,109.271 183.37,114.381C184.78,120.341 187.86,125.251 192.6,129.101C193.08,130.101 193.7,130.931 194.46,131.591C200.55,136.961 206.63,139.831 214.93,143.481C223.18,147.101 231.74,149.651 240.62,151.121C261.62,154.591 280.61,155.611 304.57,156.261C305.55,156.291 306.5,156.611 307.29,157.181L317.9,164.841C318.48,165.261 319.31,164.961 319.48,164.271C320.77,159.081 323.12,154.131 326.52,149.431C326.93,148.871 326.87,148.101 326.39,147.601C319.27,140.351 311.13,133.611 301.98,127.391C301.23,126.881 301.19,125.791 301.9,125.221L302.04,125.111C302.88,124.451 304.05,124.411 304.93,125.011C313.2,130.661 322.17,137.131 329.22,144.761C329.5,145.061 329.92,145.201 330.32,145.111C331.69,144.811 332.78,144.151 333.61,143.131C334.13,143.911 334.73,144.281 335.42,144.231C334.6,146.231 332.75,147.661 331.92,148.891C330.29,151.311 328.05,153.481 326.67,156.171C323.52,162.291 321.88,168.451 321.77,174.661C321.71,177.761 323.06,180.301 325.82,182.281C337.69,190.801 356.44,191.921 369.65,188.481C372.3,187.791 374.47,186.741 376.18,185.351C376.85,184.801 377.33,184.051 377.54,183.211C380.44,171.571 377.11,157.711 364.47,153.561C364.14,153.451 363.86,153.221 363.68,152.921C361.66,149.451 363.02,145.861 362.23,142.381C364.18,142.791 365.7,141.891 366.78,139.671C366.21,142.481 366.3,145.501 367.05,148.711C367.17,149.251 367.87,149.381 368.19,148.931C369.74,146.721 371.28,143.951 373.06,141.981C377.54,137.001 381.33,133.471 385.83,128.411C390.44,123.231 395.93,118.391 402.29,113.901C403.16,113.281 404.32,113.291 405.17,113.911L405.42,114.091C405.95,114.471 405.99,115.241 405.51,115.671C398.08,122.431 391.52,128.291 385.83,133.241C380.2,138.131 376.32,144.501 371.27,150.951C370.88,151.441 370.96,152.161 371.45,152.551C374.86,155.321 377.75,158.871 380.1,163.221C380.39,163.761 381.12,163.861 381.54,163.411C383.41,161.401 385.75,159.331 388.56,157.211C395.57,151.941 401.74,146.811 407.07,141.801C409.37,139.631 413.87,136.211 420.57,131.521C421.36,130.971 422.45,131.291 422.82,132.171L422.85,132.231C423.26,133.241 422.96,134.411 422.1,135.081L397.24,154.851C396.81,155.191 397.02,155.881 397.57,155.931C397.94,155.961 398.57,155.951 399.45,155.881C428.03,153.731 443.82,152.741 467.78,148.431C467.99,148.391 468.2,148.331 468.4,148.261L472.65,146.691C486.85,143.371 499.93,137.641 511.9,129.491C512.61,129.001 523.281,122.505 529.79,107.971C533.66,99.481 534.33,91.131 531.79,82.921C531.38,82.151 531.73,81.581 532.82,81.221C534.67,80.611 536.96,80.321 539.69,80.351C556.76,80.581 574.28,85.471 585.91,98.561C587.87,100.771 589.9,102.541 591.13,104.481C593.15,107.691 594.47,111.411 595.09,115.651C595.14,115.981 595.42,116.211 595.75,116.201C596.08,116.191 596.35,115.941 596.38,115.611L597.35,105.091Z" style="fill:rgb(202,130,55);fill-rule:nonzero;"/>
            <path d="M596.96,120.041C596.49,127.291 594.62,134.121 591.36,140.511C591.18,140.871 591.14,141.251 591.25,141.641L590.68,142.121C590.46,142.301 590.27,142.521 590.12,142.761C582.53,154.841 571.84,164.231 558.03,170.931C539.85,179.741 521.49,185.111 502.95,187.041C502.14,186.661 501.3,186.511 500.45,186.601C460.92,190.771 421.4,190.301 381.89,185.211C381.34,185.141 380.98,184.601 381.13,184.061C382.49,179.191 382.72,174.141 381.83,168.891C381.74,168.381 381.95,167.871 382.37,167.561L391.56,160.921C392.02,160.591 392.57,160.381 393.13,160.331C400.06,159.661 410.52,158.841 424.49,157.871C436.04,157.071 447.73,155.691 459.58,153.741C472.43,151.631 484.6,148.011 496.1,142.901C502.84,139.901 508.83,136.221 514.13,132.781C518.63,129.861 523.49,123.601 526.8,120.221C536.17,110.671 538.04,98.091 536.5,85.231C536.45,84.761 536.8,84.341 537.27,84.321C552.04,83.611 565.18,87.271 576.69,95.291C586.15,101.881 590.41,110.591 593.25,121.391C593.6,122.741 595.49,122.821 595.96,121.511C596.1,121.121 596.43,120.631 596.96,120.041Z" style="fill:rgb(219,167,76);fill-rule:nonzero;"/>
            <path d="M390.52,103.321C386.38,109.721 382.12,115.891 377.74,121.841C373.34,127.821 370.18,133.431 366.78,139.671C365.7,141.891 364.18,142.791 362.23,142.381C356.75,141.611 351.24,141.201 345.7,141.161C341.97,141.131 338.54,142.161 335.42,144.231C334.73,144.281 334.13,143.911 333.61,143.131C328.4,136.771 323.26,130.431 318.19,124.121C313.43,118.191 304.31,109.581 297.62,102.071C295.29,99.461 292.87,96.801 290.35,94.101C301.93,90.191 313.71,89.361 325.7,91.631C334.69,93.331 356.3,97.231 390.52,103.321Z" style="fill:rgb(41,84,67);fill-rule:nonzero;"/>
            <path d="M449.22,113.221C450.44,113.981 451.78,114.501 453.24,114.771L439.56,121.301C439.47,121.341 439.38,121.371 439.28,121.401L437.76,121.771C437.56,121.821 437.35,121.721 437.27,121.531C437.19,121.341 437.26,121.111 437.43,121.001L449.22,113.221Z" style="fill:rgb(41,84,67);fill-rule:nonzero;"/>
            <path d="M238.4,114.501C240.75,115.131 242.98,116.121 245.09,117.451C252.46,122.131 258.709,125.901 263.83,128.751C271.73,133.161 277.62,137.401 285.38,142.561C285.61,142.711 285.47,143.061 285.2,143.011C272.84,140.501 260.47,137.661 248.08,134.491C241.37,132.771 234.27,132.031 228.14,130.391C221.76,128.701 215.18,127.071 208.4,125.501L238.4,114.501Z" style="fill:rgb(41,84,67);fill-rule:nonzero;"/>
            <path d="M514.74,126.861L472.65,146.691C486.85,143.371 504.29,136.444 515.104,127.172C515.091,127.154 514.919,127.013 514.74,126.861Z" style="fill:rgb(41,84,67);fill-rule:nonzero;"/>
            <path d="M362.23,142.381C363.02,145.861 361.66,149.451 363.68,152.921C363.86,153.221 364.14,153.451 364.47,153.561C377.11,157.711 380.44,171.571 377.54,183.211C377.33,184.051 376.85,184.801 376.18,185.351C374.47,186.741 372.3,187.791 369.65,188.481C356.44,191.921 337.69,190.801 325.82,182.281C323.06,180.301 321.71,177.761 321.77,174.661C321.88,168.451 323.52,162.291 326.67,156.171C328.05,153.481 330.29,151.311 331.92,148.891C332.75,147.661 334.6,146.231 335.42,144.231C338.54,142.161 341.97,141.131 345.7,141.161C351.24,141.201 356.75,141.611 362.23,142.381Z" style="fill:rgb(219,167,76);fill-rule:nonzero;"/>
            <path d="M633.79,189.261C630.61,190.921 627.34,192.611 624.01,194.351C617.56,197.711 610.32,201.471 602.27,205.621C601.48,206.031 601.3,207.091 601.92,207.731L602.02,207.831C602.76,208.591 603.9,208.781 604.84,208.301C617.64,201.781 627.88,196.561 635.55,192.651C643.16,188.631 653.32,183.281 666.03,176.581C666.97,176.091 667.47,175.041 667.28,174.001L667.25,173.861C667.08,172.981 666.12,172.521 665.33,172.931C657.29,177.111 650.05,180.871 643.59,184.201C640.24,185.921 636.98,187.611 633.79,189.261ZM655,487.471C654.48,488.811 654,490.281 653.55,491.871C651.2,500.241 646.86,507.171 640.53,512.681C636.27,516.381 626.19,523.891 610.3,535.201C596.29,545.171 587.6,551.391 584.21,553.871C582.34,555.241 579.19,557.251 574.75,559.881C577.16,519.852 579.46,477.901 582.04,440.111C587.13,365.381 589.83,325.211 590.15,319.611C591.99,287.501 592.93,270.921 592.97,269.861C593.72,252.191 594.22,237.751 592.54,220.121C592.08,215.301 590.66,210.361 585.51,209.031C585.23,208.961 578.18,207.201 564.37,203.771C550.25,200.271 535.78,197.831 521.82,194.241C515.44,192.601 508.43,191.321 501.67,189.981C501.22,189.641 501.22,189.181 501.69,188.611C502.12,188.091 502.54,187.571 502.95,187.041C521.49,185.111 539.85,179.741 558.03,170.931C571.84,164.231 582.53,154.841 590.12,142.761C590.27,142.521 590.46,142.301 590.68,142.121L591.25,141.641C616.94,146.311 642.46,151.781 667.8,158.061C673.39,159.451 678.13,161.051 682.01,162.871C690.17,166.701 692.91,175.861 693.58,184.321C694.03,190.071 694.07,198.001 693.69,208.111C693.18,221.671 692.28,235.751 690.97,250.341C690.45,256.091 688.68,260.761 685.67,264.361C685.46,264.611 685.22,264.831 684.97,265.041C681.08,268.191 676.68,270.981 671.79,273.411C671.4,273.601 671.14,273.971 671.08,274.401C670.13,282.401 670.02,290.641 669.53,298.481C666.23,351.381 663.31,400.681 658.55,457.131C657.58,468.521 656.4,478.631 655,487.471Z" style="fill:rgb(41,84,67);fill-rule:nonzero;"/>
            <path d="M129.27,152.201C129.35,151.891 129.56,152.031 129.899,152.601C135.39,161.691 143.02,168.591 152.78,173.281C168.61,180.901 186.08,184.291 203.21,186.481L203.61,186.481C204.01,186.481 204.28,186.801 204.42,187.451C204.01,187.521 203.54,187.631 203.01,187.761C195.97,189.511 188.93,191.391 181.89,193.421C174.9,195.431 168.66,197.611 163.17,199.961C153.59,204.071 144.25,207.411 135.69,213.041C130.38,216.531 125.13,219.701 119.94,222.541L37.009,201.021C36.229,200.821 35.399,201.041 34.829,201.611L34.549,201.881C33.969,202.461 34.169,203.441 34.919,203.751C38.179,205.131 42.229,206.381 47.069,207.511C55.419,209.471 71.979,213.711 96.749,220.221C102.6,221.761 109.78,223.161 116.37,224.861C114.45,226.611 112.52,228.221 110.58,229.711C103.43,235.201 97.319,241.311 89.249,248.591C85.909,251.591 82.519,255.371 79.689,258.831C74.939,264.661 70.179,270.571 65.419,276.561C63.049,279.551 61.179,282.331 59.829,284.901C59.339,285.821 60.019,286.921 61.059,286.901C62.389,286.871 63.779,286.701 65.209,286.371C69.259,285.451 74.339,284.191 80.449,282.591C87.679,280.691 94.199,279.741 100.7,278.961C101.38,278.881 101.98,279.411 101.98,280.101C101.93,290.031 101.63,300.791 101.1,312.391C100.89,317.041 101.61,323.561 101.78,326.781C101.82,327.651 102.73,328.211 103.53,327.871C104.15,327.601 104.72,327.101 105.24,326.381C109.13,320.911 112.4,316.011 115.03,311.661C116.85,308.651 118.42,306.321 119.74,304.651C126.56,296.001 133.09,285.601 140.67,277.671C148.58,269.391 157.5,259.821 167,252.391C167.49,252.001 168.21,252.361 168.21,252.981C168.17,280.021 169.43,305.301 171.34,343.111C174.32,401.841 177.25,460.011 180.14,517.611C181.17,538.121 182.5,560.951 184.11,586.111C184.32,589.351 184.81,592.911 185.59,596.781C179.52,594.981 173.56,593.071 167.73,591.061C140.21,581.561 110.2,572.191 97.029,567.521C87.359,564.091 80.999,561.541 77.949,559.861C67.419,554.061 60.819,545.191 58.149,533.261C57.689,531.211 57.309,529.581 57.019,528.371C56.489,526.041 56.159,524.071 56.019,522.461C50.279,458.701 47.079,411.501 41.309,330.721C40.589,320.681 40.529,313.811 39.429,305.451C39.379,305.071 39.109,304.741 38.739,304.621C34.889,303.341 30.839,301.871 26.579,300.221C18.789,297.191 16.129,291.261 14.689,283.621C13.889,279.391 13.209,273.391 12.649,265.631C11.839,254.501 11.259,242.001 10.909,228.121C10.569,214.631 10.529,197.631 24.259,190.241C28.239,188.091 33.979,185.651 41.489,182.921C65.979,174.001 87.709,166.681 110.08,158.741C116.45,156.471 122.85,154.291 129.27,152.201Z" style="fill:rgb(41,84,67);fill-rule:nonzero;"/>
            <path d="M635.55,192.651C627.88,196.561 617.64,201.781 604.84,208.301C603.9,208.781 602.76,208.591 602.02,207.831L601.92,207.731C601.3,207.091 601.48,206.031 602.27,205.621C610.32,201.471 617.56,197.711 624.01,194.351C627.34,192.611 630.61,190.921 633.79,189.261C636.98,187.611 640.24,185.921 643.59,184.201C650.05,180.871 657.29,177.111 665.33,172.931C666.12,172.521 667.08,172.981 667.25,173.861L667.28,174.001C667.47,175.041 666.97,176.091 666.03,176.581C653.32,183.281 643.16,188.631 635.55,192.651Z" style="fill:white;fill-rule:nonzero;"/>
            <path d="M312.76,216.071C292.8,225.651 272.87,235.291 252.98,244.991C247.79,247.521 242.51,249.401 237.78,252.471C233.12,255.491 232.87,260.721 232.45,266.581C232.12,271.111 231.99,274.701 232.04,277.361C232.37,294.991 232.99,315.661 233.9,339.371C234.16,346.041 234.42,352.651 234.68,359.191C238.1,444.401 241.27,526.201 244.18,604.611C244.31,608.111 244.35,611.771 244.31,615.581C244.34,616.011 244.27,616.341 244.11,616.581C243.96,616.811 243.65,616.931 243.2,616.921C236.65,616.801 229.9,614.951 224.16,613.121C222.34,612.551 214.03,609.611 199.22,604.321C195.75,603.081 192.98,601.861 190.9,600.671C189.47,599.861 187.7,598.561 185.59,596.781C184.81,592.911 184.32,589.351 184.11,586.111C182.5,560.951 181.17,538.121 180.14,517.611C177.25,460.011 174.32,401.841 171.34,343.111C169.43,305.301 168.17,280.021 168.21,252.981C168.21,252.361 167.49,252.001 167,252.391C157.5,259.821 148.58,269.391 140.67,277.671C133.09,285.601 126.56,296.001 119.74,304.651C118.42,306.321 116.85,308.651 115.03,311.661C112.4,316.011 109.13,320.911 105.24,326.381C104.72,327.101 104.15,327.601 103.53,327.871C102.73,328.211 101.82,327.651 101.78,326.781C101.61,323.561 100.89,317.041 101.1,312.391C101.63,300.791 101.93,290.031 101.98,280.101C101.98,279.411 101.38,278.881 100.7,278.961C94.199,279.741 87.679,280.691 80.449,282.591C74.339,284.191 69.259,285.451 65.209,286.371C63.779,286.701 62.389,286.871 61.059,286.901C60.019,286.921 59.339,285.821 59.829,284.901C61.179,282.331 63.049,279.551 65.419,276.561C70.179,270.571 74.939,264.661 79.689,258.831C82.519,255.371 85.909,251.591 89.249,248.591C97.319,241.311 103.43,235.201 110.58,229.711C112.52,228.221 114.45,226.611 116.37,224.861C117.49,224.751 118.68,223.971 119.94,222.541C125.13,219.701 130.38,216.531 135.69,213.041C144.25,207.411 153.59,204.071 163.17,199.961C168.66,197.611 174.9,195.431 181.89,193.421C188.93,191.391 195.97,189.511 203.01,187.761C203.54,187.631 204.01,187.521 204.42,187.451C236.3,187.601 268.13,186.341 299.92,183.671C306.57,183.111 313.03,182.301 319.32,181.231C319.67,181.171 320.03,181.341 320.2,181.651C321.09,183.181 322.35,184.521 324,185.671C324.2,185.811 324.15,186.111 323.92,186.171C318.85,187.561 315.74,188.431 314.57,188.771C300.03,193.071 281.02,199.221 257.549,207.231C243.91,211.881 231.15,216.611 219.27,221.441C206.32,226.711 193.34,233.161 180.35,240.811C179.39,241.371 178.96,242.521 179.31,243.581L179.37,243.781C179.68,244.721 180.77,245.131 181.63,244.641C193.64,237.791 201.61,233.481 205.54,231.711C222.65,223.991 241.02,216.851 260.63,210.281C274.08,205.781 285.1,202.121 293.69,199.291C305.08,195.541 315.97,192.961 326.02,189.031C327.51,188.451 328.73,188.611 330.19,189.211C330.59,189.371 330.75,189.851 330.52,190.221C330.08,190.931 329.27,191.941 328.1,193.271C321.99,200.191 316.87,207.791 312.76,216.071Z" style="fill:rgb(219,167,76);fill-rule:nonzero;"/>
            <path d="M501.67,189.981C508.43,191.321 515.44,192.601 521.82,194.241C535.78,197.831 550.25,200.271 564.37,203.771C578.18,207.201 585.23,208.961 585.51,209.031C590.66,210.361 592.08,215.301 592.54,220.121C594.22,237.751 593.72,252.191 592.97,269.861C592.93,270.921 591.99,287.501 590.15,319.611C589.83,325.211 587.13,365.381 582.04,440.111C579.46,477.901 577.16,519.852 574.75,559.881C573.27,563.231 571.09,566.061 568.2,568.371C562.55,572.901 554.82,578.581 545.01,585.411C538.6,589.881 532.05,592.651 525.36,593.721C525.76,588.061 525.85,581.651 526.12,576.911C531.88,473.721 534.27,435.241 537.4,369.251C538.95,336.661 539.96,314.691 540.44,303.361C541.23,284.811 541.02,266.971 539.82,249.841C539.61,246.811 539.06,244.161 538.17,241.891C537.48,240.121 536.1,239.001 534.02,238.521C528.84,237.341 519.3,235.401 511.72,233.311C501.75,230.561 488.99,227.961 477.81,225.181C429.3,213.081 394.04,204.371 372.01,199.051C369.06,198.341 366.17,197.731 363.35,197.231C362.87,197.141 362.39,197.331 362.1,197.731C361,199.281 360.15,201.111 359.56,203.221C357.19,211.621 355.02,219.461 353.07,226.731C348.34,244.321 345.9,261.991 345.73,279.741C345.72,280.081 345.85,280.411 346.08,280.661C346.25,280.851 346.42,280.981 346.58,281.051C345.93,281.641 345.84,282.681 346.29,284.151C345.9,285.141 345.82,286.751 346.05,288.981C347.92,307.181 349.16,317.881 349.77,321.091C351.81,331.791 354.01,344.011 356.37,357.741C356.57,358.921 355.46,359.901 354.31,359.551C353.64,359.341 352.84,358.881 351.91,358.151C345.54,353.131 340.62,348.711 337.16,344.881C333.02,340.301 329.83,337.561 324.04,332.061C323.5,331.551 322.64,331.621 322.19,332.211C321.93,332.561 321.69,332.961 321.48,333.391C315.69,345.131 310.13,356.811 304.78,368.421C304.31,369.441 303.71,370.221 302.97,370.751C302.27,371.261 301.28,370.981 300.94,370.181C299.33,366.411 297.99,362.241 296.93,357.671C295.12,349.881 293.48,341.161 292.02,331.521C288.87,310.751 289.15,290.101 292.85,269.571L293.76,266.111C297.27,253.861 299.98,245.761 301.88,241.811C305.73,233.781 309.64,225.571 313.61,217.161C316.16,217.451 318.04,216.541 319.24,214.421C323.74,206.451 328.71,198.791 334.16,191.441C334.44,191.061 334.93,190.891 335.38,191.011C341.45,192.621 347.26,193.701 352.82,194.231C354.89,194.431 356.97,194.331 359.04,193.921C359.94,193.741 362.02,193.521 365.29,193.261C370.01,192.881 374.16,191.491 377.99,189.041C378.35,188.811 378.78,188.711 379.2,188.761C397.76,191.071 415.26,192.491 431.69,193.001C455.14,193.731 478.46,192.731 501.67,189.981Z" style="fill:rgb(219,167,76);fill-rule:nonzero;"/>
            <path d="M405.47,535.321C405.12,559.221 404.74,586.321 404.32,616.611C404.19,626.181 404.29,633.921 404.62,639.831C404.66,640.601 405.07,640.991 405.84,641.001C406.6,641.011 407.02,640.631 407.08,639.871C407.59,633.971 407.91,626.241 408.06,616.671C408.51,586.371 408.91,559.281 409.25,535.381C409.6,511.481 409.98,484.381 410.4,454.091C410.53,444.521 410.43,436.781 410.1,430.871C410.05,430.101 409.65,429.711 408.88,429.701C408.12,429.691 407.7,430.071 407.64,430.831C407.13,436.731 406.81,444.461 406.66,454.031C406.21,484.331 405.81,511.421 405.47,535.321ZM411.47,390.851C412.18,391.361 413.17,390.911 413.25,390.041C414.94,372.141 415.4,354.511 414.62,337.141C414.52,334.811 414.25,331.761 413.82,327.981C412.98,320.641 412.66,315.581 410.49,309.721C410.34,309.321 409.96,309.051 409.53,309.051L408.98,309.051C408.16,309.051 407.55,309.811 407.72,310.621C409.76,319.971 410.91,328.051 411.17,334.861C411.72,349.271 411.4,367.351 410.19,389.081C410.16,389.581 410.39,390.071 410.8,390.361L411.47,390.851ZM523.901,245.508C523.479,244.631 522.419,244.261 521.536,244.689L426.22,290.972C425.34,291.401 424.97,292.461 425.4,293.338L425.418,293.374C425.84,294.251 426.9,294.621 427.783,294.193L523.099,247.909C523.979,247.481 524.35,246.421 523.919,245.544L523.901,245.508ZM525.36,593.721C498.07,611.891 470.27,629.501 441.96,646.551C432.27,652.391 424.13,656.761 417.54,659.671C406.01,664.761 393.38,664.691 381.31,660.971C370.28,657.571 360.42,654.681 351.73,652.311C339.4,648.941 323.63,643.081 311.69,639.361C296.99,634.791 282.35,629.871 267.76,624.591C261.359,622.271 253.35,619.711 248.25,618.311C245.84,617.651 244.52,616.741 244.31,615.581C244.35,611.771 244.31,608.111 244.18,604.611C241.27,526.201 238.1,444.401 234.68,359.191C234.42,352.651 234.16,346.041 233.9,339.371C232.99,315.661 232.37,294.991 232.04,277.361C231.99,274.701 232.12,271.111 232.45,266.581C232.87,260.721 233.12,255.491 237.78,252.471C242.51,249.401 247.79,247.521 252.98,244.991C272.87,235.291 292.8,225.651 312.76,216.071C313.35,216.121 313.64,216.491 313.61,217.161C309.64,225.571 305.73,233.781 301.88,241.811C299.98,245.761 297.27,253.861 293.76,266.111L251.23,255.621C250.64,255.481 250.02,255.711 249.67,256.201L249.35,256.631C248.84,257.341 249.2,258.331 250.05,258.551L292.85,269.571C289.15,290.101 288.87,310.751 292.02,331.521C293.48,341.161 295.12,349.881 296.93,357.671C297.99,362.241 299.33,366.411 300.94,370.181C301.28,370.981 302.27,371.261 302.97,370.751C303.71,370.221 304.31,369.441 304.78,368.421C310.13,356.811 315.69,345.131 321.48,333.391C321.69,332.961 321.93,332.561 322.19,332.211C322.64,331.621 323.5,331.551 324.04,332.061C329.83,337.561 333.02,340.301 337.16,344.881C340.62,348.711 345.54,353.131 351.91,358.151C352.84,358.881 353.64,359.341 354.31,359.551C355.46,359.901 356.57,358.921 356.37,357.741C354.01,344.011 351.81,331.791 349.77,321.091C349.16,317.881 347.92,307.181 346.05,288.981C345.82,286.751 345.9,285.141 346.29,284.151C352.06,285.951 357.8,287.631 363.52,289.191C371.73,291.431 377.13,293.041 379.72,294.011C384.81,295.931 390.09,297.931 395.56,300.001C396.31,300.291 397.01,300.141 397.66,299.571C398.3,298.991 398.2,297.961 397.46,297.521C395.14,296.131 392.31,294.821 388.98,293.611C388.24,293.341 380.61,290.791 366.09,285.941C363.28,285.011 356.78,283.381 346.58,281.051C346.42,280.981 346.25,280.851 346.08,280.661C345.85,280.411 345.72,280.081 345.73,279.741C345.9,261.991 348.34,244.321 353.07,226.731C355.02,219.461 357.19,211.621 359.56,203.221C360.15,201.111 361,199.281 362.1,197.731C362.39,197.331 362.87,197.141 363.35,197.231C366.17,197.731 369.06,198.341 372.01,199.051C394.04,204.371 429.3,213.081 477.81,225.181C488.99,227.961 501.75,230.561 511.72,233.311C519.3,235.401 528.84,237.341 534.02,238.521C536.1,239.001 537.48,240.121 538.17,241.891C539.06,244.161 539.61,246.811 539.82,249.841C541.02,266.971 541.23,284.811 540.44,303.361C539.96,314.691 538.95,336.661 537.4,369.251C534.27,435.241 531.88,473.721 526.12,576.911C525.85,581.651 525.76,588.061 525.36,593.721Z" style="fill:rgb(41,84,67);fill-rule:nonzero;"/>
            <path d="M119.94,222.541C118.68,223.971 117.49,224.751 116.37,224.861C109.78,223.161 102.6,221.761 96.749,220.221C71.979,213.711 55.419,209.471 47.069,207.511C42.229,206.381 38.179,205.131 34.919,203.751C34.169,203.441 33.969,202.461 34.549,201.881L34.829,201.611C35.399,201.041 36.229,200.821 37.009,201.021L119.94,222.541Z" style="fill:white;fill-rule:nonzero;"/>
            <path d="M523.919,245.544C524.35,246.421 523.979,247.481 523.099,247.909L427.783,294.193C426.9,294.621 425.84,294.251 425.418,293.374L425.4,293.338C424.97,292.461 425.34,291.401 426.22,290.972L521.536,244.689C522.419,244.261 523.479,244.631 523.901,245.508L523.919,245.544Z" style="fill:white;fill-rule:nonzero;"/>
            <path d="M293.76,266.111L292.85,269.571L250.05,258.551C249.2,258.331 248.84,257.341 249.35,256.631L249.67,256.201C250.02,255.711 250.64,255.481 251.23,255.621L293.76,266.111Z" style="fill:white;fill-rule:nonzero;"/>
            <path d="M346.58,281.051C356.78,283.381 363.28,285.011 366.09,285.941C380.61,290.791 388.24,293.341 388.98,293.611C392.31,294.821 395.14,296.131 397.46,297.521C398.2,297.961 398.3,298.991 397.66,299.571C397.01,300.141 396.31,300.291 395.56,300.001C390.09,297.931 384.81,295.931 379.72,294.011C377.13,293.041 371.73,291.431 363.52,289.191C357.8,287.631 352.06,285.951 346.29,284.151C345.84,282.681 345.93,281.641 346.58,281.051Z" style="fill:white;fill-rule:nonzero;"/>
            <path d="M411.47,390.851L410.8,390.361C410.39,390.071 410.16,389.581 410.19,389.081C411.4,367.351 411.72,349.271 411.17,334.861C410.91,328.051 409.76,319.971 407.72,310.621C407.55,309.811 408.16,309.051 408.98,309.051L409.53,309.051C409.96,309.051 410.34,309.321 410.49,309.721C412.66,315.581 412.98,320.641 413.82,327.981C414.25,331.761 414.52,334.811 414.62,337.141C415.4,354.511 414.94,372.141 413.25,390.041C413.17,390.911 412.18,391.361 411.47,390.851Z" style="fill:white;fill-rule:nonzero;"/>
            <path d="M408.88,429.701C409.65,429.711 410.05,430.101 410.1,430.871C410.43,436.781 410.53,444.521 410.4,454.091C409.98,484.381 409.6,511.481 409.25,535.381C408.91,559.281 408.51,586.371 408.06,616.671C407.91,626.241 407.59,633.971 407.08,639.871C407.02,640.631 406.6,641.011 405.84,641.001C405.07,640.991 404.66,640.601 404.62,639.831C404.29,633.921 404.19,626.181 404.32,616.611C404.74,586.321 405.12,559.221 405.47,535.321C405.81,511.421 406.21,484.331 406.66,454.031C406.81,444.461 407.13,436.731 407.64,430.831C407.7,430.071 408.12,429.691 408.88,429.701Z" style="fill:white;fill-rule:nonzero;"/>
        </g>
    </g>
</svg>
