<?xml version="1.0" encoding="UTF-8" standalone="no"?>
<!DOCTYPE svg PUBLIC "-//W3C//DTD SVG 1.1//EN" "http://www.w3.org/Graphics/SVG/1.1/DTD/svg11.dtd">
<svg width="100%" height="100%" viewBox="0 0 1022 1091" version="1.1" xmlns="http://www.w3.org/2000/svg" xmlns:xlink="http://www.w3.org/1999/xlink" xml:space="preserve" xmlns:serif="http://www.serif.com/" style="fill-rule:evenodd;clip-rule:evenodd;stroke-linejoin:round;stroke-miterlimit:2;">
    <g transform="matrix(0.64,0,0,0.64,0,0)">
        <g transform="matrix(4.16667,0,0,4.16667,0,0)">
            <path d="M199.461,96.776C199.591,99.306 200.521,105.576 198.771,107.486C196.171,110.326 192.941,111.346 189.081,110.546C185.791,109.866 184.031,108.136 183.791,105.366C183.411,100.846 182.971,96.406 182.461,92.036C181.431,78.776 181.881,66.136 183.811,54.116C187.031,34.156 198.171,15.366 213.031,1.726C214.881,0.036 218.621,0.596 220.891,1.706C226.741,4.556 230.921,9.026 233.451,15.096C235.551,20.126 232.891,22.056 228.621,24.816C212.071,35.506 202.651,51.256 200.371,72.076C199.371,81.146 199.071,89.386 199.461,96.776Z" style="fill:rgb(137,101,53);fill-rule:nonzero;"/>
            <path d="M182.461,92.036C182.971,96.406 183.411,100.846 183.791,105.366C184.031,108.136 185.791,109.866 189.081,110.546C192.941,111.346 196.171,110.326 198.771,107.486C200.521,105.576 199.591,99.306 199.461,96.776C201.561,95.666 203.571,93.906 205.481,93.006C215.491,88.266 225.681,84.766 236.061,82.496C236.391,82.426 243.541,80.856 257.531,77.806C264.621,76.256 271.291,73.566 277.531,69.746C283.621,66.016 289.771,59.476 294.291,54.266C295.561,52.796 297.981,52.696 299.101,54.406C299.691,55.296 299.751,56.496 299.261,58.006C295.301,70.376 289.121,82.436 279.191,90.366C272.461,95.736 265.171,99.066 257.341,102.196C246.751,106.086 235.821,108.566 224.531,109.636C223.941,109.686 223.861,110.516 224.431,110.686C229.791,112.236 234.481,113.986 238.511,115.916C244.461,118.776 251.391,122.676 259.281,127.606C265.411,131.446 270.321,134.116 274.001,135.606C282.551,139.076 290.431,140.266 298.191,142.206C299.391,142.506 300.181,143.586 299.981,144.676C299.781,145.826 298.911,146.636 297.381,147.106C277.991,153.136 256.17,151.166 237.151,143.976C222.941,138.606 209.551,131.726 196.981,123.316C196.511,122.996 195.871,123.106 195.531,123.556C192.081,128.146 185.861,133.086 182.101,135.836C180.211,137.206 173.581,141.906 162.191,149.916C153.911,155.746 146.051,164.006 138.611,174.716C137.751,175.966 136.161,177.996 134.881,178.296C129.761,179.476 131.181,173.526 131.821,170.816C133.661,163.086 135.781,156.536 138.191,151.156C143.841,138.516 152.191,128.106 163.241,119.936C164.051,119.336 163.621,118.056 162.621,118.056C146.581,118.016 130.821,117.106 115.331,115.316C108.541,114.526 102.121,113.366 96.051,111.836C93.931,111.046 92.061,110.376 90.451,109.826C73.031,103.916 60.311,92.846 52.291,76.616C51.571,75.166 50.661,72.686 52.011,71.336C53.591,69.756 55.741,71.016 57.181,72.246C60.631,75.156 63.131,77.296 64.701,78.656C77.221,89.546 90.981,93.366 107.201,93.466C125.011,93.576 138.971,93.966 154.531,98.006C154.661,98.036 154.801,97.976 154.851,97.856C154.911,97.736 154.871,97.596 154.761,97.516C135.741,84.506 119.441,66.506 109.291,45.406C108.981,44.776 108.791,44.156 108.721,43.556C108.611,42.676 108.811,42.086 109.321,41.786C110.491,41.096 111.931,41.166 112.951,41.966C119.401,47.016 126.601,52.496 134.481,57.286C142.611,62.226 148.371,65.676 151.741,67.636C163.291,74.326 173.531,82.466 182.461,92.036Z" style="fill:rgb(106,146,68);fill-rule:nonzero;"/>
            <path d="M322.721,274.936C319.631,282.546 312.431,292.356 321.141,299.966C325.511,303.786 331.291,304.306 336.301,301.226C341.911,297.766 345.401,291.036 347.801,285.106C350.201,279.186 352.391,271.926 350.771,265.536C349.331,259.836 344.821,256.186 339.021,255.876C327.471,255.276 325.801,267.326 322.721,274.936ZM314.101,158.106C305.521,156.936 296.391,162.276 296.701,171.666C297.001,181.136 304.671,185.886 309.291,191.076C315.521,198.086 318.701,206.526 322.071,216.296C325.491,226.206 338.411,228.576 345.751,221.436C351.781,215.586 350.861,207.086 348.501,199.626C343.711,184.466 335.441,170.456 322.361,161.366C320.151,159.836 316.751,158.466 314.101,158.106ZM257.341,102.196C287.671,107.346 315.951,118.566 339.031,138.096C382.941,175.256 390.901,237.586 374.731,290.196C361.521,301.046 348.731,312.346 336.341,324.076C326.121,333.746 317.401,343.386 310.181,352.986C303.941,361.286 301.631,370.676 303.251,381.146C276.261,397.816 246.871,406.956 215.071,408.566C181.391,410.266 147.331,407.146 115.081,396.256C57.651,376.876 12.381,333.646 2.391,272.196C-6.268,218.886 8.221,168.516 51.951,134.926C61.301,127.746 71.641,121.676 82.981,116.706C86.551,115.146 90.901,113.526 96.051,111.836C102.121,113.366 108.541,114.526 115.331,115.316C130.821,117.106 146.581,118.016 162.621,118.056C163.621,118.056 164.051,119.336 163.241,119.936C152.191,128.106 143.841,138.516 138.191,151.156C135.781,156.536 133.661,163.086 131.821,170.816C131.181,173.526 129.761,179.476 134.881,178.296C136.161,177.996 137.751,175.966 138.611,174.716C146.051,164.006 153.911,155.746 162.191,149.916C173.581,141.906 180.211,137.206 182.101,135.836C185.861,133.086 192.081,128.146 195.531,123.556C195.871,123.106 196.511,122.996 196.981,123.316C209.551,131.726 222.941,138.606 237.151,143.976C256.17,151.166 277.991,153.136 297.381,147.106C298.911,146.636 299.781,145.826 299.981,144.676C300.181,143.586 299.391,142.506 298.191,142.206C290.431,140.266 282.551,139.076 274.001,135.606C270.321,134.116 265.411,131.446 259.281,127.606C251.391,122.676 244.461,118.776 238.511,115.916C234.481,113.986 229.791,112.236 224.431,110.686C223.861,110.516 223.941,109.686 224.531,109.636C235.821,108.566 246.751,106.086 257.341,102.196Z" style="fill:rgb(212,83,62);fill-rule:nonzero;"/>
            <path d="M314.101,158.106C316.751,158.466 320.151,159.836 322.361,161.366C335.441,170.456 343.711,184.466 348.501,199.626C350.861,207.086 351.781,215.586 345.751,221.436C338.411,228.576 325.491,226.206 322.071,216.296C318.701,206.526 315.521,198.086 309.291,191.076C304.671,185.886 297.001,181.136 296.701,171.666C296.391,162.276 305.521,156.936 314.101,158.106Z" style="fill:rgb(220,119,102);fill-rule:nonzero;"/>
            <path d="M347.801,285.106C345.401,291.036 341.911,297.766 336.301,301.226C331.291,304.306 325.511,303.786 321.141,299.966C312.431,292.356 319.631,282.546 322.721,274.936C325.801,267.326 327.471,255.276 339.021,255.876C344.821,256.186 349.331,259.836 350.771,265.536C352.391,271.926 350.201,279.186 347.801,285.106Z" style="fill:rgb(220,119,102);fill-rule:nonzero;"/>
            <path d="M374.731,290.196C362.531,328.446 337.221,359.886 303.251,381.146C301.631,370.676 303.941,361.286 310.181,352.986C317.401,343.386 326.121,333.746 336.341,324.076C348.731,312.346 361.521,301.046 374.731,290.196Z" style="fill:rgb(220,119,102);fill-rule:nonzero;"/>
        </g>
    </g>
</svg>
